<svg width="130" height="130" viewBox="0 0 130 130" fill="none" xmlns="http://www.w3.org/2000/svg">
<path d="M56.1689 75.7956C55.6272 75.7956 55.2661 75.615 54.905 75.2539C54.1827 74.5317 54.1827 73.4484 54.905 72.7261L72.9605 54.6706C73.6827 53.9484 74.7661 53.9484 75.4883 54.6706C76.2105 55.3928 76.2105 56.4761 75.4883 57.1984L57.4327 75.2539C57.0716 75.615 56.7105 75.7956 56.1689 75.7956Z" fill="white"/>
<path d="M74.2235 73.989C73.1402 73.989 72.418 73.2668 72.418 72.1835V57.739H57.9735C56.8902 57.739 56.168 57.0168 56.168 55.9335C56.168 54.8501 56.8902 54.1279 57.9735 54.1279H74.2235C75.3069 54.1279 76.0291 54.8501 76.0291 55.9335V72.1835C76.0291 73.2668 75.3069 73.989 74.2235 73.989Z" fill="white"/>
<path d="M93.7386 35.9019C93.0758 35.2478 92.6504 34.5433 92.4624 33.7885C92.2775 33.0306 92.3136 32.2667 92.5707 31.4967C92.8308 30.7298 93.2986 30.0041 93.9739 29.3198C94.6492 28.6354 95.3685 28.1581 96.132 27.8878C96.8984 27.6205 97.6603 27.5758 98.4176 27.7537C99.1778 27.9285 99.8894 28.343 100.552 28.9971C101.316 29.7512 101.764 30.5713 101.895 31.4576C102.029 32.3408 101.879 33.2077 101.446 34.0581L100.023 33.2627C100.321 32.7028 100.434 32.1487 100.364 31.6004C100.296 31.0491 100.015 30.5296 99.5211 30.042C99.0762 29.6029 98.6064 29.3363 98.1119 29.242C97.6205 29.1507 97.1209 29.212 96.6132 29.4257C96.1116 29.6394 95.62 29.9872 95.1385 30.469C94.66 30.9539 94.3157 31.4501 94.1057 31.9575C93.9018 32.465 93.8502 32.9653 93.9511 33.4585C94.0519 33.9517 94.3248 34.4179 94.7698 34.857C95.2638 35.3445 95.787 35.6185 96.3392 35.6788C96.8914 35.7392 97.4439 35.6181 97.9968 35.3157L98.811 36.7279C97.9664 37.1725 97.1002 37.3353 96.2122 37.2162C95.3273 37.094 94.5028 36.6559 93.7386 35.9019ZM97.1612 39.1292L104.831 33.8472L106.925 36.8885C107.282 37.4069 107.47 37.9034 107.488 38.3779C107.512 38.8535 107.417 39.2824 107.204 39.6647C106.993 40.0506 106.716 40.3621 106.371 40.5993C105.949 40.8903 105.521 41.0361 105.087 41.0367C104.655 41.0408 104.269 40.9061 103.929 40.6326L104.195 40.4492C104.418 41.0079 104.44 41.5314 104.264 42.0196C104.089 42.5113 103.78 42.91 103.336 43.2157C102.882 43.5287 102.424 43.7156 101.964 43.7764C101.503 43.8371 101.058 43.7613 100.629 43.549C100.203 43.3401 99.8157 42.9836 99.4684 42.4794L97.1612 39.1292ZM99.2653 39.5962L100.567 41.487C100.721 41.7107 100.904 41.8807 101.115 41.9971C101.33 42.1111 101.553 42.1615 101.785 42.1485C102.022 42.1365 102.255 42.0523 102.482 41.8958C102.688 41.7539 102.842 41.5824 102.944 41.3811C103.047 41.1799 103.087 40.961 103.066 40.7246C103.048 40.4857 102.957 40.2473 102.793 40.0093L101.465 38.0813L99.2653 39.5962ZM102.663 37.256L103.852 38.9816C103.979 39.1663 104.128 39.3069 104.299 39.4036C104.471 39.5003 104.655 39.5436 104.852 39.5334C105.049 39.5233 105.249 39.4485 105.452 39.3091C105.718 39.1257 105.881 38.8876 105.941 38.5949C106.001 38.3022 105.926 38.0032 105.716 37.6978L104.528 35.9721L102.663 37.256ZM103.947 51.3181L103.317 49.8996L106.29 48.579L105.313 46.3804L105.096 45.7481C104.892 44.9706 104.961 44.2962 105.301 43.725C105.646 43.1521 106.165 42.7115 106.858 42.4035C107.327 42.1952 107.788 42.085 108.24 42.0728C108.696 42.0588 109.121 42.1554 109.515 42.3626C109.909 42.5697 110.253 42.9029 110.546 43.3621C110.617 43.4676 110.682 43.5826 110.742 43.7069C110.808 43.8334 110.859 43.938 110.896 44.0208L112.458 47.5373L103.947 51.3181ZM101.776 46.4304L101.059 44.8169L105.661 44.9806L105.985 46.5703L101.776 46.4304ZM107.62 47.9883L110.492 46.7122L109.586 44.6733C109.551 44.5945 109.508 44.5076 109.456 44.4125C109.409 44.3158 109.354 44.2313 109.294 44.1591C109.13 43.9489 108.942 43.8081 108.731 43.7368C108.522 43.6693 108.309 43.6509 108.091 43.6815C107.878 43.7103 107.68 43.765 107.499 43.8455C107.318 43.9261 107.145 44.0359 106.98 44.1751C106.816 44.3143 106.688 44.4841 106.598 44.6846C106.509 44.889 106.488 45.1225 106.534 45.3852C106.547 45.4784 106.572 45.5761 106.608 45.6781C106.643 45.7801 106.679 45.8705 106.714 45.9493L107.62 47.9883ZM104.823 55.4593C104.671 54.8219 104.63 54.2421 104.701 53.72C104.776 53.2011 104.922 52.7452 105.139 52.3522C105.361 51.9625 105.615 51.6426 105.901 51.3927L107.091 52.4785C106.884 52.6342 106.697 52.834 106.529 53.0779C106.365 53.3208 106.252 53.616 106.188 53.9636C106.129 54.3101 106.155 54.7161 106.266 55.1816C106.373 55.6304 106.528 55.9813 106.73 56.2345C106.932 56.4877 107.158 56.6553 107.408 56.7375C107.658 56.8197 107.911 56.8303 108.167 56.7693C108.486 56.6933 108.71 56.5467 108.84 56.3296C108.974 56.1114 109.041 55.8517 109.04 55.5506C109.043 55.2484 109.01 54.9348 108.942 54.6099C108.88 54.3144 108.836 54.1011 108.809 53.9701C108.782 53.8391 108.764 53.7526 108.754 53.7106C108.744 53.6687 108.734 53.6289 108.725 53.5911L110.16 53.2491C110.171 53.2952 110.189 53.3728 110.215 53.4818C110.242 53.595 110.27 53.7104 110.298 53.8278C110.331 53.9484 110.359 54.046 110.381 54.1204C110.516 54.5935 110.721 54.9591 110.995 55.2173C111.27 55.4796 111.605 55.5638 111.999 55.4697C112.381 55.3787 112.646 55.1625 112.795 54.8211C112.945 54.484 112.964 54.0784 112.851 53.6045C112.745 53.16 112.553 52.7914 112.274 52.4987C111.997 52.2102 111.704 52.012 111.395 51.9041L112.223 50.5829C112.669 50.8 113.083 51.1402 113.464 51.6034C113.85 52.0698 114.123 52.6385 114.283 53.3095C114.377 53.7037 114.416 54.0999 114.4 54.4982C114.389 54.8954 114.313 55.2679 114.175 55.6157C114.036 55.9635 113.824 56.2644 113.539 56.5186C113.254 56.7727 112.885 56.9538 112.432 57.0619C112.017 57.1609 111.614 57.1727 111.224 57.0974C110.839 57.0252 110.502 56.8752 110.212 56.6472C110.148 57.0836 109.978 57.4498 109.703 57.7459C109.429 58.0462 109.042 58.2559 108.543 58.3749C107.956 58.5149 107.411 58.4766 106.907 58.2599C106.403 58.0432 105.969 57.6902 105.604 57.2011C105.244 56.7151 104.984 56.1345 104.823 55.4593ZM105.878 58.9297L115.344 61.3226L115.476 63.6016L106.349 67.071L106.256 65.4699L114.444 62.327L114.464 62.6756L105.97 60.5308L105.878 58.9297ZM107.987 60.4465L109.439 60.3624L109.722 65.2433L108.269 65.3274L107.987 60.4465ZM105.992 68.8935L113.795 69.7618L114.128 66.7666L115.581 66.9282L114.742 74.4676L113.289 74.3059L113.623 71.3108L105.82 70.4425L105.992 68.8935ZM105.384 73.5936L114.308 76.2573L113.862 77.7508L110.745 76.8203L110.09 79.014C110.065 79.0966 110.028 79.2069 109.978 79.3449C109.932 79.4841 109.881 79.6085 109.826 79.718C109.594 80.2069 109.297 80.5791 108.932 80.8348C108.567 81.0947 108.158 81.2447 107.705 81.285C107.255 81.3306 106.786 81.2807 106.298 81.1351C105.807 80.9884 105.383 80.772 105.028 80.4859C104.675 80.2051 104.417 79.8559 104.254 79.4382C104.089 79.0247 104.044 78.55 104.119 78.0143C104.137 77.8937 104.162 77.7619 104.196 77.619C104.228 77.4802 104.258 77.3674 104.284 77.2807L105.384 73.5936ZM106.339 75.5051L105.703 77.6368C105.677 77.7235 105.653 77.8177 105.632 77.9193C105.609 78.0251 105.595 78.1265 105.588 78.2235C105.577 78.4858 105.629 78.7106 105.745 78.8979C105.858 79.0893 106.006 79.2436 106.187 79.3606C106.371 79.483 106.558 79.5726 106.748 79.6293C106.938 79.686 107.141 79.713 107.358 79.7102C107.574 79.7116 107.781 79.6634 107.982 79.5657C108.181 79.4721 108.347 79.3127 108.482 79.0874C108.534 79.0039 108.579 78.9118 108.619 78.811C108.656 78.7143 108.688 78.6226 108.714 78.5358L109.351 76.4041L106.339 75.5051ZM101.162 84.1119C101.595 83.2877 102.146 82.6761 102.814 82.2772C103.485 81.8802 104.227 81.6929 105.038 81.7154C105.848 81.7417 106.678 81.9786 107.529 82.4261C108.38 82.8737 109.045 83.4235 109.526 84.0756C110.004 84.7315 110.268 85.4475 110.317 86.2238C110.371 87.0021 110.181 87.8034 109.747 88.6276C109.248 89.5777 108.593 90.244 107.783 90.6266C106.976 91.0111 106.103 91.1195 105.164 90.9517L105.512 89.3592C106.134 89.4819 106.697 89.4298 107.201 89.203C107.709 88.9781 108.125 88.5585 108.448 87.9442C108.739 87.3909 108.858 86.864 108.805 86.3634C108.749 85.8666 108.546 85.4063 108.194 84.9826C107.844 84.5646 107.368 84.1951 106.767 83.8742C106.164 83.5571 105.59 83.3718 105.043 83.3181C104.498 83.2703 104.004 83.3662 103.562 83.6059C103.119 83.8455 102.752 84.242 102.461 84.7953C102.138 85.4096 102.028 85.9898 102.13 86.5357C102.233 87.0817 102.509 87.5753 102.959 88.0165L101.844 89.2057C101.173 88.5265 100.766 87.7448 100.622 86.8606C100.482 85.9783 100.662 85.0621 101.162 84.1119ZM94.8479 93.5073L95.8262 92.3024L98.3516 94.3528L99.868 92.4851L100.333 92.0047C100.933 91.4704 101.565 91.2255 102.229 91.27C102.896 91.3172 103.524 91.58 104.113 92.0583C104.511 92.3817 104.819 92.7421 105.034 93.1396C105.254 93.5398 105.36 93.9624 105.355 94.4075C105.349 94.8525 105.208 95.31 104.932 95.7801C104.869 95.8907 104.797 96.0009 104.713 96.1108C104.63 96.2267 104.56 96.3197 104.503 96.39L102.078 99.3773L94.8479 93.5073ZM98.219 89.3553L99.3319 87.9847L101.273 92.16L100.003 93.1699L98.219 89.3553ZM99.4812 95.27L101.921 97.2511L103.328 95.519C103.382 95.452 103.44 95.374 103.501 95.2849C103.566 95.1985 103.616 95.112 103.653 95.0254C103.766 94.7838 103.807 94.5528 103.774 94.3324C103.74 94.1154 103.659 93.9168 103.533 93.7368C103.411 93.5595 103.272 93.4083 103.118 93.2833C102.965 93.1583 102.788 93.054 102.589 92.9704C102.391 92.8869 102.182 92.8503 101.962 92.8609C101.74 92.8747 101.522 92.9617 101.309 93.1218C101.232 93.1758 101.156 93.2419 101.081 93.3201C101.006 93.3983 100.942 93.4709 100.888 93.5379L99.4812 95.27ZM89.264 97.9243C90.0125 97.3704 90.7742 97.0588 91.549 96.9896C92.3264 96.9239 93.0756 97.0775 93.7966 97.4503C94.5142 97.8257 95.159 98.3998 95.7309 99.1727C96.3028 99.9455 96.6634 100.73 96.8126 101.526C96.9584 102.325 96.8849 103.084 96.5923 103.805C96.3022 104.529 95.7829 105.168 95.0343 105.722C94.1714 106.361 93.292 106.676 92.3961 106.669C91.5028 106.665 90.6695 106.383 89.8961 105.824L90.9016 104.54C91.4088 104.921 91.9387 105.119 92.4913 105.134C93.0465 105.152 93.6031 104.955 94.1611 104.542C94.6636 104.17 94.9996 103.747 95.1691 103.273C95.3351 102.802 95.3517 102.299 95.2188 101.764C95.0851 101.235 94.8174 100.696 94.4157 100.146C94.0105 99.5984 93.5734 99.1817 93.1044 98.8958C92.6345 98.616 92.1482 98.4879 91.6453 98.5114C91.1424 98.5349 90.6397 98.7325 90.1372 99.1044C89.5792 99.5173 89.2278 99.9919 89.083 100.528C88.9381 101.064 88.9724 101.629 89.1859 102.222L87.6649 102.808C87.356 101.905 87.3289 101.024 87.5836 100.165C87.8409 99.31 88.401 98.5629 89.264 97.9243ZM83.5648 101.864L86.9813 110.527L85.5314 111.099L84.0937 107.453L79.9906 109.071L81.4284 112.717L79.9846 113.287L76.568 104.623L78.0119 104.054L79.4544 107.712L83.5574 106.094L82.1149 102.436L83.5648 101.864ZM76.366 104.745L75.1327 114.432L72.8862 114.837L68.341 106.195L69.9192 105.91L74.027 113.659L73.6833 113.721L74.7877 105.03L76.366 104.745ZM75.1147 107.022L75.3734 108.454L70.5622 109.323L70.3035 107.891L75.1147 107.022ZM68.1751 106.138L67.8628 115.445L66.4602 115.398L63.4626 108.697L60.0226 115.182L58.6201 115.135L58.9324 105.828L60.3866 105.876L60.1865 111.842L63.2435 105.972L63.864 105.993L66.5142 112.054L66.7143 106.089L68.1751 106.138ZM50.9613 103.826L52.4879 104.226L50.8273 110.576L56.6674 105.319L58.194 105.718L55.8381 114.727L54.3114 114.328L55.9721 107.978L50.132 113.235L48.6053 112.836L50.9613 103.826ZM35.6564 93.4838C36.3058 94.1513 36.7167 94.8643 36.8892 95.6228C37.0586 96.3843 37.0069 97.1473 36.7341 97.9119C36.4584 98.6734 35.9759 99.3893 35.2868 100.06C34.5976 100.73 33.8686 101.193 33.0998 101.447C32.3281 101.699 31.5654 101.728 30.812 101.535C30.0554 101.344 29.3525 100.915 28.7031 100.248C27.9546 99.4783 27.5239 98.6492 27.4112 97.7604C27.2953 96.8746 27.4627 96.0111 27.9134 95.1697L29.3198 95.994C29.0103 96.5477 28.8853 97.0993 28.9448 97.6489C29.0012 98.2016 29.2714 98.7267 29.7554 99.2242C30.1913 99.6723 30.6555 99.9485 31.148 100.053C31.6374 100.154 32.1382 100.103 32.6501 99.8998C33.156 99.6964 33.6546 99.3588 34.1459 98.8869C34.6342 98.4119 34.9885 97.9229 35.2088 97.4198C35.4231 96.9166 35.4849 96.4175 35.3941 95.9223C35.3034 95.4271 35.0401 94.9555 34.6042 94.5074C34.1202 94.0098 33.6027 93.7252 33.0519 93.6536C32.501 93.582 31.9461 93.6917 31.3872 93.9828L30.602 92.5542C31.4555 92.127 32.3249 91.9819 33.2102 92.1192C34.0925 92.2594 34.9079 92.7143 35.6564 93.4838ZM32.3046 90.1913L24.5234 95.3076L22.4946 92.2221C22.1488 91.6962 21.972 91.1958 21.9643 90.721C21.9505 90.245 22.0543 89.8182 22.2755 89.4405C22.4944 89.0593 22.7785 88.7538 23.128 88.524C23.5567 88.2421 23.988 88.1056 24.422 88.1143C24.8537 88.1194 25.2366 88.2624 25.5708 88.5431L25.3007 88.7208C25.0902 88.1574 25.0786 87.6336 25.2658 87.1493C25.4507 86.6614 25.7683 86.2694 26.2186 85.9733C26.6797 85.6701 27.1412 85.4931 27.6031 85.4422C28.065 85.3914 28.5081 85.4767 28.9324 85.6982C29.3543 85.9161 29.7334 86.2809 30.0698 86.7924L32.3046 90.1913ZM30.211 89.6793L28.9497 87.761C28.8005 87.5341 28.6216 87.3602 28.4132 87.2393C28.2011 87.1207 27.979 87.0655 27.747 87.0736C27.509 87.0805 27.2747 87.1597 27.0441 87.3113C26.8352 87.4487 26.6775 87.6169 26.571 87.8159C26.4645 88.0149 26.4194 88.2328 26.4359 88.4697C26.4487 88.7089 26.5345 88.9492 26.6932 89.1906L27.9793 91.1467L30.211 89.6793ZM26.7635 91.9461L25.6124 90.1954C25.4892 90.008 25.343 89.8642 25.1739 89.7639C25.0047 89.6636 24.8214 89.6164 24.6241 89.6223C24.4268 89.6282 24.2254 89.6987 24.0201 89.8337C23.7499 90.0113 23.5816 90.2458 23.5152 90.5372C23.4487 90.8285 23.5174 91.1291 23.7211 91.4389L24.8723 93.1897L26.7635 91.9461ZM25.7613 77.8572L26.3642 79.2874L23.3667 80.551L24.3012 82.7678L24.5063 83.4042C24.6952 84.1854 24.614 84.8584 24.2624 85.423C23.9069 85.9892 23.3796 86.4197 22.6804 86.7145C22.2076 86.9138 21.7451 87.0152 21.2927 87.0187C20.8364 87.024 20.4133 86.9193 20.0233 86.7046C19.6334 86.49 19.2961 86.1503 19.0112 85.6855C18.9428 85.5787 18.8798 85.4626 18.8222 85.3371C18.759 85.2093 18.7098 85.1038 18.6747 85.0203L17.18 81.4746L25.7613 77.8572ZM27.8388 82.7854L28.5246 84.4123L23.9269 84.1608L23.6332 82.5651L27.8388 82.7854ZM22.0258 81.1162L19.1297 82.3371L19.9963 84.393C20.0298 84.4725 20.0715 84.5602 20.1213 84.6561C20.1671 84.7538 20.2196 84.8393 20.2786 84.9127C20.4386 85.1259 20.6235 85.2703 20.8331 85.3457C21.041 85.4171 21.254 85.4396 21.4721 85.4132C21.6862 85.3884 21.8847 85.3375 22.0674 85.2604C22.2502 85.1834 22.4252 85.0769 22.5924 84.9409C22.7597 84.8049 22.8903 84.6375 22.9843 84.4388C23.0767 84.2361 23.1024 84.003 23.0615 83.7395C23.0502 83.6461 23.0276 83.548 22.9936 83.4453C22.9597 83.3426 22.926 83.2516 22.8925 83.1721L22.0258 81.1162ZM24.9793 73.7103C25.1173 74.351 25.1453 74.9315 25.0633 75.4519C24.9763 75.969 24.8202 76.4216 24.595 76.8097C24.3648 77.1945 24.1039 77.5087 23.8124 77.7523L22.6468 76.6406C22.8568 76.4895 23.0484 76.2939 23.2216 76.0537C23.3905 75.8144 23.5105 75.5218 23.5815 75.1757C23.6483 74.8306 23.6313 74.4241 23.5305 73.9562C23.4334 73.5053 23.2865 73.151 23.0899 72.8935C22.8933 72.6359 22.6709 72.4633 22.4227 72.3756C22.1745 72.288 21.9218 72.2718 21.6647 72.3272C21.3444 72.3962 21.1169 72.5378 20.9822 72.7521C20.8433 72.9672 20.771 73.2254 20.7653 73.5265C20.7554 73.8285 20.7812 74.1427 20.8427 74.4691C20.8978 74.7659 20.9373 74.9801 20.9613 75.1117C20.9852 75.2432 21.0017 75.3301 21.0108 75.3722C21.0199 75.4144 21.0285 75.4544 21.0367 75.4924L19.5952 75.8029C19.5852 75.7565 19.5684 75.6785 19.5448 75.5689C19.5203 75.4551 19.4954 75.3392 19.4699 75.2212C19.4394 75.0999 19.4138 75.0018 19.3933 74.9268C19.2687 74.4509 19.0721 74.0809 18.8036 73.8168C18.5341 73.5484 18.2012 73.457 17.8051 73.5423C17.4215 73.6249 17.1515 73.8352 16.995 74.1733C16.8375 74.5071 16.8101 74.9121 16.9127 75.3884C17.0089 75.8351 17.1929 76.2079 17.4645 76.5066C17.7352 76.8011 18.0241 77.0057 18.331 77.1204L17.4738 78.4231C17.0324 78.1962 16.6264 77.847 16.2558 77.3756C15.8801 76.9008 15.6196 76.3262 15.4744 75.6519C15.389 75.2557 15.3587 74.8587 15.3832 74.4609C15.4036 74.064 15.4869 73.6932 15.6332 73.3486C15.7794 73.004 15.9979 72.7077 16.2885 72.4599C16.5791 72.2121 16.952 72.0391 17.4072 71.9411C17.8245 71.8512 18.2274 71.8482 18.6159 71.9321C18.9993 72.0127 19.3331 72.1701 19.6173 72.4044C19.6912 71.9695 19.869 71.6071 20.1505 71.3171C20.4311 71.0229 20.8222 70.8218 21.3238 70.7137C21.9138 70.5866 22.4583 70.6369 22.9572 70.8647C23.4561 71.0924 23.8826 71.4548 24.2366 71.9518C24.5855 72.4456 24.8331 73.0318 24.9793 73.7103ZM23.9999 70.2067L14.5825 67.6265L14.4958 65.3453L23.6902 62.0576L23.7511 63.6603L15.5029 66.6402L15.4896 66.2912L23.939 68.6041L23.9999 70.2067ZM21.9215 68.6484L20.4674 68.7036L20.2818 63.8181L21.7358 63.7628L21.9215 68.6484ZM24.0921 60.2596L16.3117 59.2084L15.9082 62.1949L14.4598 61.9992L15.4755 54.4816L16.9239 54.6773L16.5204 57.6639L24.3007 58.7151L24.0921 60.2596ZM24.813 55.553L15.9412 52.7217L16.4151 51.237L19.514 52.2259L20.2101 50.045C20.2363 49.9628 20.2758 49.8532 20.3285 49.7162C20.3772 49.5779 20.4302 49.4545 20.4874 49.346C20.728 48.8616 21.0328 48.495 21.4018 48.2462C21.7722 47.9933 22.1842 47.851 22.6378 47.8193C23.0887 47.7821 23.5564 47.8409 24.0411 47.9956C24.5298 48.1516 24.9493 48.3759 25.2993 48.6687C25.6466 48.956 25.898 49.31 26.0533 49.7307C26.21 50.1473 26.2461 50.6227 26.1616 51.1569C26.1414 51.2771 26.113 51.4084 26.0767 51.5507C26.0417 51.6888 26.0104 51.801 25.9828 51.8873L24.813 55.553ZM23.8944 53.6239L24.5708 51.5045C24.5983 51.4183 24.6237 51.3246 24.647 51.2234C24.6715 51.1181 24.688 51.017 24.6963 50.92C24.712 50.658 24.6641 50.4323 24.5526 50.2429C24.4424 50.0493 24.2979 49.8923 24.1191 49.7719C23.9375 49.6461 23.7522 49.553 23.5633 49.4927C23.3743 49.4324 23.1715 49.4016 22.9547 49.4003C22.7392 49.3949 22.5304 49.4391 22.3285 49.5331C22.1278 49.6229 21.958 49.7792 21.8191 50.0018C21.7656 50.0843 21.7184 50.1756 21.6774 50.2757C21.6377 50.3716 21.6041 50.4627 21.5766 50.549L20.9002 52.6683L23.8944 53.6239ZM29.2404 45.1424C28.7881 45.9565 28.2237 46.5553 27.5469 46.9389C26.8665 47.3204 26.1209 47.4907 25.3102 47.4496C24.5015 47.4048 23.677 47.149 22.8365 46.6821C21.9961 46.2152 21.3432 45.6503 20.878 44.9874C20.4148 44.3207 20.1673 43.5988 20.1355 42.8216C20.0999 42.0423 20.3082 41.2456 20.7604 40.4315C21.2818 39.4931 21.9518 38.8419 22.7705 38.478C23.5854 38.112 24.4606 38.0236 25.3961 38.2129L25.0117 39.797C24.3923 39.6601 23.828 39.6993 23.3188 39.9145C22.8059 40.1277 22.3808 40.5377 22.0437 41.1444C21.7402 41.6909 21.6093 42.215 21.6512 42.7167C21.6952 43.2146 21.8882 43.6794 22.2304 44.1111C22.5708 44.537 23.0377 44.9172 23.6311 45.2518C24.2266 45.5826 24.7969 45.7811 25.3422 45.8472C25.8857 45.9075 26.3815 45.8229 26.8296 45.5935C27.2777 45.364 27.6535 44.976 27.9571 44.4295C28.2942 43.8227 28.4177 43.2452 28.3277 42.6971C28.2376 42.1489 27.9727 41.6492 27.533 41.1977L28.675 40.0344C29.3299 40.7287 29.7192 41.5195 29.8427 42.4069C29.9625 43.2921 29.7617 44.204 29.2404 45.1424ZM35.7596 35.8685L34.7575 37.0537L32.2735 34.9534L30.7201 36.7904L30.2456 37.2615C29.6346 37.7838 28.9979 38.016 28.3353 37.9583C27.6694 37.8978 27.0468 37.6226 26.4673 37.1326C26.0756 36.8014 25.7757 36.4349 25.5677 36.0332C25.3564 35.6287 25.2581 35.204 25.2729 34.7592C25.2877 34.3143 25.4378 33.8597 25.7232 33.3953C25.7874 33.2859 25.8625 33.1771 25.9483 33.069C26.0335 32.9548 26.1054 32.8631 26.1639 32.794L28.6483 29.8556L35.7596 35.8685ZM32.3064 39.9525L31.1665 41.3007L29.3087 37.0875L30.5984 36.1031L32.3064 39.9525ZM31.1623 34.0139L28.7623 31.9845L27.3217 33.6883C27.266 33.7541 27.2067 33.831 27.1437 33.9189C27.0774 34.0039 27.0249 34.0894 26.9862 34.1752C26.8685 34.4145 26.8235 34.6447 26.8512 34.8657C26.8817 35.0834 26.9581 35.2835 27.0804 35.466C27.1995 35.6457 27.3347 35.7996 27.4862 35.9277C27.6376 36.0557 27.8118 36.1635 28.0088 36.251C28.2058 36.3385 28.4142 36.3792 28.634 36.3731C28.8565 36.3636 29.076 36.281 29.2924 36.1252C29.3706 36.0728 29.4478 36.0082 29.524 35.9315C29.6001 35.8547 29.6661 35.7834 29.7217 35.7176L31.1623 34.0139ZM41.4383 31.5751C40.6787 32.1138 39.9109 32.41 39.1348 32.4635C38.3563 32.5135 37.6104 32.3448 36.897 31.9575C36.1871 31.5677 35.5541 30.9807 34.9979 30.1965C34.4417 29.4122 34.097 28.6207 33.9639 27.8219C33.8343 27.0205 33.923 26.2625 34.2301 25.5479C34.5348 24.8297 35.0669 24.2012 35.8265 23.6625C36.7022 23.0414 37.5878 22.7437 38.4833 22.7693C39.3763 22.7913 40.2038 23.0898 40.9657 23.6647L39.9345 24.9273C39.4351 24.5362 38.9093 24.3277 38.3571 24.3017C37.8024 24.2723 37.2419 24.4584 36.6757 24.8599C36.1658 25.2216 35.8214 25.6377 35.6424 26.1082C35.4669 26.5762 35.4401 27.0788 35.5621 27.616C35.6851 28.1472 35.9419 28.6918 36.3325 29.25C36.7265 29.8056 37.1551 30.231 37.6182 30.5263C38.0824 30.8155 38.5661 30.9535 39.0693 30.9401C39.5725 30.9268 40.0791 30.7393 40.589 30.3777C41.1552 29.9761 41.5162 29.5087 41.6718 28.9755C41.8275 28.4422 41.8046 27.877 41.6031 27.2799L43.1356 26.7243C43.4262 27.6334 43.4355 28.5148 43.1635 29.3684C42.889 30.2185 42.3139 30.9541 41.4383 31.5751ZM47.2121 27.7472L43.9724 19.0163L45.4336 18.4741L46.797 22.1484L50.932 20.614L49.5687 16.9398L51.0238 16.3998L54.2635 25.1307L52.8084 25.6707L51.4405 21.9843L47.3054 23.5187L48.6733 27.205L47.2121 27.7472ZM54.4605 25.0142L55.9097 15.3579L58.1647 15.0022L62.5159 23.7436L60.9317 23.9935L56.9979 16.1552L57.3428 16.1008L56.0448 24.7643L54.4605 25.0142ZM55.7623 22.7662L55.5356 21.3289L60.365 20.5671L60.5917 22.0044L55.7623 22.7662ZM62.6888 23.8037L63.1957 14.505L64.5969 14.5814L67.4537 21.3433L71.0286 14.9319L72.4299 15.0083L71.923 24.3071L70.47 24.2279L70.7949 18.2677L67.6158 24.0723L66.9959 24.0385L64.4731 17.923L64.1482 23.8833L62.6888 23.8037ZM79.8491 26.4758L78.3312 26.0445L80.1254 19.7304L74.1757 24.8636L72.6578 24.4323L75.2034 15.4744L76.7212 15.9057L74.927 22.2198L80.8767 17.0865L82.3946 17.5179L79.8491 26.4758Z" fill="white"/>
</svg>
