<svg width="576" height="721" viewBox="0 0 576 721" fill="none" xmlns="http://www.w3.org/2000/svg">
<g clip-path="url(#clip0_57_127)">
<g opacity="0.03" clip-path="url(#clip1_57_127)">
<path d="M258.604 640.022C258.605 640.018 258.605 640.013 258.607 640.009C258.509 640.058 258.409 640.105 258.293 640.132C258.373 640.11 258.505 640.066 258.604 640.022Z" fill="white"/>
<path d="M289.132 615.315C284.657 612.705 278.883 613.273 275.158 609.353C276.041 611.254 277.156 613.245 278.918 614.447C300.048 623.475 281.752 633.631 277.367 647.52C284.978 639.651 305.749 624.878 289.132 615.315Z" fill="white"/>
<path d="M281.234 634.418C287.109 628.811 278.877 620.308 276.123 614.865C276.56 620.079 278.759 625.03 279.011 630.238C276.784 634.727 272.146 637.795 269.795 642.149C273.715 639.779 277.805 637.559 281.234 634.418Z" fill="white"/>
<path d="M288.869 624.668C289.669 622.113 286.667 618.757 284.746 618.839C277.708 620.128 285.445 631.744 288.869 624.668ZM285.89 624.143C285.919 624.144 285.947 624.144 285.976 624.144C285.964 624.146 285.952 624.15 285.94 624.151C285.952 624.145 285.921 624.144 285.89 624.143ZM284.792 618.887C285.916 619.918 287.587 622.704 286.332 624.07L286.336 624.08C283.811 624.508 282.416 619.991 284.792 618.887Z" fill="white"/>
<path d="M220.189 477.44C221.245 478.115 222.241 478.87 223.163 479.7C217.606 465.381 203.887 475.634 198.762 484.629C203.371 482.334 207.509 478.966 212.238 476.846C220.779 499.455 231.463 521.066 239.707 543.904C246.869 569.453 257.832 593.941 274.123 615.058C267.425 597.67 258.666 580.997 252.477 563.399C243.799 532.823 230.565 502.935 212.279 476.83C214.875 475.823 217.695 475.75 220.189 477.44Z" fill="white"/>
<path d="M273.234 508.16C270.955 504.204 268.908 500.047 265.844 496.62C276.703 527.749 292.384 557.211 310.34 584.813C301.558 557.892 286.513 533.112 273.234 508.16Z" fill="white"/>
<path d="M272.371 549.845C267.475 539.539 262.267 528.886 255.693 519.813C255.065 521.505 257.073 523.546 257.372 525.293C257.867 527.838 257.733 530.503 258.718 532.955C262.27 543.507 268.841 552.675 274.491 562.205C274.626 562.559 276.401 563.483 275.639 562.843C273.832 558.824 273.779 554.053 272.371 549.845Z" fill="white"/>
<path d="M277.84 563.48C281.673 568.029 281.893 575.102 284.435 580.513C285.502 574.968 283.989 565.147 277.84 563.48Z" fill="white"/>
<path d="M339.383 596.896C344.144 599.615 342.624 605.758 341.958 610.236C345.777 606.19 346.566 597.448 339.383 596.896Z" fill="white"/>
<path d="M341.618 600.711C341.103 598.825 339.417 597.383 337.423 597.536C341.75 599.663 339.246 604.678 337.129 607.552C339.647 606.441 342.302 603.701 341.618 600.711Z" fill="white"/>
<path d="M338.064 601.993C336.542 601.785 334.883 601.744 333.41 602.238C334.89 602.646 336.68 602.813 338.064 601.993Z" fill="white"/>
<path d="M332.983 600.014C334.612 600.673 336.403 600.871 338.142 601.265C336.906 599.867 334.883 599.453 332.987 599.354C332.919 598.141 332.389 597.044 331.414 596.364C325.651 577.477 312.339 562.281 302.365 545.535C291.002 526.366 281.442 505.558 266.221 489.06C284.415 526.728 304.118 563.505 330.68 595.97C328.81 595.082 325.92 596.035 324.742 597.896C330.747 595.167 332.572 601.106 328.769 605.146C331.479 604.064 332.819 601.965 332.983 600.014Z" fill="white"/>
<path d="M327.911 608.674C327.459 605.333 325.636 602.323 323.322 599.909C323.91 603.16 325.809 606.151 327.911 608.674Z" fill="white"/>
<path d="M351.979 606.888C354.141 603.176 350.969 597.748 346.613 598.137C354.962 602.76 345.321 609.273 342.297 613.975C345.724 612.121 349.822 610.308 351.979 606.888Z" fill="white"/>
<path d="M344.354 599.693C345.672 600.338 347.273 600.486 348.718 600.336C347.425 599.541 345.815 599.474 344.354 599.693Z" fill="white"/>
<path d="M345.154 603.301C345.696 603.888 350.708 603.131 347.929 602.945C347.931 602.945 347.934 602.945 347.937 602.946C346.978 602.896 346.071 603.033 345.154 603.301Z" fill="white"/>
<path d="M339.355 631.462C339.267 624.806 333.565 619.915 330.947 614.089C334.915 632.969 338.082 630.675 324.314 646.489C330.274 642.93 338.031 638.984 339.355 631.462Z" fill="white"/>
<path d="M345.604 625.465C342.83 619.196 337.407 623.856 340.784 629.001C342.799 632.807 346.64 628.309 345.604 625.465ZM341.998 624.543C344.675 626.083 343.056 631.215 340.458 627.41C340.456 626.476 340.641 624.297 341.998 624.543Z" fill="white"/>
<path d="M393.332 694.556C396.218 694.697 399.106 694.323 401.984 694.541C388.734 689.491 373.509 689.767 359.439 689.625C370.43 692.688 381.938 694.128 393.332 694.556Z" fill="white"/>
<path d="M307.703 261.158C305.121 259.071 288 256.257 292.35 252.103C282.186 257.893 341.293 282.714 347.186 286.496C311.645 343.937 284.43 405.96 265.494 470.942C265.789 470.536 266.07 470.12 266.357 469.707C264.408 475.938 263.39 482.459 260.425 488.365C250.02 484.934 239.298 480.949 228.236 480.778C238.113 485.407 248.889 489.479 259.914 489.578C255.215 502.415 251.316 515.578 247.325 528.645C238.803 512.286 230.849 495.58 221.525 479.661C227.633 503.855 240.479 525.634 252.4 547.332C260.407 562.398 268.834 577.722 281.039 589.83C282.252 598.839 287.39 599.676 295.187 601.08C299.024 610.745 304.442 620.065 310.464 628.558C307.841 620.126 301.747 607.099 295.254 601.094C301.006 602.422 306.9 602.426 312.753 602.084C321.784 603.499 316.634 590.341 315.565 585.765C314.946 589.508 315.273 593.462 313.933 597.065C304.838 596.62 295.507 595.655 286.486 594.278C283.755 592.009 282.177 588.609 280.078 585.784C280.23 586.562 280.41 587.344 280.601 588.126C279.467 586.051 278.323 583.979 277.181 581.906C288.409 586.781 300.764 588.216 312.797 585.984C301.317 583.091 289.019 581.127 277.136 581.824C267.471 564.288 257.542 546.818 247.702 529.375C251.856 523.243 255.817 516.876 258.905 510.118C270.277 532.604 281.536 555.574 294.88 576.945C287.259 552.599 275.155 529.536 259.126 509.639C264.228 496.789 268.246 483.283 266.613 469.34C285.996 435.585 295.786 396.913 312.68 361.81C320.601 340.538 336.534 323.359 343.761 301.93C349.488 297.827 357.044 295.678 362.111 291.075C363.84 287.33 362.366 282.872 364.105 279.182C360.933 281.357 360.989 285.695 358.923 288.667C357.985 288.954 357.059 289.301 356.156 289.702C352.51 286.326 348.64 283.178 344.587 280.274C344.621 280.285 344.653 280.298 344.687 280.309C331.003 268.819 315.213 259.093 297.99 254.03C301.085 256.601 304.351 258.941 307.703 261.158ZM349.282 294.537C347.654 296.197 345.907 297.823 344.404 299.625C345.501 295.308 346.53 290.928 347.321 286.562C349.85 287.799 352.374 289.045 354.885 290.314C352.813 291.39 350.898 292.788 349.282 294.537Z" fill="white"/>
<path d="M347.428 278.234C353.854 275.428 359.162 270.159 363.279 264.542C356.739 267.375 351.569 272.519 347.428 278.234Z" fill="white"/>
<path d="M249.362 252.092C247.968 261.691 248.777 271.696 251.626 280.993C253.259 271.382 252.886 261.276 249.362 252.092Z" fill="white"/>
<path d="M258.56 241.518C260.278 242.797 262.052 242.961 263.779 242.51C263.949 246.161 264.271 249.821 264.785 253.458C260.699 256.822 257.656 262.011 253.012 264.469C250.452 269.82 264.425 259.004 265.537 258.044C266.09 260.941 266.794 263.807 267.652 266.628C262.024 272.451 256.43 278.307 250.852 284.171C276.414 268.652 295.526 244.244 317.796 224.538C319.343 223.472 326.321 228.285 328.778 229.961C328.763 230.446 328.741 230.93 328.739 231.415C328.891 231.075 329.061 230.685 329.239 230.273C329.253 230.282 329.274 230.296 329.287 230.305C329.275 230.287 329.26 230.27 329.248 230.252C329.735 229.124 330.307 227.749 330.918 226.193C330.555 229.294 331.194 232.471 332.182 235.403C332.953 232.11 332.521 228.61 331.304 225.475C331.305 225.482 331.309 225.488 331.31 225.495C331.289 225.445 331.27 225.387 331.251 225.331C335.457 213.62 342.806 192.532 327.485 194.484C336.263 195.965 332.15 205.846 331.169 211.929C330.099 217.691 329.008 223.666 328.787 229.621C321.051 219.716 317.282 216.951 307.853 227.092C308.082 224.824 308.191 222.544 308.176 220.26C316.449 213.308 321.062 206.689 329.105 217.107C324.724 205.364 317.557 206.033 307.845 213.713C307.489 209.987 306.872 206.282 306.056 202.649C304.802 207.076 304.407 211.695 304.602 216.318C298.865 221.344 294.69 225.302 289.34 230.021C288.79 227.081 287.95 224.204 286.771 221.455C295.054 212.533 302.823 202.126 312.62 195.026C317.299 194.486 321.807 196.756 326.485 196.933C309.289 186.229 307.206 192.013 294.161 204.729C282.325 215.11 274.19 231.068 261.106 239.455L261.117 239.434C256.43 237.742 253.732 240.244 252.168 244.526C253.774 242.867 255.967 240.067 258.56 241.518ZM268.722 265.521C268.972 262.302 268.909 259.004 268.507 255.75C275.166 250.594 280.988 244.465 287.302 238.909C287.666 241.057 288.134 243.196 288.71 245.324C281.961 251.969 275.311 258.716 268.722 265.521ZM305.241 222.829C305.532 224.729 305.908 226.613 306.346 228.47C300.77 233.595 295.311 238.846 289.902 244.146C290.144 241.579 290.213 238.981 290.084 236.393C295.132 231.867 300.208 227.373 305.241 222.829ZM271.52 237.425C277.029 232.596 281.898 227.133 286.661 221.584C286.311 225.255 286.28 228.92 286.542 232.569C280.08 238.45 273.732 244.451 267.586 250.672C266.873 247.749 265.856 244.919 264.503 242.279C267.104 241.344 269.563 239.15 271.52 237.425ZM261.582 239.46C261.572 239.464 261.562 239.47 261.552 239.474C261.544 239.467 261.559 239.463 261.582 239.46Z" fill="white"/>
<path d="M356.322 173.643C350.859 178.515 344.875 184.02 342.877 191.296C340.951 197.428 345.808 202.992 351.286 197.742C336.631 200.632 354.572 178.621 356.322 173.643Z" fill="white"/>
<path d="M329.665 190.153C339.534 198.622 344.476 180.352 346.152 173.178C342.23 179.032 330.241 200.773 330.942 180.256C329.199 182.268 327.869 187.883 329.665 190.153Z" fill="white"/>
<path d="M342.001 263.476C351.47 264.015 358.661 255.878 361.507 247.55C354.884 253.357 348.812 260.511 340.154 263.259C340.728 263.386 341.393 263.432 342.001 263.476Z" fill="white"/>
<path d="M360.177 221.001C360.511 220.688 360.88 220.357 361.25 220.058C353.268 220.72 352.155 232.926 358.191 236.717C356.021 231.97 355.753 224.603 360.177 221.001Z" fill="white"/>
<path d="M343.965 242.391C345.019 242.16 346.162 242.592 347.201 242.728C344.63 239.544 339.862 242.025 341.015 245.93C341.499 244.467 342.42 242.978 343.965 242.391Z" fill="white"/>
<path d="M380.586 183.939C382.647 192.182 382.318 200.779 383.379 209.163C386.382 201.184 386.543 190.661 380.586 183.939Z" fill="white"/>
<path d="M371.286 198.082C371.61 201.017 371.957 203.958 372.64 206.832C373.93 201.078 375.023 193.982 371.207 188.959C370.035 187.382 367.477 187.842 367.675 190.011C370.713 185.932 370.908 196.367 371.286 198.082Z" fill="white"/>
<path d="M378.18 260.156C378.205 260.191 378.232 260.225 378.259 260.258C378.233 260.224 378.205 260.191 378.18 260.156Z" fill="white"/>
<path d="M253.191 415.008C267.404 387.793 277.096 358.178 285.61 328.734C290.369 310.37 292.628 290.963 299.988 273.439C284.532 291.459 285.054 317.464 277.911 339.181C271.072 364.915 259.884 389.261 253.191 415.008Z" fill="white"/>
<path d="M272.869 400.614C281.242 382.64 291.513 365.507 298.056 346.722C275.733 387.276 253.201 429.098 237.613 472.712C252.052 450.134 261.05 424.592 272.869 400.614Z" fill="white"/>
<path d="M232.399 464.465C239.564 428.468 243.332 389.447 211.764 445.233C218.108 438.783 224.851 432.618 231.082 426.007C232.427 438.787 231.04 451.657 232.399 464.465Z" fill="white"/>
<path d="M257.9 350.534C245.919 357.872 254.231 373.539 265.023 361.506C268.474 356.921 272.22 345.705 262.992 345.95C275.054 351.093 246.74 374.262 257.9 350.534Z" fill="white"/>
<path d="M204.598 452.12C207.092 450.6 209.581 450.262 204.821 450.601C192.875 454.546 185.896 470.375 186.234 482.387C190.292 472.957 196.602 458.563 204.598 452.12Z" fill="white"/>
<path d="M180.838 416.145C183.46 426.569 188.242 436.25 194.988 444.684C192.437 434.37 187.932 424.15 180.838 416.145Z" fill="white"/>
<path d="M148.435 458.249C153.336 452.736 157.729 446.731 161.288 440.263C150.892 448.493 139.537 458.421 135.551 471.462C139.465 466.786 144.484 462.965 148.435 458.249Z" fill="white"/>
<path d="M231.56 358.295C215.989 369.844 201.607 383.76 192.018 400.761C207.284 388.906 220.831 374.371 231.56 358.295Z" fill="white"/>
<path d="M18.0039 489.759C27.758 494.047 38.0954 497.146 48.6331 498.911C40.1823 492.038 28.8137 488.918 18.0039 489.759Z" fill="white"/>
<path d="M48.7079 521.455C49.2445 514.465 50.3002 506.487 48.932 499.377C43.162 516.692 40.9824 534.72 41.6045 552.961C45.8842 542.989 47.9992 532.304 48.7079 521.455Z" fill="white"/>
<path d="M23.591 475.952C24.1826 471.42 27.5685 469.28 31.9375 470.228C34.2235 470.463 33.8644 473.678 34.4835 475.323C39.5016 463.682 19.5508 464.862 23.591 475.952Z" fill="white"/>
<path d="M64.3691 505.975C64.3558 505.972 64.341 505.97 64.3281 505.968C64.3281 505.968 64.3496 505.971 64.3691 505.975Z" fill="white"/>
<path d="M64.3691 505.975C64.3898 505.977 64.4129 505.982 64.4331 505.985C64.4331 505.985 64.3998 505.98 64.3691 505.975Z" fill="white"/>
<path d="M81.3563 531.842C80.8675 523.375 79.2209 512.533 73.0254 506.312C75.4048 514.918 76.4055 524.013 81.3563 531.842Z" fill="white"/>
<path d="M96.8262 479.385C96.8294 479.415 96.8307 479.445 96.8346 479.475C96.8324 479.444 96.8296 479.414 96.8262 479.385Z" fill="white"/>
<path d="M117.621 481.245C119.736 480.49 122.23 480.635 124.416 480.995C126.268 486.156 126.676 491.748 128.232 497.019C128.968 492.736 131.509 478.604 126.806 476.582C116.809 473.057 109.479 481.198 113.726 490.853C114.121 487.456 114.712 483.438 117.621 481.245Z" fill="white"/>
<path d="M142.029 485.943C142.042 485.915 142.053 485.885 142.065 485.856C142.053 485.884 142.041 485.914 142.029 485.943Z" fill="white"/>
<path d="M135.351 481.663C132.088 485.86 131.417 491.538 132.896 496.563C134.235 491.691 134.896 486.697 135.351 481.663Z" fill="white"/>
<path d="M117.688 530.409C120.199 524.312 120.21 517.504 121.573 511.166C117.181 515.522 117.208 524.578 117.688 530.409Z" fill="white"/>
<path d="M106.894 514.132C103.321 519.263 104.369 528.308 106.141 534.018C107.523 527.504 106.594 520.701 106.894 514.132Z" fill="white"/>
<path d="M135.416 507.724C122.945 505.736 110.312 502.944 97.6348 503.339C97.3722 502.981 97.446 502.512 98.1298 501.882C91.223 506.153 108.307 508.445 111.041 507.154C119.288 508.934 127.662 509.781 136.091 509.273C139.4 509.902 138.168 507.985 135.416 507.724ZM97.7348 503.447C98.6994 503.792 99.6694 504.124 100.646 504.437C99.6032 504.252 98.2695 503.987 97.7348 503.447Z" fill="white"/>
<path d="M9.27893 619.504C16.5179 620.182 23.8058 620.33 31.0627 619.932C26.0148 620.301 30.4545 620.581 37.476 621.876C36.0428 622.038 34.612 622.214 33.1852 622.402C51.4351 626.187 70.5401 628.522 89.1323 625.859C87.9751 633.665 90.5981 636.787 80.7337 634.582C98.7365 646.469 86.833 621.458 100.816 622.1C103.245 621.52 109.153 622.576 110.443 620.635C103.668 620.473 91.2957 614.229 89.301 624.954C72.3816 621.181 54.9368 619.55 37.6692 621.857C44.494 621.488 41.0687 570.985 37.9181 565.137C37.0673 583.119 34.7154 600.976 36.7771 619.049C19.8917 614.509 1.87548 613.395 -15.4902 615.507C-7.38001 617.45 0.992968 618.541 9.27893 619.504Z" fill="white"/>
<path d="M50.4002 727.179C52.9388 725.302 53.1152 719.472 51.5423 716.965C51.602 719.527 50.8871 722.509 49.1016 724.452C47.2451 722.573 47.7853 713.806 51.4715 717.171C50.9396 714.097 47.7079 715.172 46.6524 717.295C44.4935 720.412 44.8582 729.561 50.4002 727.179Z" fill="white"/>
<path d="M21.6928 715.177C21.6416 714.367 21.6201 713.481 21.2417 712.762C20.8764 714.717 20.513 716.828 19.4426 718.525C18.7844 716.296 18.029 713.158 20.0295 711.415C20.3731 712.041 20.266 712.825 20.5691 713.484C22.6079 704.48 11.8854 715.124 17.8768 720.968C21.5066 722.659 22.1631 717.696 21.6928 715.177Z" fill="white"/>
<path d="M5.35647 710.6C5.45778 709.949 5.53326 709.294 5.55523 708.637C5.42236 708.81 5.3089 709.074 5.1803 709.279C5.70879 706.652 4.46521 702.697 1.42035 705.434C-3.53433 710.185 3.02053 720.668 5.35647 710.6ZM2.93799 707.098C3.94675 705.115 4.4908 708.778 5.07516 709.463C4.38844 710.508 3.92629 711.897 2.73389 712.457C2.01048 710.834 2.26448 708.721 2.93799 707.098Z" fill="white"/>
<path d="M11.4736 693.096C6.47005 692.102 4.4056 700.282 4.26953 704.02C10.2641 692.346 12.8504 695.542 13.6909 706.843C13.7374 706.698 13.7854 706.541 13.8328 706.389C13.6792 707.512 13.6871 708.56 13.878 709.302C16.0495 703.262 19.3193 698.726 21.2085 707.991C23.3794 702.776 17.9265 695.799 14.6649 703.28C15.1802 700.884 15.3903 698.286 14.5888 696.231C16.43 697.276 17.7716 694.543 18.2485 693.138C22.8276 683.866 16.3167 675.701 9.89558 686.461C10.2409 686.255 10.6049 686.008 10.9826 685.751C7.10644 692.759 16.3169 690.932 13.1266 684.841C13.2539 687.769 10.6806 691.105 11.333 685.975C14.9744 681.752 18.1214 684.423 16.9284 689.512C16.6746 690.712 16.3319 697.73 14.1444 695.233C14.1416 695.27 14.1471 695.305 14.1478 695.341C13.5749 694.39 12.7242 693.603 11.4736 693.096Z" fill="white"/>
<path d="M7.53653 724.758C10.0625 725.04 11.2397 722.463 11.8947 720.491C7.67792 725.835 5.06238 720.458 3.09454 716.447C2.90345 719.565 4.03528 723.994 7.53653 724.758Z" fill="white"/>
<path d="M13.3969 726.345C16.7384 731.232 20.901 725.139 20.9728 721.327C16.5643 728.612 14.3879 725.32 13.297 718.495C14.739 715.918 14.3849 712.883 13.9748 710.132C8.08709 704.563 4.56706 723.259 12.4177 719.518C12.0861 721.801 12.5626 724.486 13.3969 726.345ZM11.1247 717.175C9.70602 715.651 11.5378 708 13.6353 711.485C12.9895 713.414 12.907 715.897 11.1247 717.175Z" fill="white"/>
<path d="M21.9764 712.903C24.4145 704.436 27.2037 699.67 29.7087 711.771C32.947 696.102 19.2082 699.564 21.9764 712.903Z" fill="white"/>
<path d="M26.3453 729.197C28.3042 728.286 28.9568 725.851 29.1942 723.869C32.072 723.036 32.1633 716.443 31.7076 714.01C30.7899 716.277 30.4299 718.895 28.7444 720.759C27.6072 719.054 29.191 710.467 30.9571 715.619C31.7686 713.09 29.6792 711.46 27.7493 713.506C25.1994 715.963 23.8189 724.19 29.0159 723.916C28.0035 725.295 26.8135 727.701 24.9497 727.364L24.9742 727.359C23.0098 726.069 22.6135 723.401 21.2676 721.536C21.2966 724.465 22.0443 730.85 26.3453 729.197Z" fill="white"/>
<path d="M34.5335 704.137C31.3843 705.133 30.8654 709.643 31.0851 712.476C33.6198 706.044 36.0191 703.506 39.0716 711.692C39.5455 708.686 38.4937 703.572 34.5335 704.137Z" fill="white"/>
<path d="M38.4426 725.713C38.8092 725.745 39.1513 725.711 39.4667 725.612C37.7145 731.766 43.711 737.311 48.0783 731.085C43.1332 733.966 40.6318 730.341 39.7384 725.504C42.8711 724.107 43.2821 716.468 41.7327 713.943C39.5573 731.751 34.0535 715.994 40.4307 714.482C35.2461 712.682 32.5173 724.654 38.1039 725.665C35.11 731.975 32.2535 731.256 29.9807 725.295C28.5076 734.308 38.6198 734.229 38.4426 725.713Z" fill="white"/>
<path d="M46.2435 705.597C48.6528 707.357 48.3338 710.871 48.973 713.512C53.5896 698.167 38.5247 700.466 40.8148 713.99C41.61 711.149 42.9654 707.28 45.5167 705.56L45.5078 705.544C45.7603 705.407 46.0136 705.459 46.2435 705.597Z" fill="white"/>
<path d="M63.4404 700.986C62.0435 700.962 58.7165 701.718 58.065 700.141C57.4861 702.257 62.3739 702.763 63.7938 702.631C67.1899 702.725 71.932 700.821 72.9087 705.437C73.7876 698.632 67.8331 700.806 63.4404 700.986Z" fill="white"/>
<path d="M67.7794 715.724C57.538 715.256 61.5788 707.384 69.3894 707.427C70.6735 707.253 72.2092 707.042 72.8994 705.8C68.1083 706.811 62.4091 703.58 58.7124 708.833C55.0598 702.561 50.7221 710.364 51.0727 714.631C53.1691 712.08 54.3253 705.365 58.6694 708.881C56.555 711.388 56.9879 716.292 60.1155 717.799C59.5762 720.006 59.8788 722.322 60.1676 724.551C56.1564 726.676 56.4516 733.344 59.3755 736.246C62.5157 738.444 66.3356 736.013 69.7957 736.163C70.199 737.121 70.3412 738.168 70.5097 739.201C65.7135 740.127 49.5468 737.128 54.8857 746.289C53.054 738.799 66.6732 743.497 70.5097 739.202C70.5709 739.577 70.6357 739.951 70.7176 740.317C73.2363 732.38 69.9006 734.12 63.7501 733.568C61.142 733.433 61.0102 728.812 62.7505 727.528C65.5164 724.673 73.635 726.379 73.3952 721.702C72.1519 724.693 68.0112 722.416 65.4893 723.219C65.8975 721.662 66.0161 719.905 65.459 718.396C67.9724 718.874 73.7083 715.858 73.1615 720.214C75.6715 715.769 70.6366 716.227 67.7794 715.724ZM65.2059 723.244C63.5157 723.472 61.7752 723.796 60.2252 724.527C61.035 722.425 60.8206 720.062 60.3105 717.892C61.9237 718.547 63.7235 718.453 65.4509 718.396C65.0528 719.96 64.947 721.626 65.2059 723.244Z" fill="white"/>
<path d="M105.881 720.678C102.981 720.465 100.081 721.147 97.1874 720.837C97.5636 714.882 106.465 718.975 106.953 713.826C104.454 717.521 96.291 711.49 96.4474 720.731C96.0952 720.666 95.7472 720.572 95.4258 720.421C95.6875 720.831 96.0827 721.158 96.5216 721.43C96.5638 721.736 96.6135 722.045 96.6798 722.364C96.7736 722.139 96.8562 721.901 96.9349 721.658C103.932 724.463 108.892 720.372 108.125 730.57C109.652 726.791 111.951 721.374 105.881 720.678Z" fill="white"/>
<path d="M105.878 704.357C103.17 703.96 100.254 704.941 97.6479 703.957C98.2141 699.713 105.163 703.485 105.892 698.934C102.343 702.096 95.0021 697.218 97.2442 705.383C97.3342 705.155 97.4041 704.909 97.4698 704.657C103.426 707.911 107.75 703.772 108.063 712.925C109.304 710.099 109.758 705.205 105.878 704.357Z" fill="white"/>
<path d="M93.9373 692.83C93.9383 692.829 93.9392 692.829 93.9401 692.829C93.9386 692.829 93.9373 692.829 93.9355 692.828C93.9373 692.83 93.9373 692.83 93.9373 692.83Z" fill="white"/>
<path d="M93.9414 692.827C98.696 693.135 105.252 692.426 105.953 698.73C108.364 691.143 98.766 689.933 93.9414 692.827Z" fill="white"/>
<path d="M99.9264 686.368C97.0197 684.022 92.428 683.929 89.2793 685.457C93.0128 685.841 97.3004 686.355 99.7445 689.575C98.8976 689.809 98.2829 689.975 97.8532 690.099C96.3445 689.578 94.5968 689.437 93.2267 690.397C97.0135 690.003 105.989 693.229 99.9264 686.368Z" fill="white"/>
<path d="M54.9908 688.266C57.4621 687.448 60.0252 686.833 62.281 685.489C57.1282 685.129 44.782 687.833 55.554 692.439C55.4497 692.469 55.3427 692.494 55.2392 692.527C58.2802 693.242 64.9703 693.481 67.3749 691.354C63.6734 691.638 59.6763 691.171 56 692.314C54.7562 691.114 51.6975 688.891 54.9908 688.266Z" fill="white"/>
<path d="M59.7758 695.253C61.9737 694.57 65.9487 694.422 67.1899 692.316C63.3988 693.521 52.7282 692.165 56.9971 699.151C56.9143 696.325 56.8021 695.894 59.7758 695.253Z" fill="white"/>
<path d="M42.092 674.238C43.095 673.898 44.1121 673.548 45.136 673.305C38.306 671.41 34.0831 677.055 42.8416 679.086C42.6708 680.049 43.4448 681.235 44.8924 682.424C43.3484 682.358 42.2436 683.979 41.2543 684.961C42.6092 684.599 44.4077 683.229 45.4239 684.855C45.3913 684.817 45.361 684.78 45.3297 684.742C47.2145 688.878 41.7834 703.991 39.1013 692.682C37.4609 706.01 50.6757 697.674 48.6257 686.749C49.279 687.376 49.9802 687.932 50.4614 688.346C47.039 681.424 48.5134 685.43 57.5647 681.286C54.3284 681.497 49.3445 680.71 47.0446 683.288C46.5481 682.897 45.9658 682.602 45.3651 682.48C41.1658 677.14 51.7339 678.814 54.7839 677.443C51.7341 676.413 44.5798 676.197 42.8728 678.906C40.8454 677.126 37.6029 675.391 42.092 674.238Z" fill="white"/>
<path d="M36.1953 672.713C23.3057 674.656 -6.5613 668.463 -14.1816 678.471C0.682842 672.294 18.1385 676.38 33.8704 674.102C33.7578 674.237 33.662 674.387 33.588 674.565C34.1221 673.738 37.8534 674.07 36.1953 672.713Z" fill="white"/>
<path d="M184.833 696.479C193.667 698.74 204.229 697.975 211.257 704.593C208.259 695.173 193.549 693.957 184.83 695.855C184.486 687.58 183.631 678.043 180.005 670.597C157.092 667.775 133.363 667.564 110.294 669.395C106.371 666.848 37.6671 666.831 59.5509 670.038C52.4608 669.897 45.1262 669.737 38.2751 671.749C38.1589 671.327 38.0241 670.947 37.8669 670.606C42.5478 670.329 47.3794 669.525 52.0822 669.546C47.6313 667.11 42.0409 668.538 37.2451 667.293C33.2778 663.913 29.2253 668.546 29.3566 672.732C30.5642 671.162 31.6262 668.202 34.1437 668.896L34.1268 668.908C35.0563 669.841 35.7374 670.29 36.4847 670.484C37.2047 671.451 37.8025 672.505 38.6153 673.405C38.5266 672.804 38.4176 672.276 38.2884 671.798C53.5288 674.433 70.9065 668.845 84.9676 676.083C82.6752 676 79.8873 675.989 77.8307 677.159C81.5137 677.909 87.0523 676.665 89.539 679.949C87.9947 679.884 86.4072 680.202 84.9409 680.505C88.0801 681.72 92.8255 681.179 95.398 684.342C94.8748 681.903 92.2205 680.058 89.7747 679.956C89.9963 677.673 87.282 676.435 85.3487 676.136C84.1068 673.641 81.9255 671.945 79.1799 671.416C85.418 671.681 91.6562 671.637 97.8964 671.364C94.1877 671.913 96.198 676.159 96.8736 678.484C96.9455 677.323 96.8149 676.075 96.9866 674.89C104.433 699.674 126.42 699.634 120.283 728.373C116.143 730.107 111.392 730.075 107.078 731.356C121.371 732.653 125.538 735.306 127.145 718.598C145.249 719.717 163.756 720.064 181.649 716.75C181.703 717.157 181.743 717.567 181.799 717.974C181.928 717.527 182.041 717.079 182.161 716.631C182.425 716.566 182.699 716.515 182.96 716.447C182.721 716.404 182.48 716.378 182.24 716.338C183.973 709.78 184.845 703.134 184.833 696.479ZM70.7448 671.257C70.2656 671.196 69.8327 671.083 69.3735 671.014C70.1168 671.058 70.8602 671.096 71.6039 671.132C71.3158 671.171 71.0274 671.209 70.7448 671.257ZM166.803 714.875C153.605 714.214 140.132 714.772 127.252 717.857C131.215 697.22 105.64 690.585 97.0073 674.759C97.0709 674.374 97.1666 673.996 97.3172 673.631C124.858 673.672 153.358 673.911 180.334 671.87C179.516 686.629 179.697 701.573 181.588 716.239C176.697 715.461 171.745 715.146 166.803 714.875Z" fill="white"/>
<path d="M217.639 699.402C213.145 685.421 195.189 683.66 186.913 672.76C197.933 693.108 217.749 689.181 210.385 720.321C202.334 722.097 194.16 718.53 186.012 719.147C212.364 728.258 221.606 733.295 217.639 699.402Z" fill="white"/>
<path d="M191.584 711.693C201.113 721.078 200.936 698.712 193.597 704.804C195.746 703.333 197.281 706.751 196.752 708.609C196.394 713.002 195.419 712.717 191.584 711.693Z" fill="white"/>
<path d="M239.33 712.695C223.81 712.845 229.035 723.817 241.867 721.96C239.196 720.431 235.805 720.1 233.502 717.998C232.474 715.581 239.414 715.192 240.572 713.641C241.71 712.548 241.305 710.658 239.482 711.229C240.795 711.497 240.495 712.432 239.33 712.695Z" fill="white"/>
<path d="M234.96 686.056C230.95 683.947 225.442 686.865 221.34 684.639C220.986 683.939 222.411 683.325 222.934 683.035C215.579 683.695 223.151 688.828 226.837 687.737C223.145 692.116 230.383 695.932 234.477 695.339C236.045 695.391 237.724 695.143 239.17 695.89C237.083 693.145 231.408 693.721 229.131 690.546L229.128 690.586C228.24 688.125 232.804 687.72 234.334 686.685C234.207 687.069 234.011 687.439 233.832 687.796C234.387 687.439 235.457 686.774 234.968 686.066C234.974 686.061 234.981 686.058 234.987 686.053C234.978 686.054 234.969 686.055 234.96 686.056Z" fill="white"/>
<path d="M214.806 669.367C203.824 669.052 192.754 668.929 181.861 670.547C186.412 671.981 191.281 671.867 196.006 671.888C194.4 676.342 209.33 675.222 212.085 673.78C206.81 672.548 201.238 673.714 196.03 672.326C196.03 672.31 196.03 672.293 196.031 672.277C196.16 672.069 196.46 672.043 196.64 671.95C196.54 671.911 196.434 671.891 196.329 671.879C208.711 671.724 221.121 674.505 233.61 673.341C227.762 670.824 221.068 670.365 214.806 669.367Z" fill="white"/>
<path d="M214.988 682.053C219.101 683.543 223.716 682.583 227.815 681.538C223.737 680.564 219.5 680.812 215.398 680.037C217.529 678.141 220.792 679.036 223.35 678.02C218.126 676.563 212.589 676.971 207.321 676.187C207.879 675.511 208.754 675.227 209.467 674.71C207.935 674.57 204.771 675.133 206.026 677.291C208.063 679.389 211.498 678.927 214.189 679.075C213.079 679.865 213.051 681.271 214.988 682.053Z" fill="white"/>
<path d="M289.158 658.873C289.191 658.867 289.223 658.857 289.255 658.851C289.223 658.857 289.19 658.864 289.158 658.873Z" fill="white"/>
<path d="M307.357 763.528C286.513 757.886 294.327 748.134 281.389 744.714C288.826 750.745 286.448 759.504 297.568 763.127C295.968 763.08 294.367 763.036 292.766 762.99C277.653 753.5 290.918 739.566 268.587 746.001C287.844 747.553 271.632 751.796 288.166 762.838C267.084 762.469 254.154 761.04 253.576 736.618C251.807 715.433 249.237 694.28 242.673 673.957C242.863 679.882 243.353 685.809 243.905 691.735C243.645 690.479 243.37 689.229 243.079 687.982C243.219 688.231 243.342 688.489 243.491 688.735C240.005 677.987 243.176 636.26 261.43 652.04C263.957 663.775 274.377 663.635 283.639 659.585C265.617 660.256 270.939 658.359 264.728 646.529C269.232 648.669 274.172 651.702 279.28 650.102C280.588 653.869 285.325 653.491 286.452 659.573C284.804 660.083 283.202 660.738 281.717 661.577C285.279 661.704 288.912 660.97 291.977 659.081C286.319 666.168 290.059 675.388 291.973 683.148C287.878 686.489 288.79 693.871 294.873 698.373C286.573 681.641 304.444 686.526 314.626 685.322C309.407 682.971 303.45 681.94 297.806 681.419C298.136 677.495 298.851 672.746 303.852 673.015C315.849 673.764 327.917 673.794 339.951 674.385C352.932 675.374 365.853 675.65 378.772 674.625C382.886 675.809 383.001 681.881 388.169 682.473C367.637 682.706 347.11 682.799 326.577 682.586C323.391 683.429 317.539 680.671 316.259 684.654C314.14 689.827 341.676 686.864 345.773 687.719C359.552 687.876 373.325 688.325 387.092 688.889C396.424 689.205 418.675 686.386 415.837 701.274C420.573 694.649 413.833 686.99 407.264 685.164C401.958 678.71 395.962 669.944 398.942 661.255C402.248 662.658 405.827 664.857 409.539 663.929C406.411 671.048 411.486 678.646 416.551 684.391C416.686 687.049 416.997 689.698 417.547 692.321C417.976 690.426 418.288 688.506 418.547 686.573C418.881 686.928 419.212 687.275 419.534 687.608C417.528 678.898 422.057 669.267 419.587 660.263C421.202 659.651 422.817 659.152 424.369 658.943C419.892 666.285 419.953 681.868 421.398 689.661C422.877 684.378 423.501 678.794 423.476 673.276C427.985 680.415 434.229 667.676 433.53 663.457C433.075 665.685 428.744 670.786 426.725 671.884C424.347 668.088 424.338 663.332 424.421 658.936C430.575 658.619 434.845 665.035 440.769 666.606C440.966 673.476 439.645 680.224 438.635 687.133C438.494 687.136 438.351 687.128 438.213 687.149C438.346 687.21 438.464 687.294 438.589 687.367C438.268 689.032 437.983 690.699 438.061 692.382C438.631 690.986 439.206 689.583 439.777 688.172C444.004 691.376 442.648 697.41 440.619 701.537C432.991 699.043 424.338 698.884 416.897 702.05C424.681 702.545 432.698 702.98 440.465 701.9C440.178 702.576 439.898 703.253 439.646 703.937C445.298 700.325 448.142 689.812 440.106 687.343C441.706 683.364 443.259 679.33 444.553 675.231C447.622 667.378 449.606 661.975 439.865 658.609C439.824 653.721 436.748 648.19 434.482 644.615C431.704 531.816 410.379 419.934 398.806 307.751C394.241 271.872 390.582 235.369 380.417 200.571C382.546 190.666 377.783 172.511 365.091 174.575C382.507 180.277 371.972 211.077 372.66 224.937C375.394 219.223 377.263 213.106 379.002 207.009C379.334 216.162 380.325 225.254 381.619 234.301C381.25 233.105 380.877 231.91 380.462 230.724C380.097 241.844 380.276 252.953 380.831 264.046C379.455 261.557 377.57 259.384 375.742 257.211C372.628 232.757 372.187 207.755 365.341 183.948C366.087 175.023 363.727 165.209 355.375 160.773C338.887 153.428 321.483 175.524 316.746 189.395C339.981 154.154 372.66 158.818 353.063 203.954C343.561 203.866 331.453 212.681 339.294 222.255C336.984 212.234 344.23 209.558 351.812 206.42C343.057 221.368 333.436 236.369 321.044 248.572C321.298 244.453 323.011 240.492 322.835 236.32C324.154 234.264 325.574 232.02 325.602 229.5C318.738 237.296 310.063 244.169 306.133 254.175C311.398 249.88 316.492 245.099 320.59 239.596C309.012 255.484 323.73 260.635 337.074 265.411C337.456 265.571 340.956 265.876 339.555 265.411C333.473 260.613 325.247 256.777 321.026 250.222C342.299 237.85 356.716 214.091 364.253 191.18C364.206 198.954 364.405 206.717 364.89 214.473C355.366 171.242 368.741 327.077 369.682 334.709C378.565 442.354 385.033 550.605 400.114 657.487C401.768 641.863 401.003 625.996 399.58 610.355C387.793 499.33 380.415 387.926 371.403 276.641C383.032 399.05 400.342 521.043 405.813 643.907C404.06 645.286 402.982 647.535 402.465 649.684C403.789 648.406 404.863 646.88 405.941 645.364C406.044 646.508 406.144 647.653 406.239 648.798C404.268 652.01 403.357 655.9 403.817 659.646C404.852 657.26 405.739 654.788 406.507 652.285C406.636 654.091 406.752 655.898 406.835 657.707C410.973 643.447 410.336 628.115 410.229 613.365C403.892 495.228 386.587 377.862 376.04 260.033C377.136 262.565 378.912 264.699 380.955 266.531C393.364 390.714 405.194 515.345 421.699 638.903C420.794 639.12 419.909 639.431 419.072 639.852C416.348 637.52 412.776 642.84 411.671 645.019C414.329 643.863 415.954 640.045 418.929 639.935C412.246 643.372 410.439 652.234 411.911 659.066C407.859 662.051 403.834 661.611 399.107 660.976C399.202 660.841 399.308 660.715 399.428 660.6C399.198 660.642 398.976 660.734 398.764 660.855C398.563 660.774 398.368 660.677 398.188 660.541C398.241 660.692 398.371 660.906 398.533 661.003C393.177 666.943 395.498 675.694 400.003 680.327C384.566 678.389 401.868 657.109 373.051 654.757C372.473 650.71 370.848 646.639 367.371 644.548C362.648 633.345 357.818 616.791 343.76 616.627C343.268 616.381 342.766 616.157 342.258 615.947C341.822 612.854 340.514 609.8 338.263 607.571C338.839 610.561 340.195 613.419 342.041 615.859C338.283 614.311 334.068 614.423 330.324 612.764C358.29 628.577 342.586 629.11 328.492 647.112C324.568 647.568 319.914 645.733 316.362 647.511C315.394 645.791 313.969 644.391 312.008 643.534C308.327 629.865 302.598 608.555 285.341 610.754C298.758 613.545 306.546 637.976 312.354 649.525C312.459 648.2 312.405 646.781 312.248 645.313C314.335 647.952 315.428 651.139 316.541 654.357C313.744 654.203 310.783 654.077 307.842 654.152C307.974 651.98 307.664 649.747 306.948 647.657C307.764 649.438 308.531 651.245 309.236 653.066C309.836 641.108 302.954 630.047 295.531 621.194C297.637 629.353 301.725 636.76 305.386 644.333C302.427 637.977 293.153 637.278 292.382 645.29C292.301 649.197 293.86 653.012 295.191 656.635C294.335 657.05 293.469 657.462 292.829 658.177C290.906 658.512 288.948 658.853 287.061 659.381C287.371 656.461 286.928 653.377 284.597 651.331C285.567 651.153 296.084 649.774 291.7 649.404C288.099 649.477 281.84 646.628 279.331 649.708C271.622 647.542 265.241 642.344 256.899 642.116C240.68 639.781 235.33 659.989 238.366 672.603C236.885 672.477 235.036 672.553 233.859 673.51C235.058 673.447 236.218 673.671 237.426 673.738L237.402 673.735C237.78 673.763 238.165 673.781 238.551 673.79C240.755 681.962 241.673 689.919 241.368 698.414C227.61 695.484 227.892 709.855 241.318 709.277C233.594 705.599 230.606 700.918 241.382 699.227C241.575 710.367 242.041 721.529 243.939 732.524C241.944 731.768 226.487 730.332 233.145 727.736C235.056 726.678 244.366 726.179 239.965 722.887C240.188 723.228 240.626 723.685 240.415 724.146C236.257 725.095 224.475 723.109 228.097 730.926C225.867 730.86 223.636 730.819 221.406 730.789C228.254 734.489 236.577 734.348 244.165 733.902C245.018 736.99 244.503 742.424 248.369 743.272C249.543 778.404 292.063 767.679 315.203 764.371C312.699 763.678 309.952 763.762 307.357 763.528ZM426.749 652.359C426.753 649.502 426.253 646.466 424.729 644.05C427.674 644.323 430.445 646.048 432.348 648.331C431.682 649.801 431.152 651.333 430.805 652.914C429.525 652.439 428.159 652.225 426.749 652.359ZM438.723 658.009C436.058 656.796 434.133 654.391 431.479 653.194C432.256 652.029 432.887 650.737 433.269 649.381C435.464 651.955 437.48 654.785 438.723 658.009ZM420.506 590.203C410.011 484.579 398.284 379.108 388.196 273.456C406.458 396.28 417.413 520.286 433.426 643.246C430.601 639.956 426.07 637.728 421.708 638.901C426.589 623.197 421.968 606.2 420.506 590.203ZM417.362 647.063C418.393 649.466 420.344 651.487 422.078 653.394C421.59 650.684 419.848 648.451 417.887 646.56C419.479 644.754 421.928 643.892 424.174 644.017C424.467 646.892 424.951 649.759 426.092 652.436C421.037 653.219 416.651 656.329 412.258 658.868C413.031 654.652 414.461 650.251 417.362 647.063ZM411.442 663.382C413.761 662.772 416.398 661.511 419.057 660.469C417.601 667.06 416.585 673.796 416.477 680.562C413.925 675.189 410.113 669.953 410.158 663.777C410.59 663.663 411.02 663.535 411.442 663.382ZM344.206 616.856C353.64 620.998 363.705 643.42 368.327 653.141C368.747 651.234 368.513 648.96 367.936 646.584C369.256 649.156 370.215 651.905 371.345 654.576C368.932 654.327 366.511 654.169 364.084 654.084C367.749 647.474 350.833 619.745 344.206 616.856ZM363.839 654.075C363.836 654.075 363.833 654.075 363.829 654.075C363.854 653.614 363.853 653.151 363.827 652.686C363.931 653.184 363.938 653.65 363.839 654.075ZM363.008 654.044C358.923 653.935 354.823 654.008 350.718 654.148C350.199 640.753 359.733 644.563 363.008 654.044ZM351.359 629.662C353 633.98 355.111 638.101 357.567 642.004C354.237 640.386 349.826 641.636 348.986 645.866C348.252 642.785 346.844 639.828 345.036 637.268C347.724 635.17 350.245 632.535 351.359 629.662ZM348.595 649.255C344.979 648.702 341.307 648.101 337.624 647.686C340.605 645.786 343.143 643.152 345.065 640.208C345.898 643.332 347.128 646.364 348.595 649.255ZM341.983 639.402C342.802 638.889 343.65 638.312 344.492 637.683C344.622 638.363 344.77 639.04 344.94 639.712C341.603 641.919 338.369 644.419 335.756 647.509C333.829 647.309 331.898 647.187 329.963 647.143C334.015 644.658 338.006 642.004 341.983 639.402ZM335.137 651.129C339.625 650.619 344.296 650.79 348.6 649.266C349.265 650.804 349.351 652.607 350.029 654.172C341.396 654.482 332.744 655.041 324.172 654.746C323.799 653.529 322.999 652.402 322.259 651.394C326.546 651.916 330.862 651.569 335.137 651.129ZM317.627 650.847C319.799 651.817 321.955 652.989 323.612 654.721C321.736 654.652 319.973 654.55 318.06 654.443C318.036 653.218 317.897 652.005 317.627 650.847ZM297.6 643.894C298.505 643.471 299.4 643.891 300.172 644.393C298.726 643.876 296.52 644.803 295.814 646.297C296.146 645.165 296.692 644.284 297.6 643.894ZM295.327 650.51C295.806 652.566 297.833 654.329 300.117 653.694C296.995 653.294 296.143 647.189 299.737 647.101L299.728 647.115C301.365 647.759 302.426 651.485 301.578 652.971C303.763 651.471 303.318 647.597 301.998 645.734C304.592 647.941 305.944 651.038 307.017 654.173C302.801 654.339 298.681 654.976 295.224 656.621C295.454 655.189 295.294 652.831 295.327 650.51ZM297.132 662.652C311.643 658.76 327.258 660.884 342.178 660.313C354.529 661.717 380.825 655.949 387.21 668.645C389.374 674.988 391.451 682.813 400.182 680.528C401.5 681.925 403.037 683.195 404.74 684.312C398.612 681.832 388.852 683.918 386.003 676.507C384.996 668.095 375.163 668.579 368.686 669.287C348.974 670.101 329.273 667.333 309.525 668.383C300.922 668.161 294.496 671.907 297.337 681.413C295.745 681.435 294.391 681.757 293.281 682.309C293.851 676.204 291.326 666.836 297.132 662.652ZM247.201 739.66C247.17 737.643 247.108 735.61 247.037 733.57C247.155 733.553 247.274 733.541 247.392 733.523C247.274 733.48 247.15 733.452 247.031 733.411C246.904 729.766 246.753 726.097 246.702 722.442C247.217 729.141 247.658 735.847 248.302 742.538C247.524 741.888 247.129 741.072 247.201 739.66Z" fill="white"/>
<path d="M353.526 771.656C350.136 768.178 346.287 765.104 342.433 762.156C343.235 764.151 344.461 765.97 345.994 767.472C328.458 762.005 325.963 732.974 314.885 719.501C320.471 735.56 324.349 768.883 346.494 767.956C348.048 769.379 349.944 770.335 351.89 771.125C337.501 776.668 324.604 764.473 314.882 755.326C307.224 745.996 305.33 744.135 292.891 746.046C306.847 747.309 305.886 755.017 315.291 762.643C324.286 771.563 340.677 780.822 352.134 771.217C352.596 771.39 353.06 771.547 353.526 771.656Z" fill="white"/>
<path d="M414.175 713.68C418.141 727.346 431.298 736.961 432.93 751.418C437.014 732.915 418.973 718.773 413.794 702.203C414.019 702.096 414.25 702.006 414.471 701.884C414.206 701.919 413.94 701.928 413.674 701.953C412.825 700.172 411.901 698.435 410.781 696.809C411.109 698.548 411.39 700.3 411.673 702.051C387.158 699.514 362.457 699.272 337.784 699.618C337.735 699.46 337.694 699.298 337.643 699.142C337.626 699.301 337.612 699.459 337.596 699.618C327.045 699.343 316.523 700.529 305.989 700.324C305.816 700.106 305.654 699.878 305.477 699.664C305.541 699.879 305.611 700.097 305.675 700.313C302.472 699.998 298.687 700.592 295.879 698.817C297.21 700.837 301.769 702.187 306.534 703.059C308.556 709.293 311.201 715.548 315.685 720.35C314.225 714.326 311.691 708.498 308.206 703.345C319.112 704.926 326.75 704.872 337.159 704.969C337.249 718.447 335.537 735.01 341.728 747.203C340.979 733.194 341.656 718.973 339.028 704.963C363.273 704.185 387.822 706.999 411.823 702.973C412.412 706.587 413.049 710.19 414.175 713.68Z" fill="white"/>
<path d="M329.829 732.851C328.582 733.153 327.285 733.437 326.106 733.944C341.959 738.226 332.333 721.46 330.682 713.643C329.464 704.043 320.551 711.219 315.949 714.094C319.326 713.738 322.632 712.44 326.045 712.233C327.912 718.61 330.271 724.853 332.11 731.225C332.487 732.521 330.68 732.517 329.829 732.851Z" fill="white"/>
<path d="M392.897 709.724C392.242 708.785 391.549 707.817 390.844 706.94C394.165 717.672 401.498 727.022 401.789 738.723C406.096 727.831 399.246 718.087 392.897 709.724Z" fill="white"/>
<path d="M264.324 699.944C266.961 700.261 269.732 700.107 272.24 699.264C251.147 697.025 253.492 673.85 251.881 682.357C250.978 702.381 253.215 722.901 258.305 742.358C257.279 725.15 255.767 707.578 253.128 690.506C255.095 695.37 259.116 699.467 264.324 699.944Z" fill="white"/>
<path d="M287.384 723.056C285.372 708.897 282.968 694.661 278.791 680.994C278.112 701.142 281.903 721.505 288.569 740.526C289.169 734.698 288.301 728.827 287.384 723.056Z" fill="white"/>
<path d="M249.199 668.386C252.843 665.757 255.433 661.808 256.65 657.482C253.356 660.43 251.143 664.409 249.199 668.386Z" fill="white"/>
<path d="M256.294 669.073C257.783 665.503 257.939 661.608 257.941 657.784C255.776 660.974 255.882 665.349 256.294 669.073Z" fill="white"/>
<path d="M255.504 670.137C254.334 671.92 253.01 673.982 253.202 676.199C257.033 669.218 265.75 668.201 272.157 664.547C266.664 664.879 259.134 665.455 255.504 670.137Z" fill="white"/>
<path d="M422.797 685.88C424.839 690.121 431.021 688.98 434.62 687.649C430.763 686.828 426.265 687.938 422.797 685.88Z" fill="white"/>
<path d="M427.604 680.208C426.219 680.062 428.889 681.044 429.302 680.997C430.886 681.274 432.562 681.148 434.12 680.771C434.875 686.607 436.388 693.135 437.198 695.554C438.73 687.019 436.362 678.647 434.677 670.393C433.419 671.472 433.486 675.69 434.077 680.43C431.948 679.957 429.767 679.926 427.604 680.208Z" fill="white"/>
<path d="M405.563 675.61C408.266 679.887 410.637 684.527 414.39 688.047C407.672 664.595 398.113 673.336 405.504 679.918C404.978 679.31 403.687 673.833 405.563 675.61Z" fill="white"/>
<path d="M23.7884 695.89C27.0277 703.97 35.1072 696.337 33.846 690.338C34.8972 684.25 28.9922 677.435 25.6233 685.638C32.6922 677.792 31.7233 697.099 26.9172 696.475C25.1584 695.689 23.8558 693.448 24.0976 691.517C23.1228 692.654 23.3085 694.543 23.7884 695.89Z" fill="white"/>
<path d="M25.3334 686.634C23.9457 685.341 22.0834 689.851 23.9694 690.798C26.6026 691.893 28.3073 686.925 26.2855 685.412C26.3652 685.872 26.4418 686.332 26.4761 686.8C26.5774 687.38 24.7536 690.556 24.4669 688.954C24.4044 688.214 24.1941 686.517 25.3334 686.634Z" fill="white"/>
<path d="M38.6975 692.17C42.563 692.522 43.0149 684.874 38.5661 685.671C40.7798 686.504 40.8037 688.809 39.1308 690.251C38.6196 689.459 37.6902 686.258 39.1329 686.127C36.8087 685.171 36.3862 691.927 38.6975 692.17Z" fill="white"/>
<path d="M-2.43194 696.505C-2.64329 695.654 -2.92203 694.718 -2.9568 693.841C-3.70303 695.246 -4.21466 697.997 -2.19478 698.548C2.18365 699.502 1.80681 689.514 -2.17793 693.605C-1.68229 693.525 -1.15764 693.335 -0.626176 693.35C-0.610181 693.361 -0.594404 693.371 -0.578195 693.382C0.0377281 694.461 -1.10817 698.189 -2.43194 696.505Z" fill="white"/>
<path d="M-18.5362 675.884C-17.9395 671.224 -16.5891 666.638 -16.6321 661.916C-16.9442 662.65 -17.237 663.421 -17.5358 664.18C-20.2842 664.03 -23.1697 664.39 -25.5927 665.726C-25.4713 664.378 -25.3681 663.03 -25.2717 661.681C-21.2767 662.357 -17.1395 661.8 -13.2987 660.589C-13.3921 660.571 -13.4885 660.561 -13.5822 660.544C-12.4619 660.556 -11.3403 660.572 -10.2183 660.587C-11.2665 660.707 -12.313 660.841 -13.3557 661.006C8.07156 663.753 30.1296 664.829 51.669 662.511C35.8333 659.281 19.4512 660.355 3.36404 659.942C18.0417 658.192 32.6654 655.667 47.4118 654.619C46.0263 654.885 44.6554 655.202 43.3178 655.621C68.5078 657.616 93.7679 656.861 119.003 657.318C119.013 657.436 119.016 657.555 119.028 657.672C119.082 657.556 119.127 657.437 119.18 657.321C130.854 657.524 142.531 657.764 154.245 657.756C154.106 657.754 154.077 657.753 153.992 657.752C162.475 657.824 170.955 658.006 179.433 658.244C179.284 660.937 179.298 663.604 179.317 666.386C175.75 666.584 172.123 666.638 168.599 667.129C179.657 670.952 186.407 672.283 180.046 658.261C180.484 658.273 180.921 658.282 181.358 658.295C181.38 658.382 181.379 658.478 181.409 658.56C181.437 658.474 181.461 658.385 181.488 658.299C193.144 656.765 229.164 665.99 232.134 651.682C231.792 646.174 230.345 640.443 229.209 635.098C234.577 635.556 239.944 634.649 245.185 633.537C245.194 633.568 245.199 633.6 245.207 633.632C245.215 633.598 245.221 633.563 245.228 633.529C248.426 633.14 247.787 628.835 246.197 627.045C246.465 623.884 246.41 620.667 245.807 617.595C248.267 623.417 259.086 634.193 258.605 640.006C262.322 638.105 252.511 620.005 251.293 616.765C246.752 606.161 241.213 596.015 236.88 585.32C232.411 575.505 232.917 564.659 230.243 554.432C221.732 530.576 211.916 506.754 198.896 484.981C202.418 499.253 207.304 513.126 212.698 526.793C199.277 543.608 190.354 563.476 178.593 581.427C175.548 572.523 171.886 566.171 164.854 558.791C188.063 568.899 188.286 542.074 190.63 526.4C186.935 535.041 183.821 544.159 178.819 552.196C174.725 556.056 168.549 553.06 164.056 551.417C156.629 548.767 152.08 541.921 145.621 537.738C161.098 531.639 176.753 525.329 190.916 516.527C191.03 516.523 191.145 516.527 191.259 516.522C191.194 516.492 191.127 516.465 191.062 516.435C191.181 516.359 191.297 516.278 191.42 516.21C191.215 516.202 190.985 516.255 190.76 516.302C179.295 510.738 176.507 511.354 164.367 517.145C165.035 513.209 165.09 509.187 165.309 505.206C165.257 508.566 165.903 512.016 166.678 515.112C167.895 509.371 167.575 503.417 167.025 497.62C166.071 499.472 165.58 501.499 165.396 503.589C165.586 497.842 166.34 491.817 164.338 486.308C162.377 496.603 161.178 507.084 163.833 517.389C160.053 519.144 156.342 521.25 155.232 523.229C156.729 516.127 155.482 508.869 155.284 501.751C151.931 506.786 153.464 519.114 154.927 524.882C154.935 524.848 154.939 524.813 154.946 524.778C156.775 528.202 162.271 525.555 165.478 526.422C159.028 529.582 152.534 532.664 146.135 535.921C145.956 535.883 145.781 535.863 145.601 535.833C147.135 528.658 147.487 521.152 146.607 513.878C150.999 506.677 155.306 499.4 159.397 492.006C159.823 493.275 160.183 494.559 160.533 495.43C160.708 493.603 161.071 491.321 160.908 489.254C164.181 483.231 167.294 477.125 170.188 470.918C171.684 470.295 173.223 469.833 174.79 469.473C172.494 475.212 173.35 486.422 174.3 492.336C171.703 493.574 168.797 494.764 167.011 497.106C176.822 493.647 180.829 493.81 188.502 501.018C186.52 495.459 180.794 489.071 174.41 492.286C176.273 484.825 176.264 476.949 175.19 469.391C177.884 468.801 180.648 468.462 183.402 468.035C181.186 473.718 179.457 479.517 178.006 485.446C184.927 479.131 197.418 437.747 207.895 446.491C207.893 446.5 207.89 446.509 207.888 446.517C207.892 446.51 207.897 446.502 207.901 446.494C208.802 447.043 209.68 447.63 210.553 448.218C210.816 454.2 213.051 460.012 216.128 465.201C202.254 466.057 193.066 480.909 184.114 490.186C191.262 486.451 197.768 481.291 204.388 476.653C211.094 471.529 219.659 463.931 223.343 476.63C223.857 472.457 222.296 467.101 218.151 465.75C216.775 459.523 213.992 453.621 210.584 448.239C210.685 448.307 210.786 448.375 210.887 448.443C210.255 447.372 209.414 446.301 208.651 445.309C225.311 419.415 234.529 390.123 249.272 363.14C256.887 346.238 266.597 330.406 270.873 312.148C271.772 305.43 268.351 299.205 266.915 292.766C277.812 282.769 290.479 274.365 299.079 262.024C286.998 269.45 272.956 278.756 266.318 291.69C265.32 292.395 264.343 293.14 263.385 293.912C260.34 291.41 256.812 289.497 252.964 288.789C253.596 287.748 254.241 286.716 254.857 285.664C253.796 286.632 252.751 287.618 251.707 288.604C251.445 288.575 251.185 288.54 250.92 288.522C251.087 288.638 251.253 288.755 251.419 288.872C221.543 318.414 198.032 353.727 171.027 385.829C148.844 416.333 120.069 442.393 101.335 475.165C156.154 417.553 205.736 353.842 252.47 289.606C255.413 291.677 258.313 293.768 261.414 295.557C218.962 336.107 185.22 384.888 146.43 428.839C131.535 445.167 117.455 462.139 104.909 480.328C137.486 452.819 163.043 417.261 190.383 384.633C213.944 354.638 240.644 327.262 263.488 296.691C264.198 297.055 264.924 297.397 265.662 297.719C255.198 306.548 243.824 336.831 236.705 348.785C223.991 374.702 207.86 398.806 197.692 425.943C194.697 418.36 190.387 409.216 181.256 408.245C181.365 407.933 181.487 407.626 181.588 407.309C176.868 411.929 172.531 418.027 171.735 424.731C175.565 419.714 179.14 414.318 181.237 408.3C187.941 412.431 189.632 420.219 192.731 426.981C195.271 432.217 198.613 436.998 201.885 441.798C195.447 443.545 189.791 452.943 186.895 459.319C184.643 447.419 178.244 436.483 171.221 426.687C173.644 439.117 180.431 450.137 186.031 461.324C185.244 463.214 184.51 465.127 183.784 467.033C179.514 465.946 174.666 466.352 171.134 468.887C173.637 463.401 175.961 457.834 178.053 452.169C169.952 461.964 163.62 473.002 157.492 484.149C151.362 482.295 144.368 481.453 138.032 481.472C150.251 470.105 161.86 457.728 170.246 443.219C157.357 453.765 142.009 468.655 135.29 483.999C135.989 483.362 136.685 482.72 137.381 482.076C138.474 482.476 141.206 483.574 142.851 484.158C140.34 489.193 138.987 494.768 139.101 500.401C124.995 496.533 110.591 493.519 96.0842 491.836C97.1646 487.318 97.3438 482.57 96.6308 477.964C101.618 479.795 101.887 481.773 102.443 487.96C108.593 475.831 95.0592 471.88 84.8065 469.37C65.4514 462.419 72.2967 478.512 74.632 490.043C75.6538 484.642 75.2409 478.99 76.441 473.61C78.5291 473.929 80.6091 474.295 82.6855 474.683C82.5994 480.037 82.2946 485.492 83.0928 490.82C80.026 490.691 76.9526 490.64 73.8728 490.684C74.0713 490.572 74.2648 490.45 74.4682 490.347C73.4268 490.442 67.1113 490.772 69.9838 491.142C67.5374 492.033 64.9743 493.575 62.6672 495.346C63.1645 491.519 63.5667 487.689 63.1248 483.853C60.7648 489.516 59.717 496.17 56.5757 501.348C56.7818 497.659 56.4985 493.945 55.6344 490.34C55.4906 490.767 55.3836 491.205 55.262 491.639C54.7075 487.945 53.6222 484.4 50.4073 482.519C39.6317 478.27 27.1865 472.593 15.9954 478.533C17.8105 474.366 18.6122 469.676 18.0839 465.15C24.0079 465.64 45.9969 467.34 47.5839 472.945C43.7721 470.849 35.7071 470.317 36.9641 476.789C37.9072 472.797 41.8612 473.769 44.7992 474.819C49.0548 475.71 48.438 475.951 48.3092 480.01C49.6588 478.035 50.2088 476.447 49.8413 475.182C56.9805 473.057 64.4507 476.055 71.4244 473.677C61.6143 471.997 58.8357 468.26 49.7261 474.882C49.5229 474.406 49.1768 473.979 48.6788 473.598C50.5272 464.617 20.3083 456.981 14.1212 458.521C7.08262 459.892 3.04115 466.128 -1.29271 471.22C-6.47367 477.871 -13.8166 482.779 -18.3285 490.005C-14.2073 486.786 -9.73691 483.984 -5.41222 480.985C-5.72338 482.937 -5.73021 484.948 -5.48047 486.891C-4.40368 484.658 -3.81717 482.219 -3.64357 479.743C-1.91097 478.5 -0.214405 477.209 1.4122 475.829C0.864952 478.405 0.821442 481.097 1.30236 483.695C2.38578 480.955 2.90615 477.837 2.49113 474.863C5.26236 472.467 7.80369 469.709 10.8121 467.557C7.99926 471.317 8.3616 476.84 9.12042 481.258C0.241566 485.37 -9.19883 488.571 -17.5752 493.655C-1.43261 491.622 13.8623 483.763 30.0057 483.163C39.2409 485.178 51.8795 483.688 54.4996 495.165C53.8229 499.825 54.2249 504.697 55.3867 509.217C56.0153 506.717 56.4062 504.157 56.5647 501.585C56.8696 501.428 57.1795 501.275 57.4877 501.121C57.3418 501.744 57.2038 502.368 57.0752 502.995C56.915 502.976 56.7525 502.96 56.5928 502.939C56.7114 503.068 56.8641 503.186 57.0063 503.308C55.2259 513.821 54.3356 524.588 54.5608 535.244C50.7439 536.929 45.4699 540.551 48.6229 544.861C47.1417 540.946 51.7652 539.158 54.7749 538.304C54.864 539.242 54.9634 540.18 55.0995 541.117C55.4057 540.077 55.6926 539.031 55.9824 537.986C67.4706 537.041 79.3451 541.479 91.1675 541.163C99.8085 542.11 108.846 542.775 117.328 540.558C119.698 539.21 122.445 539.051 125.104 539.367C128.138 542.884 125.462 550.178 131.023 552.764C127.549 549.07 129.879 544.48 129.693 539.765C135.172 531.612 140.479 523.379 145.841 515.134C143.89 521.709 143.652 528.812 144.33 535.67C143.605 535.585 142.937 535.572 142.347 535.658C142.254 535.604 142.164 535.546 142.071 535.493C142.124 535.556 142.175 535.623 142.228 535.686C140.453 535.987 139.364 537.154 139.259 539.528C139.064 539.634 138.867 539.736 138.672 539.842C138.863 539.794 139.051 539.733 139.243 539.683C137.944 550.487 139.874 547.923 130.353 551.694C142.082 553.618 142.552 549.434 142.395 538.798C143.022 538.605 143.643 538.39 144.267 538.183C144.407 538.357 144.55 538.526 144.69 538.702C144.717 538.897 144.741 539.095 144.769 539.29C144.803 539.165 144.829 539.037 144.862 538.912C150.34 545.154 153.358 553.387 161.324 557.127C161.023 557.163 160.735 557.258 160.467 557.438C160.552 557.44 160.63 557.455 160.711 557.464C151.216 562.468 144.12 570.939 136.347 578.165C138.807 571.964 140.27 565.104 139.098 558.462C144.356 558.78 149.689 559.026 154.932 558.738C122.367 552.358 89.3067 543.555 55.9108 545.452C55.6958 543.047 55.1392 540.842 54.0167 539.257C54.2927 541.391 53.7987 543.499 53.7461 545.681C53.0843 545.774 52.4225 545.887 51.8166 546.091C52.4534 546.166 53.0832 546.256 53.7162 546.34C53.6537 547.465 53.218 548.577 53.5159 549.725C53.5872 549.562 53.6392 549.392 53.694 549.222C53.7254 550.176 53.7945 551.128 53.9037 552.075C50.1132 550.804 46.1631 551.331 44.0839 555.056C34.9785 552.078 25.7979 550.447 16.2942 548.488C20.2508 539.547 21.0062 529.118 17.9178 519.789C16.5273 529.168 15.5334 538.777 15.4861 548.307C11.0277 547.275 6.29822 546.446 1.576 546.18C4.58225 538.332 6.61342 529.306 4.72214 520.945C10.0181 518.894 15.7764 518.262 21.2768 519.797C18.2836 517.921 14.8806 516.458 11.3484 516.142C14.6853 508.417 16.7986 499.874 16.3741 491.475C16.2204 491.783 16.0882 492.1 15.9393 492.41C-7.95078 495.122 -15.0806 505.939 -29.6017 523.163C-13.4538 514.466 -0.806026 500.41 15.8994 492.496C12.3879 499.846 10.3672 507.905 10.3256 516.059C-17.8578 517.254 -33.8569 525.52 -46.5957 551.362C-42.419 547.388 -38.2564 543.195 -33.836 539.34C-35.7654 546.971 -35.5281 555.073 -34.3312 562.901C-38.382 567.246 -47.501 573.159 -38.6653 577.64C-40.4849 574.597 -42.5325 573.721 -38.7049 571.102C-36.4027 569.345 -34.0149 567.698 -31.6139 566.071C-28.0683 570.002 -20.5049 576.692 -22.3064 565.859C-21.0214 564.721 -19.4778 563.812 -18.4228 562.412C-17.2048 563.32 -15.7586 564.685 -14.1885 564.715C-15.9151 581.841 -18.7326 599.227 -17.0983 616.451C-24.4884 618.113 -31.5446 621.448 -37.8111 625.685C-37.8749 625.28 -37.9412 624.879 -38.0178 624.489C-38.1312 625.03 -38.2374 625.54 -38.3381 626.034C-38.4027 626.079 -38.4701 626.12 -38.5343 626.164C-38.4752 626.158 -38.4181 626.145 -38.359 626.139C-39.0321 629.448 -39.3501 631.749 -38.5209 633.664C-41.7835 644.898 -31.6956 654.078 -23.2817 659.966C-25.4035 660.051 -27.5584 660.127 -29.6476 659.634C-28.703 660.72 -27.1436 661.305 -25.7002 661.604C-26.6396 663.779 -27.3283 666.037 -28.0421 668.291C-28.172 665.457 -28.5684 662.509 -30.0039 660.023C-30.1955 663.322 -29.6407 666.674 -28.5068 669.784C-29.2159 672.067 -29.9037 674.356 -30.5591 676.656C-32.3109 669.918 -29.9824 663.203 -30.1195 656.348C-35.4965 677.051 -47.182 701.126 -39.6644 722.285C-41.2062 709.508 -34.8853 697.341 -33.7987 684.65C-33.6259 685.339 -33.4231 686.01 -33.209 686.665C-35.6006 699.016 -39.7576 711.627 -39.3501 724.242C-38.7781 722.116 -38.1752 719.993 -37.5607 717.873C-27.1363 718.578 -27.8751 714.786 -37.4473 717.485C-36.9403 715.741 -36.4276 713.997 -35.9073 712.254C-35.3321 712.3 -34.7565 712.37 -34.1747 712.41L-34.2487 712.402C-32.0136 712.646 -29.8617 712.485 -27.62 711.995C-30.1899 711.223 -33.0398 710.894 -35.6927 711.536C-35.3828 710.5 -35.0734 709.465 -34.7633 708.429C-32.1514 708.275 -29.4185 708.252 -26.9239 707.347C-27.3543 712.578 -27.694 717.815 -27.7646 723.044C-21.8978 708.069 -21.21 691.62 -18.5362 675.884ZM264.692 295.042C264.901 294.753 265.11 294.466 265.319 294.178C265.259 294.353 265.182 294.522 265.126 294.698C265.607 294.135 266.124 293.605 266.634 293.069C266.515 294.31 266.464 295.553 266.475 296.8C265.905 296.195 265.309 295.608 264.692 295.042ZM217.349 397.49C235.113 365.05 251.703 331.898 266.241 297.953C266.326 297.988 266.415 298.019 266.5 298.054C268.113 307.873 264.28 316.509 259.912 325.034C242.849 364.999 220.932 403.231 208.354 444.959C206.443 442.71 204.619 441.765 202.871 441.724C201.8 436.486 199.865 431.404 197.88 426.416C205.472 417.605 212.017 407.851 217.349 397.49ZM10.6152 475.376C11.1004 472.675 10.7498 469.855 11.3523 467.193C13.2167 465.982 15.4072 465.027 17.7099 465.147C15.9156 469.461 15.0866 474.171 15.1455 478.857C13.1267 479.619 11.1241 480.418 9.1364 481.251C9.74955 479.327 10.2953 477.375 10.6152 475.376ZM150.09 497.583C150.661 493.809 150.688 489.913 149.853 486.238C151.754 486.728 153.664 487.187 155.569 487.656C153.753 490.976 151.94 494.295 150.09 497.583ZM142.447 491.991C143.104 489.501 143.431 486.934 143.444 484.361C145.372 485.016 147.328 485.579 149.297 486.095C148.076 490.666 147.804 495.441 148.663 500.094C148.117 501.067 147.54 502.021 146.971 502.981C144.414 502.017 141.812 501.178 139.183 500.425C140.599 497.788 141.681 494.901 142.447 491.991ZM83.4311 474.825C87.3156 475.594 91.2168 476.363 95.0307 477.431C94.2684 482.213 94.5753 487.107 95.737 491.797C92.0728 491.391 88.3986 491.081 84.7144 490.891C85.5847 485.497 85.7357 479.728 83.4311 474.825ZM86.7818 534.655C87.5685 524.999 84.0737 506.734 78.4705 500.559C81.8265 500.013 85.2518 502.291 88.5063 503.081C88.7548 514.108 91.1773 524.949 95.2134 535.245C92.4019 535.087 89.5914 534.869 86.7818 534.655ZM134.032 526.38C132.287 530.112 130.721 533.93 129.306 537.799C123.847 529.251 106.241 537.514 96.9462 535.329C96.6958 524.28 93.6998 513.206 88.9972 503.241C89.2112 503.308 89.4261 503.385 89.6394 503.449C84.7039 497.577 74.8028 493.749 74.7284 505.003C75.6869 503.516 76.708 501.248 78.4459 500.569C80.4993 511.979 81.6893 523.623 85.8204 534.581C77.0556 535.098 64.5981 530.663 57.0323 534.027C59.4173 524.65 61.0653 515.079 61.6068 505.397C64.088 506.03 66.4629 506.328 68.9597 506.408C66.711 505.091 64.2974 504.072 61.7281 503.591C61.8375 501.968 62.0184 500.344 62.227 498.721C65.9076 496.9 68.987 494.153 72.2383 491.714C76.0925 492.685 79.9586 493.611 83.8361 494.485C83.8747 494.63 83.898 494.777 83.9387 494.922C83.9673 494.791 83.9941 494.657 84.0223 494.526C104.603 499.163 125.5 502.365 146.568 503.661C142.146 511.1 137.679 518.523 134.032 526.38ZM159.688 524.056C169.052 519.212 178.973 514.689 189.738 516.541C181.279 518.521 173.451 522.465 165.714 526.306C163.931 525.148 161.69 524.755 159.688 524.056ZM130.55 653.657C127.254 653.586 123.957 653.478 120.657 653.353C121.548 650.405 122.063 647.336 122.275 644.26C122.385 644.173 122.548 643.746 122.624 643.301C131.496 636.727 133.427 633.483 145.612 635.461C157.234 636.731 168.899 637.897 180.58 637.444C180.563 642.881 180.177 648.377 180.694 653.804C163.978 653.842 147.262 653.863 130.55 653.657ZM245.73 630.837C245.918 629.673 246.067 628.489 246.175 627.297C246.47 628.463 246.181 629.736 245.73 630.837ZM243.362 613.238C243.418 617.534 243.408 621.871 243.847 626.151C238.156 624.394 232.009 624.171 226.118 624.841C228.542 613.24 229.248 601.08 227.218 589.358C228.737 589.23 230.252 589.067 231.761 588.842C235.469 597.041 239.112 605.301 243.362 613.238ZM231.423 588.057C227.629 587.029 221.382 586.696 217.253 588.153C217.085 586.741 216.898 585.335 216.691 583.935C216.065 585.166 215.612 586.963 215.297 589.11C214.579 589.583 213.991 590.144 213.616 590.825C214.041 590.45 214.584 590.287 215.154 590.183C214.086 599.075 215.108 612.98 216.364 619.48C218.444 609.838 218.488 599.771 217.449 589.923C220.507 589.79 223.563 589.699 226.613 589.41C224.66 600.981 225.036 613.17 225.999 624.855C217.29 625.087 212.307 631.602 224.656 629.613C223.828 629.375 222.939 629.111 222.119 628.793C229.396 628.03 236.629 627.549 243.931 626.909C244.09 628.278 244.289 629.641 244.57 630.993C234.238 631.283 223.352 630.002 213.426 633.395C218.466 633.841 223.535 634.681 228.618 635.056C227.975 640.366 229.296 647.064 226.732 651.863C215.676 655.784 203.041 652.906 191.441 653.781C194.036 648.841 194.703 643.035 193.442 637.531C193.152 638.399 192.886 639.271 192.634 640.146C189.309 643.114 186.336 646.624 183.9 650.419C187.39 648.807 190.354 645.852 192.037 642.336C191.084 646.086 190.433 649.902 189.968 653.784C187.526 653.79 185.084 653.794 182.642 653.8C183.744 648.276 183.67 642.44 181.019 637.43C183.137 637.341 185.255 637.215 187.374 637.007C186.704 640.56 185.286 643.839 184.302 647.393C186.424 643.679 196.263 633.11 186.561 632.884C170.553 632.619 155.502 630.216 139.176 630.044C144.094 626.113 149.604 619.083 143.516 616.491C164.92 620.131 186.738 619.66 208.38 620.298C208.625 621.307 208.879 622.317 209.186 623.282C209.218 623.114 209.234 622.946 209.264 622.778C207.057 640.764 200.775 626.28 194.392 641.085C202.719 634.232 200.462 638.679 207.931 636.249C212.023 632.827 211.449 625.637 209.513 621.152C209.545 620.88 209.556 620.607 209.581 620.335C210.17 620.354 210.76 620.37 211.35 620.39C210.823 620.029 210.248 619.747 209.648 619.508C209.917 615.167 209.277 610.807 208.054 606.624C211.782 600.455 209.756 592.577 216.064 581.178C217.61 582.481 219.81 582.87 221.863 583.086C221.945 583.506 222.008 583.93 222.105 584.348C222.207 583.95 222.293 583.543 222.388 583.141C224.658 583.367 227.003 583.09 229.199 582.544C229.886 584.401 230.634 586.239 231.423 588.057ZM221.354 568.051C221.679 567.431 222.004 566.81 222.321 566.186C222.268 566.956 221.879 567.512 221.354 568.051ZM221.619 570.044C221.1 573.743 221.033 577.502 221.54 581.191C219.769 581.084 217.99 581.021 216.207 580.891C218.011 577.277 219.919 573.698 221.619 570.044ZM205.346 600.848C205.088 606.805 201.06 611.669 199.187 617.168C196.171 616.679 193.14 616.286 190.099 615.974C195.297 608.669 200.765 601.523 205.833 594.115C205.443 596.295 205.264 598.536 205.346 600.848ZM207.97 606.767C206.992 610.702 207.24 614.936 208.078 618.983C205.281 618.227 202.485 617.705 199.638 617.239C203.925 612.626 206.448 609.375 207.97 606.767ZM229.111 582.306C227.032 581.723 224.926 581.439 222.804 581.276C223.999 576.056 224.014 570.553 223.654 565.321C223.613 565.368 223.576 565.417 223.535 565.464C223.475 565.033 223.391 564.607 223.316 564.179C223.811 563.164 224.29 562.143 224.757 561.114C225.902 568.244 226.256 575.555 229.111 582.306ZM159.512 559.339C160.12 558.751 160.697 558.158 161.334 557.611C162.779 558.201 163.501 560.176 164.29 561.754C163.061 560.758 161.696 559.968 160.165 559.491C165.22 565.23 167.661 573.047 173.047 578.644C172.659 576.942 172.148 575.093 171.498 573.232C173.636 576.158 175.944 578.955 178.55 581.496C177.82 582.677 177.096 583.862 176.368 585.043C159.008 592.917 144.341 606.426 131.426 620.247C147.963 611.284 162.473 599.197 175.789 585.984C170.719 594.426 165.054 602.826 162.091 612.3C180.172 584.619 194.526 554.566 212.745 526.914C217.073 538.073 222.433 548.968 224.692 560.791C211.09 577.544 196.947 595.299 189.964 615.96C173.528 615.118 156.228 612.99 140.037 616.196C140.666 616.094 141.303 616.174 141.936 616.258C147.649 620.547 138.641 625.825 137.022 630.3C129.235 630.578 126.602 637.217 122.243 642.187C121.191 642.768 120.239 643.838 118.954 644.16C119.574 644.224 120.218 644.092 120.853 643.911C119.67 646.899 119.052 650.08 118.917 653.284C116.674 653.195 114.431 653.1 112.188 653.002C114.723 640.345 121.58 629.415 132.282 621.895C122.889 624.198 118.376 628.254 115.832 635.272C115.673 630.634 113.986 625.913 109.659 623.564C114.968 615.965 118.661 607.312 124.306 599.913C136.552 586.836 148.033 573.108 159.512 559.339ZM139.076 558.459C136.743 564.935 135.634 571.905 135.691 578.809C134.728 579.771 133.78 580.747 132.827 581.719C127.61 580.364 122.29 579.423 116.941 578.614C118.794 571.635 119.744 564.072 117.93 557.042C116.212 564.004 115.351 571.336 116.216 578.505C110.572 577.728 104.958 576.783 99.3255 576.04C100.89 568.333 101.162 559.822 97.9823 552.477C111.644 554.756 125.209 557.629 139.076 558.459ZM4.60826 520.983C2.30985 529.17 0.547394 537.631 1.52822 546.177C-1.37395 546.016 -4.27123 546.072 -7.10068 546.421C-4.60159 539.229 -2.68919 531.431 -4.49154 523.961C-1.48677 523.021 1.61118 522.068 4.60826 520.983ZM-32.6967 538.364C-29.2626 535.447 -25.6611 532.76 -21.7709 530.553C-23.274 537.446 -23.2827 544.689 -21.9157 551.607C-19.9378 544.54 -19.1449 536.957 -20.0368 529.615C-15.1791 527.315 -10.1449 525.788 -5.1258 524.162C-6.82919 531.522 -8.21288 539.015 -8.34085 546.594C-18.6695 547.595 -26.2218 555.765 -33.7396 562.351C-31.7043 554.555 -31.5538 546.34 -32.6967 538.364ZM-22.4316 564.89C-22.5514 564.031 -22.6666 563.295 -22.7016 562.852C-23.3523 564.907 -23.692 567.123 -24.3461 569.203C-26.7548 568.154 -29.1133 566.899 -31.5832 566.05C-28.2737 563.845 -25.0714 561.544 -21.6888 559.419C-20.8444 560.193 -20.0157 561.003 -19.1568 561.775C-20.3936 562.638 -21.6969 563.773 -22.4316 564.89ZM-14.3184 563.537C-15.3327 562.768 -16.3508 561.927 -17.4136 561.158C-17.2442 560.928 -17.0636 560.709 -16.903 560.47C-17.1536 560.574 -17.4505 560.723 -17.7736 560.903C-18.8382 560.16 -19.9538 559.509 -21.1684 559.098C-18.257 557.304 -15.2457 555.697 -12.0846 554.54C-13.142 557.455 -13.1285 560.734 -14.3184 563.537ZM-30.3458 624.116C-24.9179 622.478 -20.0826 619.354 -15.4967 616.092C-16.0179 616.191 -16.533 616.323 -17.051 616.439C-13.8739 596.043 -12.3795 575.138 -11.9485 554.493C-2.49576 550.696 7.80411 553.953 17.5516 554.615C26.3458 555.372 35.1607 555.21 43.9753 555.233C43.3997 556.22 43.0084 557.309 42.8759 558.407C45.4556 554.312 49.6901 553.625 53.6719 556.215C51.1581 559.122 47.7216 561.082 45.0997 563.904C48.1241 562.778 55.75 560.488 57.689 557.15C57.6216 562.066 58.1962 566.997 59.4869 571.717C60.6859 563.929 60.9682 555.542 58.5724 547.903C58.204 549.951 57.9537 552.028 57.8121 554.116C57.3988 553.371 56.6444 552.902 55.7632 552.576C55.9645 550.651 56.0754 548.606 55.9895 546.641C64.3772 547.966 73.0357 548.539 81.4511 549.941C79.5622 557.561 78.0181 565.452 78.3056 573.342C81.3818 566.082 83.1432 558.073 82.7864 550.143C87.8006 550.93 92.832 551.609 97.8369 552.453C97.2002 560.276 97.4555 568.318 99.1451 576.02C85.3706 574.059 71.2811 573.952 57.5886 571.764C55.5092 568.485 55.6934 564.592 50.3192 564.812C46.9739 564.373 40.174 567.151 40.4698 561.668C40.4988 561.666 40.5282 561.667 40.5573 561.665C40.5274 561.655 40.4971 561.647 40.4675 561.637C40.4278 561.09 40.3805 560.565 40.2403 560.15C40.1947 560.562 40.1013 561.017 40.0015 561.489C23.823 556.223 6.19008 554.778 -10.6484 557.012C5.94269 560.216 23.0744 561.514 39.9603 561.684C37.4855 569.248 47.741 566.389 51.1706 569.45C50.894 578.422 59.241 578.71 66.1931 578.943C88.2137 579.956 110.162 582.252 132.225 582.335C119.534 592.996 112.958 607.587 109.62 623.543C107.801 622.509 105.737 621.976 104.204 623.01C116.197 626.56 109.626 643.681 110.489 652.928C108.592 652.844 106.696 652.762 104.799 652.682C105.698 645.568 106.102 638.028 104.827 630.937C102.521 637.909 102.338 645.435 103.663 652.634C79.607 650.807 55.9483 654.689 32.0723 652.066C32.058 652.056 32.0435 652.046 32.029 652.036C33.8655 645.187 34.854 631.202 32.9137 624.772C30.704 633.55 30.1706 642.888 31.7987 651.877C22.3596 645.461 12.3056 639.894 1.68113 635.764C2.70696 631.489 2.58113 626.956 3.50097 622.681C0.279102 625.984 0.166279 630.957 0.744667 635.416C-6.88997 632.335 -15.1761 630.888 -22.6478 627.432C-23.7588 626.839 -22.3414 622.436 -22.2111 621.179C-28.6358 628.917 -21.9131 631.538 -15.0665 634.424C-0.271355 640.187 14.5033 645.989 29.1731 652.069C22.5816 652.227 15.9263 652.239 9.38253 653.155C-0.940376 646.293 -12.7973 642.077 -24.2007 637.341C-29.9389 634.741 -38.1553 634.142 -37.7533 626.05C-35.2224 625.71 -32.7871 625.016 -30.3458 624.116ZM-31.2949 646.911C-34.4681 643.015 -36.2886 640.033 -37.237 635.505C-35.0489 637.725 -30.2023 639.665 -27.0397 641.17C-27.6194 644.345 -28.2893 647.536 -28.6644 650.757C-29.5298 649.464 -30.4009 648.177 -31.2949 646.911ZM-27.6889 652.218C-26.4387 648.812 -25.6637 644.769 -26.4383 641.433C-25.0926 642.024 -23.7359 642.588 -22.3719 643.133C-21.5512 645.092 -20.5576 646.983 -19.3997 648.776C-21.5817 651.16 -23.7357 654.381 -23.8946 657.292C-22.1021 654.844 -20.1963 652.38 -18.838 649.611C-16.9348 652.391 -14.6647 654.926 -12.0933 657.084C-13.5237 653.589 -15.4429 650.198 -17.8324 647.204C-17.8318 647.203 -17.8314 647.201 -17.8307 647.2C-17.8318 647.201 -17.8326 647.202 -17.8335 647.202C-18.8482 645.932 -19.9489 644.735 -21.133 643.631C-11.4821 647.119 -1.68363 650.31 8.11335 653.357C-1.95065 655.681 -12.0496 658.952 -22.3149 659.928C-24.1898 657.433 -25.9467 654.832 -27.6889 652.218ZM-26.3617 672.714C-24.3352 672.554 -22.2576 672.492 -20.2716 672.047C-20.5979 673.114 -20.9052 674.175 -21.1982 675.241C-22.9588 674.708 -24.7859 674.496 -26.6153 674.71C-26.5221 674.046 -26.4468 673.379 -26.3617 672.714ZM-17.6919 664.571C-18.5189 666.701 -19.285 668.902 -19.989 671.139C-22.0641 670.99 -24.3606 671.046 -26.2427 671.776C-26.012 669.889 -25.8051 668.001 -25.6311 666.109C-22.9501 665.994 -20.2125 665.556 -17.6919 664.571ZM-26.119 698.269C-27.9958 697.962 -30.1134 697.967 -31.9155 698.684C-31.4124 696.905 -30.9291 695.123 -30.4599 693.336C-28.77 693.413 -27.0602 693.286 -25.405 692.936C-25.7096 694.702 -25.964 696.48 -26.119 698.269ZM-30.3279 692.837C-29.9312 691.313 -29.5572 689.784 -29.195 688.252C-27.5784 688.444 -25.9589 688.301 -24.39 687.893C-24.7021 689.271 -24.9895 690.654 -25.2448 692.042C-26.9774 691.944 -28.7224 692.201 -30.3279 692.837ZM-26.4831 687.295C-27.3182 687.394 -28.243 687.477 -29.073 687.736C-28.6853 686.074 -28.3268 684.405 -27.9907 682.732C-26.2393 682.642 -24.4907 682.217 -22.8545 681.596C-23.3442 683.514 -23.8274 685.434 -24.2719 687.362C-25.0085 687.288 -25.7558 687.25 -26.4831 687.295ZM-33.1755 680.416C-32.9223 678.736 -32.6493 677.06 -32.3239 675.392C-32.0405 676.649 -31.6647 677.887 -31.2343 679.089C-31.7943 681.12 -32.3339 683.156 -32.8477 685.199C-32.7735 683.604 -32.9162 682.003 -33.1755 680.416ZM-34.6345 708C-34.1344 706.329 -33.6385 704.655 -33.1469 702.981C-32.9942 702.991 -32.8402 703.003 -32.6954 703.016L-32.7029 703.015C-30.8206 703.251 -28.8642 703.102 -27.0421 702.652C-28.9022 702.128 -31.1855 701.83 -33.0296 702.584C-32.7312 701.565 -32.4444 700.542 -32.1531 699.521C-30.1193 699.387 -28.0436 699.162 -26.1369 698.467C-26.3984 701.331 -26.662 704.199 -26.8996 707.068C-29.4352 706.789 -32.4105 706.705 -34.6345 708ZM-22.7425 681.158C-24.4257 681.04 -26.1399 681.25 -27.7838 681.695C-27.3556 679.706 -27.0519 677.695 -26.7599 675.682C-26.6162 675.696 -26.4705 675.715 -26.3285 675.728C-26.3502 675.724 -26.3741 675.723 -26.3959 675.719C-24.6893 675.89 -22.9579 675.815 -21.2757 675.526C-21.8088 677.397 -22.2535 679.275 -22.7425 681.158Z" fill="white"/>
<path d="M174.816 625.735C165.318 625.627 155.712 626.578 146.424 628.545C163.36 630.706 181.665 632.388 198.213 627.342C190.415 626.772 182.618 626.232 174.816 625.735Z" fill="white"/>
<path d="M174.449 548.053C170.121 546.631 168.914 546.316 167.524 541.776C170.746 536.877 173.244 531.323 174.299 525.596C170.636 529.709 168.101 534.664 166.714 539.96C161.544 528.827 150.337 535.681 155.471 545.736C155.338 543.098 156.236 538.833 158.964 537.861C164.651 539.446 164.454 549.223 171.211 548.217L171.174 548.216C172.268 548.233 173.366 548.231 174.449 548.053Z" fill="white"/>
<path d="M172.121 533.457C172.37 535.968 173.458 538.333 174.937 540.374C174.988 537.82 173.708 535.407 172.121 533.457Z" fill="white"/>
<path d="M236.979 601.106C235.784 608.606 235.954 616.539 237.643 623.978C239.289 616.516 239.518 608.411 236.979 601.106Z" fill="white"/>
<path d="M73.1018 651.217C74.9152 644.78 76.0326 637.713 74.4002 631.123C72.4046 637.61 72.1425 644.522 73.1018 651.217Z" fill="white"/>
</g>
</g>
<defs>
<clipPath id="clip0_57_127">
<rect width="576" height="721" fill="white"/>
</clipPath>
<clipPath id="clip1_57_127">
<rect width="683.247" height="683.624" fill="white" transform="translate(1.20508 48.1914)"/>
</clipPath>
</defs>
</svg>
