<svg width="47" height="47" viewBox="0 0 47 47" fill="none" xmlns="http://www.w3.org/2000/svg">
<path d="M26.0703 30.8438H31.2109C34.4503 30.8438 37.0859 28.2081 37.0859 24.9688C37.0859 21.7294 34.4503 19.0938 31.2109 19.0938H29.0078C18.8845 19.0938 10.6484 10.8577 10.6484 0.734375C10.6484 0.328266 10.3202 0 9.91406 0C9.50795 0 9.17969 0.328266 9.17969 0.734375C9.17969 11.6677 18.0744 20.5625 29.0078 20.5625H31.2109C33.641 20.5625 35.6172 22.5387 35.6172 24.9688C35.6172 27.3988 33.641 29.375 31.2109 29.375H26.0703C16.7562 29.375 9.17969 36.9515 9.17969 46.2656C9.17969 46.6717 9.50795 47 9.91406 47C10.3202 47 10.6484 46.6717 10.6484 46.2656C10.6484 37.7623 17.567 30.8438 26.0703 30.8438Z" fill="#78B832"/>
<path d="M31.2109 10.2812H29.0078C23.7438 10.2812 19.4609 5.99837 19.4609 0.734375C19.4609 0.328266 19.1327 0 18.7266 0C18.3205 0 17.9922 0.328266 17.9922 0.734375C17.9922 6.80839 22.9338 11.75 29.0078 11.75H31.2109C38.4996 11.75 44.4297 17.6801 44.4297 24.9688C44.4297 32.2574 38.4996 38.1875 31.2109 38.1875H26.0703C21.6163 38.1875 17.9922 41.8116 17.9922 46.2656C17.9922 46.6717 18.3205 47 18.7266 47C19.1327 47 19.4609 46.6717 19.4609 46.2656C19.4609 42.6209 22.4256 39.6562 26.0703 39.6562H31.2109C39.3096 39.6562 45.8984 33.0674 45.8984 24.9688C45.8984 16.8701 39.3096 10.2812 31.2109 10.2812Z" fill="#78B832"/>
<path d="M26.0299 15.6657C26.3406 15.8728 26.7658 16.1562 27.5391 16.1562C28.3124 16.1562 28.7376 15.8728 29.0482 15.6657C29.292 15.5034 29.4139 15.4219 29.7422 15.4219C30.1483 15.4219 30.4766 15.0936 30.4766 14.6875C30.4766 14.2814 30.1483 13.9531 29.7422 13.9531C28.9689 13.9531 28.5437 14.2366 28.233 14.4437C27.9892 14.606 27.8673 14.6875 27.5391 14.6875C27.2108 14.6875 27.0889 14.606 26.8451 14.4437C26.5344 14.2366 26.1092 13.9531 25.3359 13.9531C24.9298 13.9531 24.6016 14.2814 24.6016 14.6875C24.6016 15.0936 24.9298 15.4219 25.3359 15.4219C25.6642 15.4219 25.7861 15.5034 26.0299 15.6657Z" fill="#78B832"/>
<path d="M34.8424 33.2907C35.1531 33.4978 35.5783 33.7812 36.3516 33.7812C37.1249 33.7812 37.5501 33.4978 37.8607 33.2907C38.1045 33.1284 38.2264 33.0469 38.5547 33.0469C38.9608 33.0469 39.2891 32.7186 39.2891 32.3125C39.2891 31.9064 38.9608 31.5781 38.5547 31.5781C37.7814 31.5781 37.3562 31.8616 37.0455 32.0687C36.8017 32.231 36.6798 32.3125 36.3516 32.3125C36.0233 32.3125 35.9014 32.231 35.6576 32.0687C35.3469 31.8616 34.9217 31.5781 34.1484 31.5781C33.7423 31.5781 33.4141 31.9064 33.4141 32.3125C33.4141 32.7186 33.7423 33.0469 34.1484 33.0469C34.4767 33.0469 34.5986 33.1284 34.8424 33.2907Z" fill="#78B832"/>
<path d="M31.9049 35.0062C31.6611 35.1685 31.5392 35.25 31.2109 35.25C30.8827 35.25 30.7608 35.1685 30.517 35.0062C30.2063 34.7991 29.7811 34.5156 29.0078 34.5156C28.6017 34.5156 28.2734 34.8439 28.2734 35.25C28.2734 35.6561 28.6017 35.9844 29.0078 35.9844C29.3361 35.9844 29.458 36.0659 29.7018 36.2282C30.0124 36.4353 30.4376 36.7188 31.2109 36.7188C31.9842 36.7188 32.4094 36.4353 32.7201 36.2282C32.9639 36.0659 33.0858 35.9844 33.4141 35.9844C33.8202 35.9844 34.1484 35.6561 34.1484 35.25C34.1484 34.8439 33.8202 34.5156 33.4141 34.5156C32.6408 34.5156 32.2156 34.7991 31.9049 35.0062Z" fill="#78B832"/>
<path d="M37.0859 15.4219C36.3126 15.4219 35.8874 15.7053 35.5768 15.9124C35.333 16.0747 35.2111 16.1562 34.8828 16.1562C34.5545 16.1562 34.4326 16.0747 34.1888 15.9124C33.8782 15.7053 33.453 15.4219 32.6797 15.4219C32.2736 15.4219 31.9453 15.7501 31.9453 16.1562C31.9453 16.5624 32.2736 16.8906 32.6797 16.8906C33.008 16.8906 33.1299 16.9721 33.3737 17.1344C33.6843 17.3415 34.1095 17.625 34.8828 17.625C35.6561 17.625 36.0813 17.3415 36.392 17.1344C36.6358 16.9721 36.7577 16.8906 37.0859 16.8906C37.492 16.8906 37.8203 16.5624 37.8203 16.1562C37.8203 15.7501 37.492 15.4219 37.0859 15.4219Z" fill="#78B832"/>
<path d="M14.3209 27.1722C14.727 27.1722 15.0552 26.8439 15.0552 26.4378V24.969H17.2584C17.5132 24.969 17.7482 24.8368 17.8826 24.6202C18.017 24.4036 18.0287 24.1333 17.9149 23.9057L14.9774 18.0307C14.7277 17.5328 13.9133 17.5328 13.6636 18.0307L10.7261 23.9057C10.6123 24.1333 10.624 24.4036 10.7584 24.6202C10.8928 24.8368 11.1285 24.969 11.3834 24.969H13.5865V26.4378C13.5865 26.8439 13.9148 27.1722 14.3209 27.1722ZM14.3209 20.0017L16.0701 23.5003H12.5716L14.3209 20.0017Z" fill="#78B832"/>
<path d="M4.77399 23.5003C5.1801 23.5003 5.50836 23.172 5.50836 22.7659V21.2972H7.71149C7.96632 21.2972 8.20132 21.165 8.33571 20.9483C8.4701 20.7317 8.48185 20.4614 8.36802 20.2338L5.43052 14.3588C5.18083 13.8609 4.36641 13.8609 4.11672 14.3588L1.17922 20.2338C1.06539 20.4614 1.07714 20.7317 1.21153 20.9483C1.34592 21.165 1.58166 21.2972 1.83649 21.2972H4.03961V22.7659C4.03961 23.172 4.36788 23.5003 4.77399 23.5003ZM4.77399 16.3298L6.52327 19.8284H3.02471L4.77399 16.3298Z" fill="#78B832"/>
<path d="M30.7681 7.16207C31.0913 7.40662 31.5517 7.34273 31.7963 7.01887L35.6165 1.95682L39.4367 7.01887C39.5806 7.2098 39.8002 7.31041 40.0235 7.31041C40.1777 7.31041 40.3326 7.26268 40.4663 7.16207C40.7894 6.91826 40.854 6.4578 40.6095 6.13395L39.1063 4.14223L40.7571 1.95388L44.5773 7.01593C44.7213 7.20687 44.9408 7.30748 45.1641 7.30748C45.3183 7.30748 45.4733 7.25974 45.6069 7.1584C45.93 6.91459 45.9947 6.45413 45.7501 6.13027L41.3439 0.291992C41.067 -0.0751953 40.4487 -0.0751953 40.1718 0.291992L38.1867 2.92372L36.2032 0.295664C35.9264 -0.0715234 35.308 -0.0715234 35.0312 0.295664L30.6249 6.13395C30.3804 6.4578 30.445 6.91826 30.7681 7.16207Z" fill="#78B832"/>
<path d="M24.8145 44.2751C24.6816 44.4139 24.6016 44.6055 24.6016 44.7965C24.6016 44.9874 24.6823 45.1784 24.8145 45.3179C24.9533 45.4501 25.145 45.5309 25.3359 45.5309C25.5269 45.5309 25.7178 45.4501 25.8573 45.3179C25.9895 45.1784 26.0703 44.9874 26.0703 44.7965C26.0703 44.6055 25.9895 44.4139 25.8573 44.2751C25.5856 44.0034 25.0863 44.0034 24.8145 44.2751Z" fill="#78B832"/>
<path d="M27.752 44.2751C27.6191 44.4139 27.5391 44.5975 27.5391 44.7965C27.5391 44.9874 27.6198 45.1784 27.752 45.3179C27.8908 45.4501 28.0825 45.5309 28.2734 45.5309C28.4644 45.5309 28.6553 45.4501 28.7948 45.3179C28.927 45.1784 29.0078 44.9874 29.0078 44.7965C29.0078 44.5975 28.927 44.4139 28.7948 44.2751C28.5231 44.0034 28.0238 44.0034 27.752 44.2751Z" fill="#78B832"/>
<path d="M30.6895 44.2751C30.5566 44.4139 30.4766 44.5975 30.4766 44.7965C30.4766 44.9874 30.5573 45.1784 30.6895 45.3179C30.8283 45.4501 31.02 45.5309 31.2109 45.5309C31.4019 45.5309 31.5928 45.4501 31.7323 45.3179C31.8645 45.1784 31.9453 44.9874 31.9453 44.7965C31.9453 44.6055 31.8645 44.4139 31.7323 44.2751C31.4606 44.0034 30.9613 44.0034 30.6895 44.2751Z" fill="#78B832"/>
<path d="M33.627 44.2751C33.4941 44.4139 33.4141 44.6055 33.4141 44.7965C33.4141 44.9874 33.4948 45.1784 33.627 45.3179C33.7658 45.4501 33.9575 45.5309 34.1484 45.5309C34.3394 45.5309 34.5303 45.4501 34.6698 45.3179C34.802 45.1784 34.8828 44.9874 34.8828 44.7965C34.8828 44.6055 34.802 44.4139 34.6698 44.2751C34.3981 44.0034 33.8988 44.0034 33.627 44.2751Z" fill="#78B832"/>
<path d="M24.8145 41.3376C24.6816 41.4764 24.6016 41.668 24.6016 41.859C24.6016 42.0499 24.6823 42.2409 24.8145 42.3804C24.9533 42.5126 25.1369 42.5934 25.3359 42.5934C25.5269 42.5934 25.7178 42.5126 25.8573 42.3804C25.9895 42.2409 26.0703 42.0499 26.0703 41.859C26.0703 41.668 25.9895 41.4764 25.8573 41.3376C25.5783 41.0659 25.0863 41.0659 24.8145 41.3376Z" fill="#78B832"/>
<path d="M27.752 41.3376C27.6191 41.4764 27.5391 41.668 27.5391 41.859C27.5391 42.0499 27.6198 42.2409 27.752 42.3804C27.8908 42.5126 28.0825 42.5934 28.2734 42.5934C28.4644 42.5934 28.6553 42.5126 28.7948 42.3804C28.927 42.2409 29.0078 42.0499 29.0078 41.859C29.0078 41.668 28.927 41.4764 28.7948 41.3376C28.5158 41.0659 28.0311 41.0659 27.752 41.3376Z" fill="#78B832"/>
<path d="M30.6895 41.3376C30.5566 41.4764 30.4766 41.668 30.4766 41.859C30.4766 42.0499 30.5573 42.2409 30.6895 42.3804C30.8283 42.5126 31.02 42.5934 31.2109 42.5934C31.4019 42.5934 31.5928 42.5126 31.7323 42.3804C31.8645 42.2409 31.9453 42.0499 31.9453 41.859C31.9453 41.668 31.8645 41.4764 31.7323 41.3376C31.4533 41.0659 30.9686 41.0659 30.6895 41.3376Z" fill="#78B832"/>
<path d="M33.627 41.3376C33.4941 41.4764 33.4141 41.668 33.4141 41.859C33.4141 42.0573 33.4948 42.2409 33.627 42.3804C33.7658 42.5126 33.9575 42.5934 34.1484 42.5934C34.3394 42.5934 34.5303 42.5126 34.6698 42.3804C34.802 42.2409 34.8828 42.0499 34.8828 41.859C34.8828 41.668 34.802 41.4764 34.6698 41.3376C34.3908 41.0659 33.8988 41.0659 33.627 41.3376Z" fill="#78B832"/>
<path d="M14.3207 4.40602C15.0977 4.40602 15.8203 4.05131 16.3542 3.40653C16.6127 3.09369 16.5701 2.63177 16.258 2.37253C15.9459 2.1133 15.4825 2.15809 15.224 2.46873C14.7217 3.07386 13.919 3.07386 13.4167 2.46873C13.159 2.15736 12.6948 2.11256 12.3827 2.37253C12.0706 2.63103 12.0273 3.09369 12.2865 3.40653C12.8212 4.05131 13.5438 4.40602 14.3207 4.40602Z" fill="#78B832"/>
<path d="M15.6199 7.6099C15.3628 7.29779 14.8987 7.25299 14.5859 7.5137C14.2737 7.7722 14.2304 8.23485 14.4897 8.5477C15.0243 9.19248 15.7469 9.54718 16.5239 9.54718C17.3008 9.54718 18.0235 9.19248 18.5574 8.5477C18.8159 8.23485 18.7733 7.77293 18.4612 7.5137C18.149 7.25373 17.6864 7.29853 17.4272 7.6099C16.9248 8.21503 16.1222 8.21503 15.6199 7.6099Z" fill="#78B832"/>
<path d="M17.7268 39.8259C17.4139 39.5667 16.9505 39.6107 16.6928 39.9221C16.1905 40.5272 15.3878 40.5272 14.8855 39.9221C14.6277 39.61 14.1636 39.5659 13.8515 39.8259C13.5394 40.0844 13.496 40.5471 13.7553 40.8599C14.2899 41.5047 15.0125 41.8594 15.7895 41.8594C16.5665 41.8594 17.2891 41.5047 17.823 40.8599C18.0815 40.5471 18.0389 40.0851 17.7268 39.8259Z" fill="#78B832"/>
<path d="M19.6303 36.2502C19.128 36.8553 18.3253 36.8553 17.823 36.2502C17.5652 35.9381 17.1011 35.894 16.789 36.154C16.4769 36.4125 16.4335 36.8752 16.6928 37.188C17.2274 37.8328 17.95 38.1875 18.727 38.1875C19.504 38.1875 20.2266 37.8328 20.7605 37.188C21.019 36.8752 20.9764 36.4133 20.6643 36.154C20.3514 35.8948 19.8888 35.9388 19.6303 36.2502Z" fill="#78B832"/>
<path d="M10.649 32.3128C10.9038 32.3128 11.1388 32.1806 11.2732 31.964C11.4076 31.7473 11.4193 31.4771 11.3055 31.2494L8.36802 25.3744C8.11833 24.8765 7.30391 24.8765 7.05422 25.3744L4.11672 31.2494C4.00289 31.4771 4.01464 31.7473 4.14903 31.964C4.28342 32.1806 4.51916 32.3128 4.77399 32.3128H6.97711V33.7815C6.97711 34.1876 7.30538 34.5159 7.71149 34.5159C8.1176 34.5159 8.44586 34.1876 8.44586 33.7815V32.3128H10.649ZM7.71149 27.3455L9.46077 30.844H5.96221L7.71149 27.3455Z" fill="#78B832"/>
</svg>
