<svg width="49" height="49" viewBox="0 0 49 49" fill="none" xmlns="http://www.w3.org/2000/svg">
<path d="M14.5501 27.3481C14.4322 27.7547 14.6657 28.1796 15.0715 28.2975L15.3134 28.3678V31.1472C15.3134 32.9915 16.1319 34.7196 17.5598 35.8887L24.0163 41.1707C24.1572 41.2863 24.3287 41.3438 24.5009 41.3438C24.6732 41.3438 24.8447 41.2856 24.9848 41.1707L31.4413 35.8887C32.2155 35.2556 32.8085 34.4573 33.1913 33.5661L33.5032 33.6569C33.5744 33.6775 33.6463 33.6875 33.7168 33.6875C34.049 33.6875 34.3545 33.4701 34.4518 33.1355C34.5697 32.7289 34.3362 32.304 33.9304 32.1861L33.6141 32.0941C33.6622 31.7837 33.6884 31.4678 33.6884 31.1479V27.5605C33.6978 27.5609 33.7074 27.5625 33.7168 27.5625C34.049 27.5625 34.3545 27.3451 34.4518 27.0105C34.5697 26.6039 34.3362 26.179 33.9304 26.0611L33.6884 25.9908V21.4355C33.6978 21.4359 33.7074 21.4375 33.7168 21.4375C34.049 21.4375 34.3545 21.2201 34.4518 20.8855C34.5697 20.4789 34.3362 20.054 33.9304 19.9361L33.6884 19.8658V15.3105C33.6978 15.3109 33.7074 15.3125 33.7168 15.3125C34.049 15.3125 34.3545 15.0951 34.4518 14.7605C34.5697 14.3539 34.3362 13.929 33.9304 13.8111L33.6884 13.7408V3.82812C33.6884 3.4055 33.3462 3.0625 32.9228 3.0625C32.4994 3.0625 32.1572 3.4055 32.1572 3.82812V13.2956L16.8447 8.84306V3.82812C16.8447 3.4055 16.5024 3.0625 16.0791 3.0625C15.6557 3.0625 15.3134 3.4055 15.3134 3.82812V8.42245C14.9675 8.40838 14.6496 8.6284 14.5501 8.97312C14.4322 9.37967 14.6657 9.80459 15.0715 9.9225L15.3134 9.99284V14.5476C14.9675 14.5339 14.6496 14.7533 14.5501 15.0981C14.4322 15.5047 14.6657 15.9296 15.0715 16.0475L15.3134 16.1178V20.6724C14.9675 20.6585 14.6496 20.879 14.5501 21.2231C14.4322 21.6297 14.6657 22.0546 15.0715 22.1725L15.3134 22.2428V26.7976C14.9675 26.784 14.6496 27.0034 14.5501 27.3481ZM30.4728 34.7035L24.5009 39.5889L18.5291 34.7035C17.4587 33.8276 16.8447 32.5314 16.8447 31.1479V28.8131L31.7068 33.1345C31.4198 33.7332 31.0023 34.2698 30.4728 34.7035ZM32.1572 14.8905V19.4206L16.8447 14.9682V10.4381L32.1572 14.8905ZM32.1572 21.0155V25.5456L16.8447 21.0932V16.5631L32.1572 21.0155ZM32.1572 27.1405V31.1479C32.1572 31.321 32.1476 31.4926 32.1287 31.6622L16.8447 27.2181V22.6881L32.1572 27.1405Z" fill="#78B832"/>
<path d="M48.2344 28.3289H38.7697C37.6802 28.3289 36.7324 29.1052 36.518 30.174L35.8297 33.6094C35.4806 35.3527 34.5274 36.9299 33.1462 38.0508L25.8582 43.9622C25.0451 44.5563 23.9526 44.5571 23.1709 43.9852L15.853 38.0508C14.4718 36.9299 13.5186 35.352 13.1695 33.6086L12.4812 30.1733C12.2668 29.1045 11.3198 28.3281 10.2295 28.3281H0.765625C0.342234 28.3281 0 28.6711 0 29.0938C0 29.5164 0.342234 29.8594 0.765625 29.8594H10.2295C10.5932 29.8594 10.9086 30.1174 10.9806 30.4742L11.6689 33.9088C12.0877 36.0005 13.2315 37.8931 14.8891 39.239L22.2368 45.1971C22.9098 45.6894 23.6976 45.9375 24.49 45.9375C25.2909 45.9375 26.0971 45.6841 26.7938 45.1757L34.1117 39.2406C35.7692 37.8954 36.9131 36.0027 37.3319 33.9111L38.0202 30.4757C38.0914 30.1189 38.4068 29.8601 38.7705 29.8601H48.2344C48.6578 29.8601 49 29.5171 49 29.0945C49 28.6719 48.6578 28.3289 48.2344 28.3289Z" fill="#78B832"/>
<path d="M7.87828 31.6129C7.7397 31.7583 7.65625 31.9574 7.65625 32.1564C7.65625 32.3547 7.7397 32.5546 7.87828 32.7C8.02298 32.8379 8.21439 32.9221 8.42188 32.9221C8.62094 32.9221 8.82 32.8371 8.96547 32.7C9.10328 32.5546 9.1875 32.3555 9.1875 32.1564C9.1875 31.9566 9.10328 31.7576 8.96547 31.6129C8.68219 31.3296 8.16156 31.3296 7.87828 31.6129Z" fill="#78B832"/>
<path d="M7.87828 34.6754C7.7397 34.8208 7.65625 35.0199 7.65625 35.2189C7.65625 35.4172 7.7397 35.6171 7.87828 35.7625C8.02298 35.9004 8.21439 35.9846 8.42188 35.9846C8.62094 35.9846 8.82 35.8996 8.96547 35.7625C9.10328 35.6171 9.1875 35.418 9.1875 35.2189C9.1875 35.0191 9.10328 34.8201 8.96547 34.6754C8.67453 34.3921 8.16156 34.3921 7.87828 34.6754Z" fill="#78B832"/>
<path d="M7.87828 37.7379C7.7397 37.8833 7.65625 38.0824 7.65625 38.2814C7.65625 38.4797 7.7397 38.6796 7.87828 38.825C8.02298 38.9629 8.21439 39.0471 8.42188 39.0471C8.62094 39.0471 8.82 38.9621 8.96547 38.825C9.10328 38.6796 9.1875 38.4805 9.1875 38.2814C9.1875 38.0816 9.10328 37.8826 8.96547 37.7379C8.67453 37.4546 8.16156 37.4546 7.87828 37.7379Z" fill="#78B832"/>
<path d="M7.87828 40.8004C7.7397 40.9458 7.65625 41.1449 7.65625 41.3439C7.65625 41.5422 7.7397 41.7421 7.87828 41.8875C8.02298 42.0254 8.22281 42.1096 8.42188 42.1096C8.62094 42.1096 8.82 42.0246 8.96547 41.8875C9.10328 41.7421 9.1875 41.543 9.1875 41.3439C9.1875 41.1441 9.10328 40.9451 8.96547 40.8004C8.67453 40.5171 8.16156 40.5171 7.87828 40.8004Z" fill="#78B832"/>
<path d="M10.9408 40.8004C10.8022 40.9458 10.7188 41.1449 10.7188 41.3439C10.7188 41.5422 10.8022 41.7421 10.9408 41.8799C11.0786 42.0254 11.2769 42.1096 11.4844 42.1096C11.6911 42.1096 11.8825 42.0246 12.028 41.8875C12.1658 41.7421 12.25 41.543 12.25 41.3439C12.25 41.1441 12.1658 40.9451 12.028 40.8004C11.7447 40.5171 11.2241 40.5171 10.9408 40.8004Z" fill="#78B832"/>
<path d="M4.81578 31.6129C4.6772 31.7583 4.59375 31.9574 4.59375 32.1564C4.59375 32.3632 4.6772 32.5546 4.81578 32.7C4.96048 32.8379 5.16031 32.9221 5.35938 32.9221C5.55844 32.9221 5.7575 32.8371 5.90297 32.7C6.04078 32.5546 6.125 32.3632 6.125 32.1564C6.125 31.9566 6.04078 31.7576 5.90297 31.6129C5.61203 31.3296 5.10672 31.3296 4.81578 31.6129Z" fill="#78B832"/>
<path d="M4.81578 34.6754C4.6772 34.8208 4.59375 35.0199 4.59375 35.2189C4.59375 35.4172 4.6772 35.6171 4.81578 35.7625C4.96048 35.9004 5.16031 35.9846 5.35938 35.9846C5.55844 35.9846 5.7575 35.8996 5.90297 35.7625C6.04078 35.6171 6.125 35.418 6.125 35.2189C6.125 35.0191 6.04078 34.8201 5.90297 34.6754C5.61203 34.3921 5.10672 34.3921 4.81578 34.6754Z" fill="#78B832"/>
<path d="M4.81578 37.7379C4.6772 37.8833 4.59375 38.0824 4.59375 38.2814C4.59375 38.4797 4.6772 38.6796 4.81578 38.825C4.96048 38.9629 5.16031 39.0471 5.35938 39.0471C5.55844 39.0471 5.7575 38.9621 5.90297 38.825C6.04078 38.6796 6.125 38.4805 6.125 38.2814C6.125 38.0816 6.04078 37.8826 5.90297 37.7379C5.61203 37.4546 5.10672 37.4546 4.81578 37.7379Z" fill="#78B832"/>
<path d="M4.81578 40.8004C4.6772 40.9458 4.59375 41.1449 4.59375 41.3439C4.59375 41.5422 4.6772 41.7421 4.81578 41.8875C4.96048 42.0254 5.15189 42.1096 5.35938 42.1096C5.56609 42.1096 5.7575 42.0246 5.90297 41.8875C6.04078 41.7421 6.125 41.543 6.125 41.3439C6.125 41.1441 6.04078 40.9451 5.90297 40.8004C5.61203 40.5171 5.10672 40.5171 4.81578 40.8004Z" fill="#78B832"/>
<path d="M1.75328 31.6129C1.6147 31.7583 1.53125 31.9574 1.53125 32.1564C1.53125 32.3547 1.6147 32.5546 1.75328 32.7C1.89798 32.8379 2.09781 32.9221 2.29688 32.9221C2.49594 32.9221 2.695 32.8371 2.84047 32.7C2.97828 32.5546 3.0625 32.3555 3.0625 32.1564C3.0625 31.9566 2.97828 31.7576 2.84047 31.6129C2.55719 31.3296 2.03656 31.3296 1.75328 31.6129Z" fill="#78B832"/>
<path d="M1.75328 37.7379C1.6147 37.8833 1.53125 38.0824 1.53125 38.2814C1.53125 38.4797 1.6147 38.6796 1.75328 38.825C1.89798 38.9629 2.09781 39.0471 2.29688 39.0471C2.49594 39.0471 2.695 38.9621 2.84047 38.825C2.97828 38.6796 3.0625 38.4805 3.0625 38.2814C3.0625 38.0816 2.97828 37.8826 2.84047 37.7379C2.55719 37.4546 2.04422 37.4546 1.75328 37.7379Z" fill="#78B832"/>
<path d="M7.87828 43.8629C7.7397 44.0083 7.65625 44.2074 7.65625 44.4064C7.65625 44.6047 7.7397 44.8046 7.87828 44.95C8.02298 45.0879 8.21439 45.1721 8.42188 45.1721C8.62094 45.1721 8.82 45.0871 8.96547 44.95C9.10328 44.8046 9.1875 44.6055 9.1875 44.4064C9.1875 44.2066 9.10328 44.0076 8.96547 43.8629C8.67453 43.5796 8.16156 43.5796 7.87828 43.8629Z" fill="#78B832"/>
<path d="M10.9408 43.8629C10.8022 44.0083 10.7188 44.2074 10.7188 44.4064C10.7188 44.6047 10.8022 44.8046 10.9408 44.95C11.0855 45.0879 11.2769 45.1721 11.4844 45.1721C11.6834 45.1721 11.8825 45.0871 12.028 44.95C12.1658 44.8046 12.25 44.6055 12.25 44.4064C12.25 44.2066 12.1658 44.0076 12.028 43.8629C11.7447 43.5796 11.2241 43.5796 10.9408 43.8629Z" fill="#78B832"/>
<path d="M4.81578 43.8629C4.6772 44.0083 4.59375 44.2074 4.59375 44.4064C4.59375 44.6047 4.6772 44.8046 4.81578 44.95C4.96048 45.0879 5.15189 45.1721 5.35938 45.1721C5.56609 45.1721 5.7575 45.0871 5.90297 44.95C6.04078 44.8046 6.125 44.6055 6.125 44.4064C6.125 44.2066 6.04078 44.0076 5.90297 43.8629C5.61203 43.5796 5.10672 43.5796 4.81578 43.8629Z" fill="#78B832"/>
<path d="M1.75328 43.8629C1.6147 44.0083 1.53125 44.2074 1.53125 44.4064C1.53125 44.6047 1.6147 44.8046 1.75328 44.95C1.89798 45.0879 2.09781 45.1721 2.29688 45.1721C2.49594 45.1721 2.695 45.0871 2.84047 44.95C2.97828 44.8046 3.0625 44.6055 3.0625 44.4064C3.0625 44.2066 2.97828 44.0076 2.84047 43.8629C2.55719 43.5796 2.04422 43.5796 1.75328 43.8629Z" fill="#78B832"/>
<path d="M14.0033 43.8629C13.8647 44.0083 13.7812 44.2074 13.7812 44.4064C13.7812 44.6047 13.8647 44.8046 14.0033 44.95C14.148 45.0879 14.3478 45.1721 14.5469 45.1721C14.7459 45.1721 14.945 45.0871 15.0905 44.95C15.2283 44.8046 15.3125 44.6055 15.3125 44.4064C15.3125 44.2066 15.2283 44.0076 15.0905 43.8629C14.7995 43.5796 14.2866 43.5796 14.0033 43.8629Z" fill="#78B832"/>
<path d="M40.0345 31.6129C39.896 31.7583 39.8125 31.9574 39.8125 32.1564C39.8125 32.3632 39.896 32.5546 40.0345 32.7C40.1792 32.8379 40.3706 32.9221 40.5781 32.9221C40.7772 32.9221 40.9762 32.8371 41.1217 32.7C41.2595 32.5546 41.3438 32.3555 41.3438 32.1564C41.3438 31.9566 41.2595 31.7576 41.1217 31.6129C40.8308 31.3296 40.3178 31.3296 40.0345 31.6129Z" fill="#78B832"/>
<path d="M40.0345 34.6754C39.896 34.8208 39.8125 35.0199 39.8125 35.2189C39.8125 35.4172 39.896 35.6171 40.0345 35.7625C40.1792 35.9004 40.3706 35.9846 40.5781 35.9846C40.7772 35.9846 40.9762 35.8996 41.1217 35.7625C41.2595 35.6171 41.3438 35.418 41.3438 35.2189C41.3438 35.0191 41.2595 34.8201 41.1217 34.6754C40.8308 34.3921 40.3178 34.3921 40.0345 34.6754Z" fill="#78B832"/>
<path d="M40.0345 37.7379C39.896 37.8833 39.8125 38.0824 39.8125 38.2814C39.8125 38.4797 39.896 38.6796 40.0345 38.825C40.1792 38.9629 40.3706 39.0471 40.5781 39.0471C40.7772 39.0471 40.9762 38.9621 41.1217 38.825C41.2595 38.6796 41.3438 38.4805 41.3438 38.2814C41.3438 38.0816 41.2595 37.8826 41.1217 37.7379C40.8308 37.4546 40.3178 37.4546 40.0345 37.7379Z" fill="#78B832"/>
<path d="M40.0345 40.8004C39.896 40.9458 39.8125 41.1449 39.8125 41.3439C39.8125 41.5507 39.896 41.7421 40.0345 41.8799C40.1792 42.0254 40.3706 42.1096 40.5781 42.1096C40.7772 42.1096 40.9762 42.0246 41.1217 41.8875C41.2595 41.7421 41.3438 41.543 41.3438 41.3439C41.3438 41.1441 41.2595 40.9451 41.1217 40.8004C40.8308 40.5171 40.3178 40.5171 40.0345 40.8004Z" fill="#78B832"/>
<path d="M36.972 40.8004C36.8335 40.9458 36.75 41.1449 36.75 41.3439C36.75 41.5507 36.8335 41.7421 36.972 41.8875C37.1167 42.0254 37.3166 42.1096 37.5156 42.1096C37.7147 42.1096 37.9137 42.0246 38.0592 41.8875C38.197 41.7421 38.2812 41.543 38.2812 41.3439C38.2812 41.1441 38.197 40.9451 38.0592 40.8004C37.7759 40.5171 37.263 40.5171 36.972 40.8004Z" fill="#78B832"/>
<path d="M43.097 31.6129C42.9585 31.7583 42.875 31.9574 42.875 32.1564C42.875 32.3547 42.9585 32.5546 43.097 32.7C43.2417 32.8379 43.4331 32.9221 43.6406 32.9221C43.8397 32.9221 44.0387 32.8371 44.1842 32.7C44.322 32.5546 44.4062 32.3555 44.4062 32.1564C44.4062 31.9566 44.322 31.7576 44.1842 31.6129C43.9009 31.3296 43.3803 31.3296 43.097 31.6129Z" fill="#78B832"/>
<path d="M43.097 34.6754C42.9585 34.8208 42.875 35.0199 42.875 35.2189C42.875 35.4172 42.9585 35.6171 43.097 35.7625C43.2417 35.9004 43.4331 35.9846 43.6406 35.9846C43.8397 35.9846 44.0387 35.8996 44.1842 35.7625C44.322 35.6171 44.4062 35.418 44.4062 35.2189C44.4062 35.0191 44.322 34.8201 44.1842 34.6754C43.9009 34.3921 43.3803 34.3921 43.097 34.6754Z" fill="#78B832"/>
<path d="M43.097 37.7379C42.9585 37.8833 42.875 38.0824 42.875 38.2814C42.875 38.4797 42.9585 38.6796 43.097 38.825C43.2417 38.9629 43.4416 39.0471 43.6406 39.0471C43.8397 39.0471 44.0387 38.9621 44.1842 38.825C44.322 38.6796 44.4062 38.4805 44.4062 38.2814C44.4062 38.0816 44.322 37.8826 44.1842 37.7379C43.9009 37.4546 43.3803 37.4546 43.097 37.7379Z" fill="#78B832"/>
<path d="M43.097 40.8004C42.9585 40.9458 42.875 41.1449 42.875 41.3439C42.875 41.5422 42.9585 41.7421 43.097 41.8875C43.2417 42.0254 43.4331 42.1096 43.6406 42.1096C43.8397 42.1096 44.0387 42.0246 44.1842 41.8875C44.322 41.7421 44.4062 41.543 44.4062 41.3439C44.4062 41.1441 44.322 40.9451 44.1842 40.8004C43.8933 40.5171 43.3803 40.5171 43.097 40.8004Z" fill="#78B832"/>
<path d="M46.1595 31.6129C46.021 31.7583 45.9375 31.9497 45.9375 32.1564C45.9375 32.3632 46.021 32.5615 46.1595 32.7C46.3042 32.8379 46.5041 32.9221 46.7031 32.9221C46.9022 32.9221 47.1012 32.8371 47.2467 32.7C47.3845 32.5546 47.4688 32.3555 47.4688 32.1564C47.4688 31.9566 47.3845 31.7576 47.2467 31.6129C46.9558 31.3296 46.4428 31.3296 46.1595 31.6129Z" fill="#78B832"/>
<path d="M46.1595 37.7379C46.021 37.8757 45.9375 38.0747 45.9375 38.2814C45.9375 38.4882 46.021 38.6865 46.1595 38.825C46.3042 38.9629 46.5041 39.0471 46.7031 39.0471C46.9022 39.0471 47.1012 38.9621 47.2467 38.825C47.3845 38.6796 47.4688 38.4805 47.4688 38.2814C47.4688 38.0816 47.3845 37.8826 47.2467 37.7379C46.9558 37.4546 46.4428 37.4546 46.1595 37.7379Z" fill="#78B832"/>
<path d="M40.0345 43.8629C39.896 44.0083 39.8125 44.2074 39.8125 44.4064C39.8125 44.6047 39.896 44.8046 40.0345 44.95C40.1792 45.0879 40.3706 45.1721 40.5781 45.1721C40.7772 45.1721 40.9762 45.0871 41.1217 44.95C41.2595 44.8046 41.3438 44.6055 41.3438 44.4064C41.3438 44.2066 41.2595 44.0076 41.1217 43.8629C40.8308 43.5796 40.3178 43.5796 40.0345 43.8629Z" fill="#78B832"/>
<path d="M36.972 43.8629C36.8335 44.0084 36.75 44.1998 36.75 44.4065C36.75 44.6132 36.8335 44.8046 36.972 44.9501C37.1167 45.0879 37.3166 45.1721 37.5156 45.1721C37.7147 45.1721 37.9137 45.0872 38.0592 44.9501C38.197 44.8046 38.2812 44.6056 38.2812 44.4065C38.2812 44.2067 38.197 44.0076 38.0592 43.8629C37.7759 43.5873 37.263 43.5796 36.972 43.8629Z" fill="#78B832"/>
<path d="M43.097 43.8629C42.9585 44.0083 42.875 44.2074 42.875 44.4064C42.875 44.6047 42.9585 44.8046 43.097 44.95C43.2417 45.0879 43.4416 45.1721 43.6406 45.1721C43.8397 45.1721 44.0387 45.0871 44.1842 44.95C44.322 44.8046 44.4062 44.6055 44.4062 44.4064C44.4062 44.2066 44.322 44.0076 44.1842 43.8629C43.9009 43.5796 43.3803 43.5796 43.097 43.8629Z" fill="#78B832"/>
<path d="M46.1595 43.8629C46.021 44.0083 45.9375 44.1997 45.9375 44.4064C45.9375 44.6132 46.021 44.8115 46.1595 44.95C46.3042 45.0879 46.5041 45.1721 46.7031 45.1721C46.9022 45.1721 47.1012 45.0871 47.2467 44.95C47.3845 44.8046 47.4688 44.6055 47.4688 44.4064C47.4688 44.2066 47.3845 44.0076 47.2467 43.8629C46.9558 43.5796 46.4428 43.5796 46.1595 43.8629Z" fill="#78B832"/>
<path d="M33.9095 43.8629C33.771 44.0083 33.6875 44.1997 33.6875 44.4064C33.6875 44.6047 33.771 44.8046 33.9095 44.95C34.0542 45.0879 34.2456 45.1721 34.4531 45.1721C34.6598 45.1721 34.8512 45.0871 34.9967 44.95C35.1345 44.8046 35.2188 44.6055 35.2188 44.4064C35.2188 44.199 35.1345 44.0076 34.9967 43.8629C34.7134 43.5796 34.1928 43.5796 33.9095 43.8629Z" fill="#78B832"/>
<path d="M29.8594 9.1875C30.2828 9.1875 30.625 8.8445 30.625 8.42188V6.125C30.625 5.70238 30.2828 5.35938 29.8594 5.35938C29.436 5.35938 29.0938 5.70238 29.0938 6.125V8.42188C29.0938 8.8445 29.436 9.1875 29.8594 9.1875Z" fill="#78B832"/>
<path d="M29.8594 4.59395C30.0584 4.59395 30.2575 4.51662 30.403 4.37191C30.5477 4.22645 30.625 4.02738 30.625 3.82832C30.625 3.62849 30.5408 3.42943 30.403 3.28473C30.1197 3.00145 29.5991 3.00145 29.3158 3.28473C29.1772 3.4302 29.0938 3.6216 29.0938 3.82832C29.0938 4.02662 29.1772 4.22645 29.3158 4.37191C29.4605 4.51738 29.6603 4.59395 29.8594 4.59395Z" fill="#78B832"/>
</svg>
