<svg width="51" height="51" viewBox="0 0 51 51" fill="none" xmlns="http://www.w3.org/2000/svg">
<path d="M13.6 44.2002C13.1301 44.2002 12.75 44.5808 12.75 45.0502V50.1502C12.75 50.6196 13.1302 51.0001 13.6 51.0001C14.0698 51.0001 14.4499 50.6195 14.4499 50.1502V45.0502C14.45 44.5808 14.0698 44.2002 13.6 44.2002Z" fill="#78B832"/>
<path d="M42.6668 38.8232L31.45 35.3539V30.5107C34.3575 27.7194 36.2924 23.2036 36.5247 18.7001H37.4001C38.8063 18.7001 39.9501 17.5563 39.9501 16.1501C39.9501 14.7439 38.8063 13.6001 37.4001 13.6001H37.3648L37.3635 12.6862C37.1511 9.86302 35.9259 7.20016 33.9129 5.18726C32.5033 3.77848 30.7804 2.75629 28.9 2.19838V1.70013C28.8999 0.76241 28.1371 0 27.2 0H23.8C22.8629 0 22.1 0.76241 22.1 1.70003V2.20286C17.376 3.60227 14.0097 7.73367 13.6423 12.75V13.6H13.5999C12.1937 13.6 11.0499 14.7438 11.0499 16.15C11.0499 17.5562 12.1937 18.7 13.5999 18.7H14.4753C14.7075 23.2028 16.642 27.7178 19.55 30.5103V35.3538L8.31486 38.8294C5.88359 39.6437 4.25 41.9111 4.25 44.4719V50.15C4.25 50.6195 4.63021 51 5.09997 51C5.56972 51 5.94993 50.6194 5.94993 50.15V44.4719C5.94993 42.6433 7.11706 41.0233 8.83611 40.4477L16.3337 38.1285C18.5736 40.9644 21.6367 43.0508 25.2501 44.1623C25.3315 44.1876 25.4153 44.2001 25.5 44.2001C25.5846 44.2001 25.6685 44.1876 25.7498 44.1623C29.3632 43.0508 32.4263 40.9643 34.6663 38.1283L42.1455 40.4414C43.8829 41.0233 45.0499 42.6432 45.0499 44.4718V50.1499C45.0499 50.6194 45.4301 50.9999 45.8999 50.9999C46.3697 50.9999 46.7498 50.6193 46.7498 50.1499V44.4718C46.7499 41.911 45.1163 39.6437 42.6668 38.8232ZM22.1 3.98766V7.15693C22.1 7.62639 22.4802 8.0069 22.95 8.0069C23.4198 8.0069 23.7999 7.62629 23.7999 7.15693V1.70003H27.1999V7.15693C27.1999 7.62639 27.5801 8.0069 28.0499 8.0069C28.5197 8.0069 28.8998 7.62629 28.8998 7.15693V3.99882C30.3195 4.50075 31.6252 5.3047 32.7107 6.38954C34.4356 8.11488 35.4865 10.3963 35.6658 12.75V13.6H15.341L15.3398 12.8123C15.6399 8.73833 18.309 5.31715 22.1 3.98766ZM15.2967 17H13.6C13.1311 17 12.7501 16.6186 12.7501 16.1501C12.7501 15.6815 13.1311 15.3001 13.6 15.3001H37.4C37.869 15.3001 38.25 15.6815 38.25 16.1501C38.25 16.6186 37.869 17 37.4 17H35.7034H35.7H15.3H15.2967ZM16.1773 18.7H34.8226C34.5801 22.8382 32.7129 27.0992 30.0322 29.5171C27.2149 32.0464 23.7834 32.0451 20.9694 29.5183C18.2872 27.0993 16.4199 22.8382 16.1773 18.7ZM25.5 42.4585C22.5459 41.5026 20.0058 39.8322 18.0758 37.5896L20.6515 36.7928C21.0076 36.6824 21.2499 36.3532 21.2499 35.9806V31.8543C22.5987 32.7039 24.0429 33.1501 25.5 33.1501C26.9569 33.1501 28.4007 32.7039 29.75 31.8542V35.9807C29.75 36.3534 29.9923 36.6825 30.3485 36.7929L32.9242 37.5896C30.9941 39.8321 28.4542 41.5026 25.5 42.4585Z" fill="#78B832"/>
<path d="M17.0004 44.2002C16.5305 44.2002 16.1504 44.5808 16.1504 45.0502V50.1502C16.1504 50.6196 16.5306 51.0001 17.0004 51.0001C17.4702 51.0001 17.8503 50.6195 17.8503 50.1502V45.0502C17.8503 44.5808 17.4701 44.2002 17.0004 44.2002Z" fill="#78B832"/>
<path d="M34.0004 44.2002C33.5305 44.2002 33.1504 44.5808 33.1504 45.0502V50.1502C33.1504 50.6196 33.5306 51.0001 34.0004 51.0001C34.4702 51.0001 34.8503 50.6195 34.8503 50.1502V45.0502C34.8504 44.5808 34.4702 44.2002 34.0004 44.2002Z" fill="#78B832"/>
<path d="M37.4008 44.2002C36.9309 44.2002 36.5508 44.5808 36.5508 45.0502V50.1502C36.5508 50.6196 36.931 51.0001 37.4008 51.0001C37.8706 51.0001 38.2507 50.6195 38.2507 50.1502V45.0502C38.2507 44.5808 37.8705 44.2002 37.4008 44.2002Z" fill="#78B832"/>
</svg>
