<svg width="50" height="50" viewBox="0 0 50 50" fill="none" xmlns="http://www.w3.org/2000/svg">
<g clip-path="url(#clip0_57_296)">
<path d="M11.7195 22.6562V20.6844C11.9523 20.6023 12.1797 20.5086 12.4016 20.4023L13.7953 21.7953C14.1008 22.1008 14.5945 22.1008 14.9 21.7953L17.1094 19.5859C17.4148 19.2805 17.4148 18.7867 17.1094 18.4812L15.7164 17.0875C15.8219 16.8656 15.9164 16.6383 15.9984 16.4055H17.9688C18.4008 16.4055 18.75 16.0563 18.75 15.6242V12.4992C18.75 12.0672 18.4008 11.718 17.9688 11.718H15.9977C15.9156 11.4852 15.8219 11.2578 15.7156 11.0359L17.1086 9.64219C17.4141 9.33672 17.4141 8.84297 17.1086 8.5375L14.8992 6.32813C14.5937 6.02266 14.1 6.02266 13.7945 6.32813L12.4008 7.72109C12.1789 7.61563 11.9516 7.52109 11.7188 7.43906V5.46875C11.7188 5.03672 11.3695 4.6875 10.9375 4.6875H7.8125C7.38047 4.6875 7.03125 5.03672 7.03125 5.46875V7.43906C6.79844 7.52188 6.57109 7.61562 6.34844 7.72187L4.95469 6.32891C4.64922 6.02344 4.15547 6.02344 3.85 6.32891L1.64062 8.53828C1.33516 8.84375 1.33516 9.3375 1.64062 9.64297L3.03359 11.0367C2.92812 11.2586 2.83359 11.4859 2.75156 11.7188H0.78125C0.349219 11.7188 0 12.068 0 12.5V15.625C0 16.057 0.349219 16.4062 0.78125 16.4062H2.75156C2.83438 16.6391 2.92813 16.8664 3.03437 17.0891L1.64141 18.4828C1.33594 18.7883 1.33594 19.282 1.64141 19.5875L3.85078 21.7969C4.15625 22.1023 4.65 22.1023 4.95547 21.7969L6.34922 20.4039C6.57109 20.5094 6.79844 20.6039 7.03125 20.6859V22.6562C7.03125 23.0883 7.38047 23.4375 7.8125 23.4375H10.9375C11.3695 23.4375 11.7188 23.0883 11.7195 22.6562ZM10.1562 20.1078V21.875H8.59453V20.1086C8.59453 19.7523 8.35313 19.4414 8.00859 19.3523C7.51328 19.2242 7.04062 19.0281 6.60312 18.7695C6.29687 18.5898 5.90547 18.6383 5.65312 18.8898L4.40313 20.1398L3.29844 19.0352L4.54844 17.7852C4.8 17.5336 4.84922 17.1422 4.66875 16.8352C4.41016 16.3977 4.21406 15.925 4.08594 15.4297C3.99688 15.0852 3.68594 14.8438 3.32969 14.8438H1.5625V13.2812H3.32969C3.68594 13.2812 3.99609 13.0398 4.08516 12.6961C4.21328 12.2008 4.40937 11.7281 4.66797 11.2906C4.84922 10.9836 4.79922 10.5922 4.54766 10.3406L3.29766 9.09062L4.40234 7.98594L5.65234 9.23594C5.90469 9.4875 6.29609 9.53594 6.60234 9.35625C7.03984 9.09766 7.5125 8.90156 8.00781 8.77344C8.35234 8.68437 8.59375 8.37344 8.59375 8.01719V6.25H10.1562V8.01719C10.1562 8.37344 10.3977 8.68359 10.7414 8.77266C11.2367 8.90078 11.7094 9.09688 12.1469 9.35547C12.4547 9.53594 12.8461 9.48672 13.0969 9.23516L14.3469 7.98516L15.4516 9.08984L14.2016 10.3398C13.95 10.5914 13.9008 10.9828 14.0813 11.2898C14.3398 11.7273 14.5352 12.2 14.6625 12.6945C14.7523 13.0398 15.0633 13.2812 15.4195 13.2812H17.1875V14.8438H15.4195C15.0633 14.8438 14.7523 15.0852 14.6633 15.4297C14.5359 15.9242 14.3406 16.3969 14.082 16.8344C13.9008 17.1414 13.9508 17.5328 14.2023 17.7844L15.4523 19.0344L14.3477 20.1391L13.0977 18.8891C12.8469 18.6375 12.4555 18.5898 12.1477 18.7688C11.7102 19.0273 11.2375 19.2234 10.7422 19.3516C10.3977 19.4406 10.1562 19.7516 10.1562 20.1078Z" fill="#78B832"/>
<path d="M37.5 32.8125H33.8727C33.7062 32.2984 33.5 31.7992 33.2555 31.3211L35.8195 28.7562C36.125 28.4508 36.125 27.957 35.8195 27.6516L32.5047 24.3367C32.1992 24.0312 31.7055 24.0312 31.4 24.3367L28.8352 26.9008C28.357 26.6562 27.8578 26.45 27.3438 26.2836V22.6562C27.3438 22.2242 26.9945 21.875 26.5625 21.875H21.875C21.443 21.875 21.0938 22.2242 21.0938 22.6562V26.2836C20.5797 26.45 20.0805 26.6562 19.6023 26.9008L17.0375 24.3367C16.732 24.0312 16.2383 24.0312 15.9328 24.3367L12.618 27.6516C12.3125 27.957 12.3125 28.4508 12.618 28.7562L15.182 31.3211C14.9375 31.7992 14.7312 32.2984 14.5648 32.8125H10.9375C10.5055 32.8125 10.1562 33.1617 10.1562 33.5938V38.2812C10.1562 38.7133 10.5055 39.0625 10.9375 39.0625H14.5648C14.7312 39.5766 14.9375 40.0758 15.182 40.5539L12.618 43.1188C12.3125 43.4242 12.3125 43.918 12.618 44.2234L15.9328 47.5383C16.2383 47.8438 16.732 47.8438 17.0375 47.5383L19.6023 44.9742C20.0805 45.2188 20.5797 45.425 21.0938 45.5914V49.2188C21.0938 49.6508 21.443 50 21.875 50H26.5625C26.9945 50 27.3438 49.6508 27.3438 49.2188V45.5914C27.8578 45.425 28.357 45.2188 28.8352 44.9742L31.4 47.5383C31.7055 47.8438 32.1992 47.8438 32.5047 47.5383L35.8195 44.2234C36.125 43.918 36.125 43.4242 35.8195 43.1188L33.2555 40.5539C33.5 40.0758 33.7062 39.5766 33.8727 39.0625H37.5C37.932 39.0625 38.2812 38.7133 38.2812 38.2812V33.5938C38.2812 33.1617 37.932 32.8125 37.5 32.8125ZM36.7188 37.5H33.2859C32.9297 37.5 32.6187 37.7414 32.5297 38.0852C32.3289 38.8641 32.0219 39.607 31.6156 40.2938C31.4344 40.6008 31.4844 40.9922 31.7359 41.2437L34.1625 43.6703L31.9523 45.8805L29.5258 43.4539C29.275 43.2031 28.8828 43.1547 28.5758 43.3336C27.8891 43.7398 27.1461 44.0469 26.3672 44.2477C26.0227 44.3375 25.7812 44.6484 25.7812 45.0047V48.4375H22.6562V45.0047C22.6562 44.6484 22.4148 44.3375 22.0711 44.2484C21.2922 44.0477 20.5492 43.7406 19.8625 43.3344C19.5555 43.1555 19.1648 43.2039 18.9125 43.4547L16.4859 45.8813L14.2758 43.6711L16.7023 41.2445C16.9539 40.993 17.0031 40.6016 16.8227 40.2945C16.4164 39.6078 16.1094 38.8648 15.9086 38.0859C15.8188 37.7414 15.5078 37.5 15.1516 37.5H11.7188V34.375H15.1516C15.5078 34.375 15.8187 34.1336 15.9078 33.7898C16.1086 33.0109 16.4156 32.268 16.8219 31.5813C17.0031 31.2742 16.9531 30.8828 16.7016 30.6313L14.275 28.2047L16.4852 25.9945L18.9117 28.4211C19.1641 28.6727 19.5547 28.7211 19.8617 28.5414C20.5484 28.1352 21.2914 27.8281 22.0703 27.6273C22.4148 27.5375 22.6562 27.2266 22.6562 26.8703V23.4375H25.7812V26.8703C25.7812 27.2266 26.0227 27.5375 26.3664 27.6266C27.1453 27.8273 27.8883 28.1344 28.575 28.5406C28.882 28.7211 29.2742 28.6719 29.525 28.4203L31.9516 25.9937L34.1617 28.2039L31.7352 30.6305C31.4836 30.882 31.4344 31.2734 31.6148 31.5805C32.0211 32.2672 32.3281 33.0102 32.5289 33.7891C32.6188 34.1336 32.9297 34.375 33.2859 34.375H36.7188V37.5Z" fill="#78B832"/>
<path d="M49.2188 8.59375H46.5109C46.3734 8.15781 46.1977 7.73516 45.9852 7.32891L47.9008 5.41328C48.2062 5.10781 48.2062 4.61406 47.9008 4.30859L45.6914 2.09922C45.3859 1.79375 44.8922 1.79375 44.5867 2.09922L42.6711 4.01484C42.2656 3.80156 41.843 3.62656 41.4062 3.48906V0.78125C41.4062 0.349219 41.057 0 40.625 0H37.5C37.068 0 36.7188 0.349219 36.7188 0.78125V3.48906C36.282 3.62656 35.8594 3.80156 35.4539 4.01484L33.5383 2.09922C33.2328 1.79375 32.7391 1.79375 32.4336 2.09922L30.2242 4.30859C29.9188 4.61406 29.9188 5.10781 30.2242 5.41328L32.1398 7.32891C31.9266 7.73437 31.7516 8.15703 31.6141 8.59375H28.9062C28.4742 8.59375 28.125 8.94297 28.125 9.375V12.5C28.125 12.932 28.4742 13.2812 28.9062 13.2812H31.6141C31.7516 13.7164 31.9273 14.1391 32.1398 14.5461L30.2242 16.4617C29.9188 16.7672 29.9188 17.2609 30.2242 17.5664L32.4336 19.7758C32.7391 20.0812 33.2328 20.0812 33.5383 19.7758L35.4539 17.8602C35.8594 18.0734 36.282 18.2484 36.7188 18.3859V21.0938C36.7188 21.5258 37.068 21.875 37.5 21.875H40.625C41.057 21.875 41.4062 21.5258 41.4062 21.0938V18.3859C41.8422 18.2484 42.2648 18.0727 42.6711 17.8602L44.5867 19.7758C44.8922 20.0812 45.3859 20.0812 45.6914 19.7758L47.9008 17.5664C48.2062 17.2609 48.2062 16.7672 47.9008 16.4617L45.9852 14.5461C46.1984 14.1398 46.3734 13.7172 46.5109 13.2812H49.2188C49.6508 13.2812 50 12.932 50 12.5V9.375C50 8.94297 49.6508 8.59375 49.2188 8.59375ZM48.4375 11.7188H45.9141C45.5492 11.7188 45.2328 11.9711 45.1516 12.3273C44.9953 13.0109 44.725 13.6617 44.3484 14.2609C44.1547 14.5687 44.2 14.9711 44.4578 15.2289L46.2438 17.0148L45.1391 18.1195L43.3531 16.3336C43.0945 16.075 42.6922 16.0305 42.3844 16.225C41.7867 16.6008 41.1367 16.8711 40.4516 17.0273C40.0961 17.1086 39.8438 17.4242 39.8438 17.7891V20.3125H38.2812V17.7891C38.2812 17.4242 38.0289 17.1078 37.6727 17.0266C36.9875 16.8703 36.3375 16.6 35.7398 16.2242C35.4328 16.0297 35.0297 16.0742 34.7711 16.3328L32.9852 18.1187L31.8805 17.0141L33.6664 15.2281C33.9242 14.9703 33.9695 14.5688 33.7758 14.2602C33.3992 13.6609 33.1289 13.0102 32.9727 12.3266C32.8914 11.9711 32.5758 11.7188 32.2109 11.7188H29.6875V10.1562H32.2109C32.5758 10.1562 32.8922 9.90391 32.9734 9.54766C33.1297 8.8625 33.4 8.2125 33.7758 7.61484C33.9703 7.30625 33.925 6.90391 33.6672 6.64609L31.8812 4.86016L32.9859 3.75547L34.7719 5.54141C35.0305 5.8 35.4328 5.84453 35.7406 5.65C36.3383 5.27422 36.9883 5.00391 37.6734 4.84766C38.0289 4.76641 38.2812 4.45078 38.2812 4.08594V1.5625H39.8438V4.08594C39.8438 4.45078 40.0961 4.76719 40.4523 4.84844C41.1375 5.00469 41.7875 5.275 42.3852 5.65078C42.6922 5.84531 43.0953 5.80078 43.3539 5.54219L45.1398 3.75625L46.2445 4.86094L44.4586 6.64688C44.2008 6.90469 44.1555 7.30625 44.35 7.61562C44.7258 8.21328 44.9961 8.86328 45.1523 9.54844C45.2336 9.90391 45.5492 10.1562 45.9141 10.1562H48.4375V11.7188Z" fill="#78B832"/>
<path d="M39.0625 6.25C36.4773 6.25 34.375 8.35234 34.375 10.9375C34.375 13.5227 36.4773 15.625 39.0625 15.625C41.6477 15.625 43.75 13.5227 43.75 10.9375C43.75 8.35234 41.6477 6.25 39.0625 6.25ZM39.0625 14.0625C37.3391 14.0625 35.9375 12.6609 35.9375 10.9375C35.9375 9.21406 37.3391 7.8125 39.0625 7.8125C40.7859 7.8125 42.1875 9.21406 42.1875 10.9375C42.1875 12.6609 40.7859 14.0625 39.0625 14.0625Z" fill="#78B832"/>
<path d="M9.375 10.1562C7.22109 10.1562 5.46875 11.9086 5.46875 14.0625C5.46875 16.2164 7.22109 17.9688 9.375 17.9688C11.5289 17.9688 13.2812 16.2164 13.2812 14.0625C13.2812 11.9086 11.5289 10.1562 9.375 10.1562ZM9.375 16.4062C8.08281 16.4062 7.03125 15.3547 7.03125 14.0625C7.03125 12.7703 8.08281 11.7188 9.375 11.7188C10.6672 11.7188 11.7188 12.7703 11.7188 14.0625C11.7188 15.3547 10.6672 16.4062 9.375 16.4062Z" fill="#78B832"/>
<path d="M24.2188 28.9062C20.3414 28.9062 17.1875 32.0602 17.1875 35.9375C17.1875 39.8148 20.3414 42.9688 24.2188 42.9688C28.0961 42.9688 31.25 39.8148 31.25 35.9375C31.25 32.0602 28.0961 28.9062 24.2188 28.9062ZM24.2188 41.4062C21.2039 41.4062 18.75 38.9523 18.75 35.9375C18.75 32.9227 21.2039 30.4688 24.2188 30.4688C27.2336 30.4688 29.6875 32.9227 29.6875 35.9375C29.6875 38.9523 27.2336 41.4062 24.2188 41.4062Z" fill="#78B832"/>
<path d="M20.5391 35.3828C20.3977 35.5305 20.3125 35.7344 20.3125 35.9375C20.3125 36.1484 20.3977 36.3437 20.5391 36.4922C20.6867 36.6328 20.8906 36.7187 21.0938 36.7187C21.2969 36.7187 21.5 36.6328 21.6484 36.4922C21.7891 36.3437 21.875 36.1406 21.875 35.9375C21.875 35.7344 21.7891 35.5305 21.6484 35.3828C21.3516 35.0938 20.8281 35.0938 20.5391 35.3828Z" fill="#78B832"/>
<path d="M23.6641 35.3828C23.5227 35.5305 23.4375 35.7344 23.4375 35.9375C23.4375 36.1484 23.5227 36.3437 23.6641 36.4922C23.8117 36.6328 24.0156 36.7187 24.2188 36.7187C24.4219 36.7187 24.625 36.6328 24.7734 36.4922C24.9141 36.3437 25 36.1406 25 35.9375C25 35.7344 24.9211 35.5305 24.7734 35.3828C24.4766 35.0938 23.9609 35.0938 23.6641 35.3828Z" fill="#78B832"/>
<path d="M26.7891 35.3828C26.6477 35.5305 26.5625 35.7344 26.5625 35.9375C26.5625 36.1484 26.6477 36.3437 26.7891 36.4922C26.9367 36.6328 27.1406 36.7187 27.3438 36.7187C27.5547 36.7187 27.75 36.6328 27.8906 36.4922C28.0391 36.3437 28.125 36.1406 28.125 35.9375C28.125 35.7344 28.0391 35.5305 27.8984 35.3828C27.6094 35.0938 27.0859 35.0938 26.7891 35.3828Z" fill="#78B832"/>
</g>
<defs>
<clipPath id="clip0_57_296">
<rect width="50" height="50" fill="white"/>
</clipPath>
</defs>
</svg>
