<svg width="52" height="52" viewBox="0 0 52 52" fill="none" xmlns="http://www.w3.org/2000/svg">
<path d="M47.125 1.625C44.7134 1.625 42.7069 3.38467 42.319 5.6875H9.68104C9.29307 3.38467 7.2866 1.625 4.875 1.625C2.18644 1.625 0 3.81144 0 6.5V45.5C0 48.1886 2.18644 50.375 4.875 50.375H47.125C49.8136 50.375 52 48.1886 52 45.5V6.5C52 3.81144 49.8136 1.625 47.125 1.625ZM47.125 3.25C48.9174 3.25 50.375 4.70762 50.375 6.5V41.87C49.5119 41.0965 48.3728 40.625 47.125 40.625C45.8772 40.625 44.7381 41.0965 43.875 41.87V6.5C43.875 4.70762 45.3326 3.25 47.125 3.25ZM4.875 3.25C6.66738 3.25 8.125 4.70762 8.125 6.5V41.87C7.26192 41.0965 6.1228 40.625 4.875 40.625C3.6272 40.625 2.48808 41.0965 1.625 41.87V6.5C1.625 4.70762 3.08262 3.25 4.875 3.25ZM47.125 48.75H4.875C3.08262 48.75 1.625 47.2924 1.625 45.5C1.625 43.7076 3.08262 42.25 4.875 42.25C6.66738 42.25 8.125 43.7076 8.125 45.5C8.125 45.9485 8.48819 46.3125 8.9375 46.3125C9.38681 46.3125 9.75 45.9485 9.75 45.5V7.3125H42.25V45.5C42.25 45.9485 42.6132 46.3125 43.0625 46.3125C43.5118 46.3125 43.875 45.9485 43.875 45.5C43.875 43.7076 45.3326 42.25 47.125 42.25C48.9174 42.25 50.375 43.7076 50.375 45.5C50.375 47.2924 48.9174 48.75 47.125 48.75Z" fill="#78B832"/>
<path d="M39 12.1875H35.75V11.375C35.75 10.9265 35.3868 10.5625 34.9375 10.5625C34.4882 10.5625 34.125 10.9265 34.125 11.375V14.625C34.125 15.0735 34.4882 15.4375 34.9375 15.4375C35.3868 15.4375 35.75 15.0735 35.75 14.625V13.8125H38.1875V25.1875H29.25C28.8007 25.1875 28.4375 25.5515 28.4375 26C28.4375 26.4485 28.8007 26.8125 29.25 26.8125H38.1875V38.1875H26.8125V36.5625C26.8125 36.114 26.4493 35.75 26 35.75C25.5507 35.75 25.1875 36.114 25.1875 36.5625V38.1875H13.8125V26.8125H16.25C16.6993 26.8125 17.0625 26.4485 17.0625 26C17.0625 25.5515 16.6993 25.1875 16.25 25.1875H13.8125V13.8125H25.1875V18.6875C25.1875 19.136 25.5507 19.5 26 19.5C26.4493 19.5 26.8125 19.136 26.8125 18.6875V13.8125H29.25V14.625C29.25 15.0735 29.6132 15.4375 30.0625 15.4375C30.5118 15.4375 30.875 15.0735 30.875 14.625V11.375C30.875 10.9265 30.5118 10.5625 30.0625 10.5625C29.6132 10.5625 29.25 10.9265 29.25 11.375V12.1875H13C12.5507 12.1875 12.1875 12.5515 12.1875 13V39C12.1875 39.4485 12.5507 39.8125 13 39.8125H39C39.4493 39.8125 39.8125 39.4485 39.8125 39V13C39.8125 12.5515 39.4493 12.1875 39 12.1875Z" fill="#78B832"/>
<path d="M26 34.125C26.4493 34.125 26.8125 33.761 26.8125 33.3125V21.9375C26.8125 21.489 26.4493 21.125 26 21.125C25.5507 21.125 25.1875 21.489 25.1875 21.9375V25.1875H19.5C19.0507 25.1875 18.6875 25.5515 18.6875 26C18.6875 26.4485 19.0507 26.8125 19.5 26.8125H25.1875V33.3125C25.1875 33.761 25.5507 34.125 26 34.125Z" fill="#78B832"/>
<path d="M22.9856 45.7352C22.8386 45.8896 22.75 46.1009 22.75 46.3121C22.75 46.5234 22.8386 46.7354 22.9856 46.889C23.1392 47.0352 23.3512 47.1246 23.5625 47.1246C23.7737 47.1246 23.985 47.0352 24.1313 46.889C24.2856 46.7346 24.375 46.5234 24.375 46.3121C24.375 46.1009 24.2856 45.8896 24.1394 45.7352C23.8387 45.4346 23.2944 45.4346 22.9856 45.7352Z" fill="#78B832"/>
<path d="M26.2356 45.7352C26.0886 45.8896 26 46.1009 26 46.3121C26 46.5234 26.0886 46.7354 26.2356 46.889C26.3892 47.0352 26.6012 47.1246 26.8125 47.1246C27.0237 47.1246 27.235 47.0352 27.3894 46.889C27.5356 46.7346 27.625 46.5234 27.625 46.3121C27.625 46.1009 27.5356 45.8896 27.3894 45.7352C27.0806 45.4346 26.5363 45.4346 26.2356 45.7352Z" fill="#78B832"/>
<path d="M19.7356 45.7352C19.5886 45.8896 19.5 46.0927 19.5 46.3121C19.5 46.5234 19.5886 46.7354 19.7356 46.889C19.8892 47.0352 20.0923 47.1246 20.3125 47.1246C20.5237 47.1246 20.735 47.0352 20.8894 46.889C21.0356 46.7346 21.125 46.5234 21.125 46.3121C21.125 46.0927 21.0356 45.8896 20.8894 45.7352C20.5887 45.4346 20.0363 45.4346 19.7356 45.7352Z" fill="#78B832"/>
<path d="M29.4856 45.7352C29.3386 45.8896 29.25 46.0927 29.25 46.3121C29.25 46.5234 29.3386 46.7354 29.4856 46.889C29.6392 47.0352 29.8512 47.1246 30.0625 47.1246C30.2737 47.1246 30.485 47.0352 30.6394 46.889C30.7856 46.7346 30.875 46.5234 30.875 46.3121C30.875 46.0927 30.7856 45.8896 30.6394 45.7352C30.3387 45.4346 29.7863 45.4346 29.4856 45.7352Z" fill="#78B832"/>
<path d="M32.7356 45.7352C32.5886 45.8896 32.5 46.1009 32.5 46.3121C32.5 46.5234 32.5886 46.7354 32.7356 46.889C32.8892 47.0352 33.1012 47.1246 33.3125 47.1246C33.5237 47.1246 33.735 47.0352 33.8813 46.889C34.0356 46.7346 34.125 46.5234 34.125 46.3121C34.125 46.0927 34.0356 45.8896 33.8894 45.7352C33.5887 45.4346 33.0363 45.4346 32.7356 45.7352Z" fill="#78B832"/>
</svg>
