<svg width="124" height="23" viewBox="0 0 124 23" fill="none" xmlns="http://www.w3.org/2000/svg">
<path d="M3.50664 17.6857H0V0H3.48193L8.42473 7.32846L13.3675 0H16.8247V17.6857H13.3675V5.58182L9.44624 11.2662H7.49933L3.50664 5.58182V17.6857Z" fill="#78B832"/>
<path d="M21.9878 22.8892C20.9828 22.8892 20.17 22.7211 19.5521 22.3849V19.2763C20.1205 19.6125 20.7356 19.7835 21.4029 19.7835C22.0208 19.7835 22.5343 19.584 22.9489 19.1908C23.3635 18.7948 23.748 18.1508 24.105 17.2561L18.8711 5.07812H22.5727L25.7855 13.3668L28.8308 5.07812H32.4583L26.8345 18.9999C25.7636 21.5928 24.1462 22.8892 21.9878 22.8892Z" fill="#78B832"/>
<path d="M42.9276 6.54224V5.07769H46.3629V16.2185C46.3629 18.3755 45.6654 20.0252 44.2677 21.1706C42.87 22.3161 41.2224 22.8888 39.3249 22.8888C37.3285 22.8888 35.7359 22.5269 34.5523 21.8032V18.5949C35.8347 19.4041 37.3038 19.8087 38.9597 19.8087C39.4622 19.8087 39.9345 19.7545 40.3711 19.6434C40.8077 19.5323 41.2306 19.3556 41.637 19.1134C42.0434 18.8684 42.3592 18.5151 42.5871 18.0506C42.8151 17.5862 42.9276 17.0363 42.9276 16.3952V15.6116C41.9693 16.8083 40.632 17.4067 38.9102 17.4067C37.2544 17.4067 35.8979 16.7998 34.8434 15.5888C33.789 14.3608 33.2617 12.8535 33.2617 11.067C33.2617 9.29754 33.789 7.79878 34.8434 6.56788C35.8979 5.35407 37.2544 4.75001 38.9102 4.75001C40.632 4.74716 41.972 5.34553 42.9276 6.54224ZM39.9098 14.3237C40.5578 14.3237 41.151 14.1642 41.6864 13.8422C42.2219 13.5231 42.6366 13.1099 42.9276 12.6027V9.57107C42.6366 9.06674 42.2219 8.65358 41.6864 8.33446C41.151 8.01533 40.5578 7.85292 39.9098 7.85292C38.9514 7.85292 38.1771 8.16066 37.5839 8.77326C36.9908 9.38872 36.697 10.158 36.697 11.0869C36.697 12.0129 37.0018 12.7823 37.6086 13.3977C38.2182 14.016 38.9844 14.3237 39.9098 14.3237Z" fill="#78B832"/>
<path d="M55.543 18.0136C53.6428 18.0136 52.0446 17.4067 50.7457 16.1957C49.4469 14.9819 48.7988 13.3749 48.7988 11.369C48.7988 9.49983 49.3837 7.9327 50.5508 6.67046C51.7206 5.39111 53.2446 4.75 55.1311 4.75C56.8831 4.75 58.289 5.39965 59.3435 6.69609C60.3979 7.99253 60.9252 9.56821 60.9252 11.4203V12.3548H52.2066C52.3851 13.1982 52.8354 13.845 53.5576 14.3009C54.2798 14.7568 55.186 14.9819 56.2734 14.9819C57.6217 14.9819 58.9206 14.6115 60.17 13.8707V16.7257C59.0799 17.5833 57.5393 18.0136 55.543 18.0136ZM52.2066 10.0811H57.5393C57.5064 9.35736 57.2593 8.75616 56.7979 8.27462C56.3339 7.79309 55.7297 7.55374 54.9828 7.55374C54.2194 7.55374 53.5851 7.78453 53.0826 8.24897C52.5773 8.71056 52.2862 9.32316 52.2066 10.0811Z" fill="#78B832"/>
<path d="M62.748 11.369C62.748 9.49983 63.3824 7.9327 64.6483 6.67046C65.8977 5.39111 67.5124 4.75 69.495 4.75C71.4748 4.75 73.0895 5.39111 74.3417 6.67046C75.6076 7.9498 76.2419 9.51692 76.2419 11.369C76.2419 13.2552 75.6076 14.8394 74.3417 16.1188C73.0758 17.381 71.4584 18.0136 69.495 18.0136C67.5316 18.0136 65.9142 17.3839 64.6483 16.1188C63.3824 14.8394 62.748 13.2552 62.748 11.369ZM66.1339 11.369C66.1339 12.3805 66.4497 13.2239 67.084 13.8963C67.7183 14.5688 68.5201 14.9078 69.495 14.9078C70.4698 14.9078 71.2716 14.5716 71.906 13.8963C72.5403 13.2068 72.8561 12.3634 72.8561 11.369C72.8561 10.3603 72.5403 9.52546 71.906 8.86727C71.2716 8.19483 70.4698 7.85576 69.495 7.85576C68.5201 7.85576 67.7183 8.19198 67.084 8.86727C66.4497 9.52546 66.1339 10.3575 66.1339 11.369Z" fill="#78B832"/>
<path d="M79.8172 17.962C79.2185 17.962 78.7133 17.7483 78.3069 17.3181C77.9005 16.8878 77.6973 16.3607 77.6973 15.7395C77.6973 15.1326 77.9005 14.6198 78.3069 14.1981C78.7133 13.7764 79.2158 13.5684 79.8172 13.5684C80.4021 13.5684 80.9018 13.7792 81.3165 14.1981C81.7284 14.6198 81.9371 15.1326 81.9371 15.7395C81.9371 16.3607 81.7311 16.8878 81.3165 17.3181C80.9018 17.7483 80.4021 17.962 79.8172 17.962Z" fill="#78B832"/>
<path d="M92.1154 4.74609C93.7713 4.74609 95.1333 5.38719 96.207 6.66653C97.2944 7.91168 97.8381 9.48735 97.8381 11.3907C97.8381 13.2598 97.2944 14.8355 96.207 16.1149C95.136 17.3771 93.7713 18.0097 92.1154 18.0097C90.4102 18.0097 89.0811 17.3885 88.1227 16.1405V22.7338H84.6875V5.07376H88.1227V6.61525C89.0317 5.37009 90.3635 4.74609 92.1154 4.74609ZM91.1406 7.85469C90.4925 7.85469 89.8994 8.03135 89.3639 8.38466C88.8285 8.73798 88.4138 9.19388 88.1227 9.7495V13.0319C88.4138 13.5875 88.8285 14.0377 89.3639 14.3825C89.8994 14.7272 90.4925 14.9011 91.1406 14.9011C92.1154 14.9011 92.9008 14.5648 93.5022 13.8895C94.12 13.2 94.4276 12.3652 94.4276 11.3879C94.4276 10.3934 94.12 9.5529 93.5022 8.86051C92.9035 8.19377 92.1154 7.85469 91.1406 7.85469Z" fill="#78B832"/>
<path d="M103.804 17.6859H100.369V5.07768H103.804V7.20042C104.178 6.52799 104.746 5.95526 105.51 5.48228C106.303 4.99504 107.149 4.75 108.041 4.75C108.236 4.75 108.365 4.75856 108.431 4.77565V8.26322C108.107 8.17774 107.75 8.13784 107.36 8.13784C106.564 8.13784 105.839 8.35155 105.18 8.78179C104.524 9.21204 104.065 9.73062 103.804 10.3375V17.6859Z" fill="#78B832"/>
<path d="M109.863 11.369C109.863 9.49983 110.498 7.9327 111.764 6.67046C113.013 5.39111 114.628 4.75 116.61 4.75C118.59 4.75 120.205 5.39111 121.457 6.67046C122.723 7.9498 123.357 9.51692 123.357 11.369C123.357 13.2552 122.723 14.8394 121.457 16.1188C120.191 17.381 118.574 18.0136 116.61 18.0136C114.647 18.0136 113.029 17.3839 111.764 16.1188C110.498 14.8394 109.863 13.2552 109.863 11.369ZM113.249 11.369C113.249 12.3805 113.565 13.2239 114.199 13.8963C114.834 14.5688 115.635 14.9078 116.61 14.9078C117.585 14.9078 118.387 14.5716 119.021 13.8963C119.656 13.2068 119.971 12.3634 119.971 11.369C119.971 10.3603 119.656 9.52546 119.021 8.86727C118.387 8.19483 117.585 7.85576 116.61 7.85576C115.635 7.85576 114.834 8.19198 114.199 8.86727C113.565 9.52546 113.249 10.3575 113.249 11.369Z" fill="#78B832"/>
</svg>
