<svg width="189" height="93" viewBox="0 0 189 93" fill="none" xmlns="http://www.w3.org/2000/svg">
<path d="M68.5066 65.6857H65V48H68.4819L73.4247 55.3285L78.3675 48H81.8247V65.6857H78.3675V53.5818L74.4462 59.2662H72.4993L68.5066 53.5818V65.6857Z" fill="white"/>
<path d="M86.9878 70.8882C85.9828 70.8882 85.17 70.7201 84.5521 70.3839V67.2753C85.1205 67.6115 85.7356 67.7825 86.4029 67.7825C87.0208 67.7825 87.5343 67.583 87.9489 67.1898C88.3635 66.7938 88.748 66.1498 89.105 65.2551L83.8711 53.0771H87.5727L90.7855 61.3658L93.8308 53.0771H97.4583L91.8345 66.9989C90.7636 69.5918 89.1462 70.8882 86.9878 70.8882Z" fill="white"/>
<path d="M107.928 54.5422V53.0777H111.363V64.2185C111.363 66.3755 110.665 68.0252 109.268 69.1706C107.87 70.3161 106.222 70.8888 104.325 70.8888C102.329 70.8888 100.736 70.5269 99.5523 69.8032V66.5949C100.835 67.4041 102.304 67.8087 103.96 67.8087C104.462 67.8087 104.934 67.7545 105.371 67.6434C105.808 67.5323 106.231 67.3556 106.637 67.1134C107.043 66.8684 107.359 66.5151 107.587 66.0506C107.815 65.5862 107.928 65.0363 107.928 64.3952V63.6116C106.969 64.8083 105.632 65.4067 103.91 65.4067C102.254 65.4067 100.898 64.7998 99.8434 63.5888C98.789 62.3608 98.2617 60.8535 98.2617 59.067C98.2617 57.2975 98.789 55.7988 99.8434 54.5679C100.898 53.3541 102.254 52.75 103.91 52.75C105.632 52.7472 106.972 53.3455 107.928 54.5422ZM104.91 62.3237C105.558 62.3237 106.151 62.1642 106.686 61.8422C107.222 61.5231 107.637 61.1099 107.928 60.6027V57.5711C107.637 57.0667 107.222 56.6536 106.686 56.3345C106.151 56.0153 105.558 55.8529 104.91 55.8529C103.951 55.8529 103.177 56.1607 102.584 56.7733C101.991 57.3887 101.697 58.158 101.697 59.0869C101.697 60.0129 102.002 60.7823 102.609 61.3977C103.218 62.016 103.984 62.3237 104.91 62.3237Z" fill="white"/>
<path d="M120.543 66.0136C118.643 66.0136 117.045 65.4067 115.746 64.1957C114.447 62.9819 113.799 61.3749 113.799 59.369C113.799 57.4998 114.384 55.9327 115.551 54.6705C116.721 53.3911 118.245 52.75 120.131 52.75C121.883 52.75 123.289 53.3996 124.343 54.6961C125.398 55.9925 125.925 57.5682 125.925 59.4203V60.3548H117.207C117.385 61.1982 117.835 61.845 118.558 62.3009C119.28 62.7568 120.186 62.9819 121.273 62.9819C122.622 62.9819 123.921 62.6115 125.17 61.8707V64.7257C124.08 65.5833 122.539 66.0136 120.543 66.0136ZM117.207 58.0811H122.539C122.506 57.3574 122.259 56.7562 121.798 56.2746C121.334 55.7931 120.73 55.5537 119.983 55.5537C119.219 55.5537 118.585 55.7845 118.083 56.249C117.577 56.7106 117.286 57.3232 117.207 58.0811Z" fill="white"/>
<path d="M127.748 59.369C127.748 57.4998 128.382 55.9327 129.648 54.6705C130.898 53.3911 132.512 52.75 134.495 52.75C136.475 52.75 138.089 53.3911 139.342 54.6705C140.608 55.9498 141.242 57.5169 141.242 59.369C141.242 61.2552 140.608 62.8394 139.342 64.1188C138.076 65.381 136.458 66.0136 134.495 66.0136C132.532 66.0136 130.914 65.3839 129.648 64.1188C128.382 62.8394 127.748 61.2552 127.748 59.369ZM131.134 59.369C131.134 60.3805 131.45 61.2239 132.084 61.8963C132.718 62.5688 133.52 62.9078 134.495 62.9078C135.47 62.9078 136.272 62.5716 136.906 61.8963C137.54 61.2068 137.856 60.3634 137.856 59.369C137.856 58.3603 137.54 57.5255 136.906 56.8673C136.272 56.1948 135.47 55.8558 134.495 55.8558C133.52 55.8558 132.718 56.192 132.084 56.8673C131.45 57.5255 131.134 58.3575 131.134 59.369Z" fill="white"/>
<path d="M144.817 65.962C144.219 65.962 143.713 65.7483 143.307 65.3181C142.9 64.8878 142.697 64.3607 142.697 63.7395C142.697 63.1326 142.9 62.6198 143.307 62.1981C143.713 61.7764 144.216 61.5684 144.817 61.5684C145.402 61.5684 145.902 61.7792 146.316 62.1981C146.728 62.6198 146.937 63.1326 146.937 63.7395C146.937 64.3607 146.731 64.8878 146.316 65.3181C145.902 65.7483 145.402 65.962 144.817 65.962Z" fill="white"/>
<path d="M157.115 52.7471C158.771 52.7471 160.133 53.3882 161.207 54.6675C162.294 55.9127 162.838 57.4883 162.838 59.3917C162.838 61.2608 162.294 62.8365 161.207 64.1158C160.136 65.3781 158.771 66.0106 157.115 66.0106C155.41 66.0106 154.081 65.3895 153.123 64.1415V70.7348H149.688V53.0747H153.123V54.6162C154.032 53.3711 155.363 52.7471 157.115 52.7471ZM156.141 55.8557C155.493 55.8557 154.899 56.0323 154.364 56.3856C153.828 56.739 153.414 57.1949 153.123 57.7505V61.0329C153.414 61.5885 153.828 62.0387 154.364 62.3835C154.899 62.7282 155.493 62.902 156.141 62.902C157.115 62.902 157.901 62.5658 158.502 61.8905C159.12 61.201 159.428 60.3661 159.428 59.3888C159.428 58.3944 159.12 57.5539 158.502 56.8615C157.904 56.1947 157.115 55.8557 156.141 55.8557Z" fill="white"/>
<path d="M168.804 65.6859H165.369V53.0777H168.804V55.2004C169.178 54.528 169.746 53.9553 170.51 53.4823C171.303 52.995 172.149 52.75 173.041 52.75C173.236 52.75 173.365 52.7586 173.431 52.7757V56.2632C173.107 56.1777 172.75 56.1378 172.36 56.1378C171.564 56.1378 170.839 56.3515 170.18 56.7818C169.524 57.212 169.065 57.7306 168.804 58.3375V65.6859Z" fill="white"/>
<path d="M174.863 59.369C174.863 57.4998 175.498 55.9327 176.764 54.6705C178.013 53.3911 179.628 52.75 181.61 52.75C183.59 52.75 185.205 53.3911 186.457 54.6705C187.723 55.9498 188.357 57.5169 188.357 59.369C188.357 61.2552 187.723 62.8394 186.457 64.1188C185.191 65.381 183.574 66.0136 181.61 66.0136C179.647 66.0136 178.029 65.3839 176.764 64.1188C175.498 62.8394 174.863 61.2552 174.863 59.369ZM178.249 59.369C178.249 60.3805 178.565 61.2239 179.199 61.8963C179.834 62.5688 180.635 62.9078 181.61 62.9078C182.585 62.9078 183.387 62.5716 184.021 61.8963C184.656 61.2068 184.971 60.3634 184.971 59.369C184.971 58.3603 184.656 57.5255 184.021 56.8673C183.387 56.1948 182.585 55.8558 181.61 55.8558C180.635 55.8558 179.834 56.192 179.199 56.8673C178.565 57.5255 178.249 58.3575 178.249 59.369Z" fill="white"/>
<g clip-path="url(#clip0_57_859)">
<path d="M8.19523 93.0095C8.19523 91.4506 8.19523 89.8918 8.19523 88.269C8.74846 88.269 9.28645 88.269 9.86078 88.269C9.86078 86.3669 9.86078 84.5287 9.86078 82.6408C11.2567 82.6408 12.6164 82.6408 14.0252 82.6408C14.0018 82.0277 14.3968 81.7614 14.7777 81.4146C15.4997 80.7577 15.8138 79.8676 15.5747 78.8923C15.3954 78.1596 15.1071 77.4506 14.8258 76.7475C14.3182 75.4798 13.9397 74.1932 14.0944 72.8036C14.1178 72.5989 14.1061 72.3799 14.1776 72.1941C14.4202 71.5573 14.3147 70.9607 14.0287 70.3748C13.9854 70.286 13.942 70.176 13.8658 70.1298C13.1825 69.7084 13.0969 69.0042 13.1532 68.3319C13.2516 67.1328 13.3372 65.9421 13.1673 64.7466C13.1532 64.6472 13.1508 64.4981 13.0899 64.4614C12.648 64.1974 12.7629 63.7914 12.8496 63.4304C12.9563 62.9854 12.9481 62.68 12.4745 62.4279C12.0104 62.1817 11.9834 61.7627 12.2765 61.3046C12.4359 61.056 12.5824 60.8004 12.7336 60.5471C12.8473 60.3565 12.8145 60.2346 12.6082 60.1139C12.042 59.7825 12.0362 59.6913 12.4734 59.2001C12.6609 58.9894 12.8414 58.7693 13.0465 58.5775C13.1989 58.4367 13.3864 58.3349 13.6408 58.1585C13.6806 57.7419 13.7451 57.2211 13.7697 56.6979C13.7744 56.5866 13.6607 56.4174 13.5564 56.3606C12.784 55.9404 12.5976 55.5131 12.9305 54.6869C13.2352 53.9329 13.2305 53.263 12.791 52.5279C12.0983 51.3715 11.7244 50.0802 11.5908 48.7297C11.5298 48.1154 11.245 47.6383 10.7211 47.3543C9.38842 46.6323 8.52108 45.5078 7.87642 44.1656C7.57988 43.5477 7.21771 42.9724 6.65041 42.5582C6.57188 42.5002 6.50742 42.4079 6.46171 42.3191C5.61077 40.6573 4.81023 38.9765 4.58167 37.085C4.56175 36.9205 4.50314 36.7595 4.44805 36.6021C4.24645 36.0127 4.09174 35.9061 3.4717 35.9073C3.03802 35.9073 2.602 35.8848 2.1695 35.9156C1.84835 35.9393 1.64206 35.8055 1.4557 35.5712C1.06305 35.0788 0.657502 34.5982 0.267195 34.1046C0.175772 33.9887 0.0679397 33.8383 0.0667676 33.7034C0.0527025 32.2357 0.0573907 30.768 0.0573907 29.2506C1.19198 29.2506 2.29374 29.2506 3.45529 29.2506C3.45529 23.8993 3.45529 18.5978 3.45529 13.2762C3.61118 13.2655 3.70963 13.2537 3.80809 13.2537C5.82526 13.2502 7.8436 13.2561 9.86078 13.2383C10.1913 13.236 10.3577 13.3401 10.4855 13.6502C10.8336 14.4942 11.2263 15.3192 11.5849 16.1584C11.6517 16.3158 11.6588 16.5075 11.6599 16.6827C11.6705 19.0808 11.6752 21.48 11.681 23.878C11.681 24.0047 11.681 24.1325 11.681 24.284C12.5343 24.284 13.3478 24.284 14.2081 24.284C14.2151 24.1479 14.2268 24.0118 14.2268 23.8757C14.228 22.3795 14.2081 20.8834 14.2362 19.3885C14.2479 18.7979 14.364 18.2096 14.4378 17.5787C14.5245 17.555 14.6558 17.5184 14.8234 17.471C14.8234 16.8058 14.8234 16.1394 14.8234 15.4363C15.0719 15.4245 15.284 15.4138 15.5525 15.4008C15.5525 15.015 15.5525 14.6338 15.5525 14.2515C15.5525 13.9035 15.5501 13.5555 15.5489 13.2075C15.5478 12.4299 15.563 12.4074 16.3155 12.1008C16.3155 11.7659 16.3448 11.4167 16.3085 11.0735C16.2534 10.5479 16.5042 10.207 16.9133 9.96438C17.116 9.84365 17.2098 9.70872 17.1817 9.47318C17.1653 9.33351 17.1993 9.18437 17.1688 9.04943C17.0586 8.56296 17.4161 8.24811 17.6189 7.90486C17.783 7.62552 18.1299 7.46099 18.3749 7.22308C18.4522 7.14851 18.4909 7.00411 18.4991 6.8893C18.5472 6.27262 18.5765 5.65476 18.6187 5.03691C18.6339 4.82385 18.6691 4.6108 18.7816 4.39893C18.8531 5.21682 18.9351 6.03471 18.9879 6.85379C19.0031 7.0846 19.0512 7.20178 19.2821 7.30475C19.6278 7.45981 19.8154 7.79833 20.0381 8.10963C20.3791 8.58663 20.3698 9.09086 20.3815 9.61995C20.3838 9.69807 20.5092 9.78921 20.5948 9.84839C20.9875 10.1171 21.2606 10.4426 21.2055 10.9646C21.1855 11.1551 21.2184 11.3528 21.2031 11.5445C21.1738 11.8937 21.2359 12.1529 21.6204 12.2879C21.7435 12.3317 21.8665 12.5743 21.8712 12.7305C21.8982 13.4774 21.8841 14.2255 21.8841 14.9735C21.8841 15.099 21.8841 15.2245 21.8841 15.3701C22.1244 15.3878 22.3248 15.402 22.5756 15.4198C22.5756 16.1015 22.5756 16.7786 22.5756 17.4627C22.7819 17.503 22.9402 17.5326 23.0808 17.5598C23.1007 17.5953 23.1113 17.6059 23.1113 17.6178C23.1711 18.4664 23.273 19.3139 23.2801 20.1638C23.3023 23.0258 23.2906 25.889 23.2918 28.7511C23.2918 28.8777 23.2918 29.0044 23.2918 29.163C23.7231 29.163 24.1216 29.163 24.5741 29.163C24.5741 28.9736 24.5741 28.7972 24.5741 28.6209C24.5752 25.1646 24.5764 21.7096 24.5776 18.2534C24.5776 18.1244 24.5764 17.9954 24.5776 17.8663C24.5858 16.7573 24.6901 16.6507 25.7579 16.6555C26.0509 16.6567 26.3439 16.6555 26.6522 16.6555C26.7823 16.1086 26.9089 15.5748 27.0366 15.0351C27.9626 15.0351 28.8639 15.0351 29.8203 15.0351C29.8203 15.5748 29.8203 16.0968 29.8203 16.6578C30.7756 16.6578 31.6769 16.6578 32.6228 16.6578C32.6228 20.855 32.6228 25.012 32.6228 29.215C33.8606 29.215 35.0549 29.215 36.2809 29.215C36.2926 29.3713 36.3067 29.4814 36.3067 29.5926C36.3079 30.8698 36.3126 32.1457 36.2985 33.4229C36.2962 33.6004 36.2305 33.8016 36.1321 33.9496C35.7558 34.5166 35.3456 35.061 34.967 35.6268C34.8299 35.8328 34.6763 35.9121 34.4314 35.9026C33.8828 35.8837 33.3331 35.8967 32.7846 35.8943C32.2114 35.8919 31.9864 36.0269 31.8246 36.608C31.6769 37.1395 31.5797 37.6875 31.4929 38.2344C31.3253 39.2902 30.969 40.2726 30.4545 41.2053C30.0958 41.8551 29.7477 42.4824 29.2109 43.0328C28.7057 43.5501 28.3986 44.2697 28.0353 44.9183C27.5266 45.8262 26.8608 46.5719 25.956 47.082C25.2281 47.4928 24.8073 48.0514 24.7417 48.9451C24.6502 50.1879 24.2588 51.3751 23.6458 52.4557C23.3551 52.9683 23.2801 53.4701 23.3938 54.0051C23.5485 54.7307 23.4031 55.3284 22.8265 55.8066C22.5639 56.0244 22.5135 56.2564 22.6378 56.615C22.8065 57.1063 22.8476 57.6413 22.9472 58.1751C23.2449 58.2532 23.5754 58.3372 23.9025 58.4284C24.1568 58.4994 24.2318 58.6651 24.1873 58.9302C24.1673 59.0451 24.2084 59.2451 24.2869 59.2877C24.6268 59.4759 24.6022 59.7339 24.3994 59.9553C24.049 60.3364 24.1545 60.6548 24.4229 61.0087C24.7815 61.4822 25.0183 61.9888 24.642 62.5676C24.553 62.7049 24.444 62.8706 24.3068 62.9238C23.9446 63.0647 23.9833 63.3345 24.0138 63.6222C24.1603 64.9798 24.2517 66.3481 24.4733 67.6939C24.6116 68.5354 24.3361 69.0657 23.6446 69.4338C23.3492 69.5912 23.2519 69.7759 23.3387 70.1109C23.5485 70.9193 23.6856 71.749 23.9329 72.5444C24.1545 73.2558 24.1251 73.9068 23.7864 74.5602C23.7266 74.675 23.6821 74.8348 23.7126 74.9531C23.9318 75.7994 23.8145 76.6007 23.3691 77.3346C22.9202 78.0744 23.0914 78.7751 23.4489 79.4557C23.8884 80.2925 23.9083 80.283 23.3645 81.024C23.6798 81.5353 24.6209 81.6679 24.2494 82.6136C25.4578 82.6136 26.5725 82.6136 27.7434 82.6136C27.7434 84.4968 27.7434 86.3326 27.7434 88.2347C28.3623 88.2347 28.9284 88.2347 29.5683 88.2347C29.5683 89.8705 29.5683 91.44 29.5683 93.0083C22.4467 93.0095 15.3216 93.0095 8.19523 93.0095ZM20.5655 40.3424C20.9335 40.3815 20.9898 40.6099 20.9933 40.875C20.9992 41.2408 20.9335 41.6574 20.5971 41.7711C20.2373 41.8942 20.1963 42.1321 20.1857 42.3889C20.167 42.8624 20.1775 43.3429 20.2326 43.8128C20.2783 44.2022 20.9921 44.6023 21.3063 44.4413C21.6005 44.291 21.8665 44.0827 22.1631 43.9395C22.6401 43.7075 23.1277 43.3453 23.62 43.3299C24.3854 43.3051 24.8249 42.9263 25.2457 42.3913C25.4273 42.1605 25.6301 41.9285 25.8692 41.7675C26.3099 41.4704 26.7706 41.1946 27.2523 40.9733C27.482 40.8679 27.6098 40.746 27.7235 40.5271C28.1372 39.7328 28.5803 38.9528 29.0128 38.1681C29.3515 37.5526 29.6949 36.9395 30.0255 36.3192C30.0852 36.2068 30.0946 36.0659 30.1321 35.9156C22.0763 35.9156 14.078 35.9156 5.93778 35.9156C6.34919 36.6447 6.7055 37.304 7.0876 37.9467C7.55879 38.7386 8.08037 39.5008 8.52342 40.3081C8.72853 40.6809 8.89146 40.9899 9.34974 41.1118C9.68027 41.1994 10.0038 41.4195 10.2628 41.6562C10.7527 42.1037 11.1876 42.6114 11.6588 43.0813C11.7654 43.1879 11.9213 43.305 12.0573 43.3086C13.0711 43.3358 13.9455 43.6519 14.6699 44.4023C15.1399 44.8888 16.3026 44.523 16.3729 43.8495C16.4339 43.2601 16.3389 42.6529 16.2991 42.0539C16.2944 41.9888 16.2123 41.9036 16.1467 41.8717C15.7177 41.6622 15.481 40.9484 15.774 40.5685C15.9392 40.3554 15.9322 40.1732 15.8654 39.9672C15.6263 39.231 15.8842 38.6332 16.3542 38.0888C16.1584 37.6851 16.2182 37.5597 16.6495 37.523C16.9168 37.5005 17.0914 37.4212 17.0621 37.1052C17.0551 37.0259 17.0985 36.9406 17.1078 36.9016C17.3833 36.9016 17.6318 36.9477 17.8568 36.8921C18.3291 36.7761 18.7499 36.8258 19.1332 37.1336C19.4426 37.381 19.7743 37.5526 20.1435 37.4378C20.6194 38.3515 20.971 39.2629 20.5655 40.3424ZM19.37 12.1896C19.3149 12.1719 19.2598 12.1541 19.2047 12.1375C19.1731 12.289 19.1133 12.4394 19.1133 12.5909C19.1051 17.9137 19.1004 23.2365 19.1039 28.5593C19.1039 28.7617 19.193 28.9629 19.2399 29.1653C19.2844 28.957 19.3665 28.7499 19.3676 28.5416C19.3747 23.2957 19.3723 18.051 19.3711 12.8051C19.37 12.5992 19.37 12.3944 19.37 12.1896ZM17.5954 20.8621C17.5978 20.8621 17.6001 20.8621 17.6036 20.8621C17.6036 19.6761 17.6024 18.4901 17.6036 17.3029C17.6048 15.7938 17.6107 14.2858 17.6071 12.7767C17.6071 12.6796 17.538 12.5838 17.5005 12.4867C17.4466 12.5826 17.3868 12.6761 17.3422 12.7767C17.3235 12.8205 17.3387 12.8785 17.3387 12.9306C17.3329 18.2297 17.327 23.5289 17.327 28.8292C17.327 28.944 17.4102 29.0576 17.4536 29.1724C17.5005 29.0588 17.5567 28.9475 17.5907 28.8292C17.6107 28.757 17.5954 28.6753 17.5954 28.5984C17.5954 26.0192 17.5954 23.4401 17.5954 20.8621ZM18.4335 29.2328C18.4335 23.4922 18.4335 17.8285 18.4335 12.1198C18.1733 12.3873 18.1533 28.9274 18.4335 29.2328ZM19.9525 12.5104C19.9525 18.0616 19.9525 23.6117 19.9525 29.2068C20.201 28.976 20.2326 12.811 19.9525 12.5104ZM16.7035 29.2186C16.7035 24.2237 16.7035 19.3068 16.7035 14.3521C16.4538 14.654 16.4093 28.9191 16.7035 29.2186ZM4.77272 15.1369C4.77272 19.8489 4.77272 24.5065 4.77272 29.2541C4.88759 29.144 4.9626 29.1061 4.9626 29.0683C4.95908 24.4568 4.95088 19.8454 4.93681 15.2339C4.93681 15.2103 4.8618 15.1878 4.77272 15.1369ZM5.64945 15.1676C5.61546 15.1771 5.58029 15.1878 5.5463 15.1972C5.5463 19.8513 5.5463 24.5054 5.5463 29.2375C5.77017 28.9653 5.87449 17.5136 5.73266 15.4352C5.7268 15.3452 5.67758 15.2576 5.64945 15.1676ZM6.32574 15.1463C6.32574 19.8501 6.32574 24.5065 6.32574 29.2281C6.58243 28.9144 6.56719 15.3914 6.32574 15.1463ZM7.04541 29.1582C7.09698 29.1653 7.14738 29.1724 7.19895 29.1795C7.21888 29.0375 7.25639 28.8943 7.25639 28.7522C7.26107 24.3562 7.26225 19.9614 7.26342 15.5654C7.26342 15.4624 7.26811 15.3582 7.2517 15.2576C7.24584 15.2233 7.18372 15.1759 7.14621 15.1759C7.10753 15.1748 7.04189 15.2174 7.03486 15.2505C7.01493 15.3369 7.01611 15.4292 7.01611 15.5192C7.02079 19.9531 7.02548 24.3882 7.03134 28.8221C7.03017 28.9333 7.03955 29.0458 7.04541 29.1582ZM7.84009 29.1523C7.87994 29.1594 7.91979 29.1653 7.95964 29.1724C7.98308 29.0434 8.02645 28.9156 8.02645 28.7866C8.03231 27.4088 8.03114 26.0299 8.03231 24.6521C8.03231 21.6256 8.03348 18.5978 8.02997 15.5713C8.02997 15.4363 7.98894 15.3002 7.96785 15.1653C7.92565 15.1736 7.88346 15.1807 7.84009 15.189C7.84009 19.843 7.84009 24.4971 7.84009 29.1523ZM8.61367 15.1452C8.37808 16.1773 8.47888 28.9913 8.69689 29.2127C8.70978 29.0233 8.72853 28.8801 8.72853 28.7369C8.72971 24.4462 8.72854 20.1555 8.72736 15.866C8.72736 15.6861 8.73557 15.505 8.72033 15.3251C8.71564 15.2623 8.65118 15.2055 8.61367 15.1452ZM9.31575 29.1511C9.36967 29.1547 9.42476 29.1582 9.47868 29.1618C9.47868 24.503 9.49274 19.8454 9.46812 15.1866C9.41772 15.1866 9.36615 15.1866 9.31575 15.1866C9.31575 19.8418 9.31575 24.4959 9.31575 29.1511ZM20.6558 29.2068C20.8656 28.9002 20.8538 14.7557 20.6558 14.3498C20.6558 19.3281 20.6558 24.2331 20.6558 29.2068ZM4.08587 29.144C4.11869 29.144 4.15151 29.144 4.18316 29.144C4.18316 24.4935 4.18316 19.8418 4.18316 15.1913C4.15034 15.1913 4.11752 15.1913 4.08587 15.1913C4.08587 19.8418 4.08587 24.4935 4.08587 29.144ZM10.0038 29.1346C10.0272 29.1346 10.0518 29.1346 10.0753 29.1346C10.0753 24.5042 10.0753 19.8738 10.0753 15.2446C10.0518 15.2446 10.0272 15.2446 10.0038 15.2446C10.0038 19.8738 10.0038 24.5042 10.0038 29.1346ZM15.8138 29.1144C15.8373 29.1133 15.8619 29.1121 15.8853 29.1097C15.8853 25.6286 15.8853 22.1487 15.8853 18.6677C15.8619 18.6677 15.8373 18.6677 15.8138 18.6677C15.8138 22.1499 15.8138 25.6322 15.8138 29.1144ZM21.4973 18.6546C21.475 18.6546 21.4539 18.6546 21.4317 18.6546C21.4317 22.1369 21.4317 25.6203 21.4317 29.1026C21.4539 29.1026 21.475 29.1026 21.4973 29.1026C21.4973 25.6192 21.4973 22.1369 21.4973 18.6546ZM15.2055 18.8286C15.1844 18.8275 15.1633 18.8275 15.1422 18.8263C15.1422 22.2458 15.1422 25.6653 15.1422 29.0848C15.1633 29.0848 15.1844 29.0848 15.2055 29.0848C15.2055 25.6665 15.2055 22.2482 15.2055 18.8286ZM22.3987 29.0955C22.4186 29.0955 22.4385 29.0955 22.4584 29.0955C22.4584 25.6843 22.4584 22.273 22.4584 18.863C22.4385 18.863 22.4186 18.863 22.3987 18.863C22.3987 22.273 22.3987 25.6843 22.3987 29.0955ZM25.9208 20.1472C25.9208 20.1448 25.9208 20.1437 25.9208 20.1413C25.8575 20.1413 25.7907 20.1259 25.7333 20.1448C25.6418 20.1756 25.5586 20.2289 25.4719 20.2715C25.5551 20.3224 25.6325 20.4064 25.7204 20.4183C25.8798 20.4407 26.0474 20.4325 26.208 20.4123C26.256 20.4064 26.3146 20.3259 26.3299 20.2679C26.3381 20.2395 26.2642 20.1602 26.2197 20.1519C26.1247 20.1342 26.0216 20.1472 25.9208 20.1472ZM25.8962 21.609C25.8962 21.6102 25.8962 21.6102 25.8962 21.6114C25.8329 21.6114 25.7626 21.5924 25.7086 21.6161C25.6184 21.654 25.5399 21.7191 25.4566 21.7723C25.5375 21.8138 25.6149 21.8824 25.6981 21.8907C25.8598 21.9073 26.0275 21.9002 26.1892 21.8789C26.2373 21.8729 26.2947 21.7901 26.3099 21.7321C26.317 21.7037 26.2443 21.6244 26.1986 21.6161C26.1001 21.596 25.997 21.609 25.8962 21.609ZM25.9032 22.6589C25.9102 22.6423 25.9161 22.6257 25.9231 22.608C25.9864 22.608 26.0556 22.6257 26.1107 22.6033C26.188 22.5725 26.2537 22.5133 26.3252 22.4671C26.2619 22.4222 26.2033 22.3642 26.1329 22.3358C26.0779 22.3133 26.0052 22.3121 25.9466 22.3275C25.7848 22.3689 25.6266 22.4245 25.466 22.4742C25.6125 22.5346 25.7579 22.5973 25.9032 22.6589ZM26.5455 20.1295C26.692 20.6005 27.0272 20.3591 27.2488 20.4147C27.2898 20.4254 27.359 20.3212 27.4152 20.2715C27.3531 20.2241 27.2945 20.1425 27.2289 20.1366C27.0296 20.1176 26.828 20.1295 26.5455 20.1295ZM25.9032 28.8221C25.9032 28.8233 25.9032 28.8256 25.9032 28.8268C25.8399 28.8268 25.7708 28.8114 25.7133 28.8304C25.6325 28.8576 25.5598 28.9108 25.4836 28.9535C25.5633 28.9925 25.6395 29.0541 25.7239 29.0671C25.8481 29.0872 25.9794 29.0872 26.1048 29.0706C26.1775 29.0612 26.2443 29.002 26.3134 28.9641C26.2408 28.9168 26.1716 28.8564 26.0919 28.8256C26.038 28.8043 25.9677 28.8221 25.9032 28.8221ZM26.9862 29.086C26.9956 29.1062 27.005 29.1263 27.0144 29.1476C27.1515 29.0777 27.2886 29.0079 27.4258 28.9393C27.2839 28.899 27.1421 28.8552 26.9979 28.8197C26.9499 28.8079 26.8925 28.8031 26.8479 28.8209C26.7553 28.8552 26.6686 28.9061 26.5795 28.9511C26.6651 28.9961 26.7471 29.0493 26.8362 29.0848C26.8796 29.1014 26.9347 29.086 26.9862 29.086ZM25.8739 26.9969C25.8809 27.0135 25.8891 27.0301 25.8962 27.0478C26.0275 26.9886 26.1599 26.9283 26.2912 26.8691C26.1458 26.8229 26.0017 26.7708 25.8552 26.7341C25.7966 26.7188 25.7239 26.7211 25.6676 26.7412C25.595 26.7673 25.5328 26.8205 25.466 26.8608C25.5387 26.9058 25.6078 26.9638 25.6864 26.9934C25.7403 27.0147 25.8106 26.9969 25.8739 26.9969ZM28.6553 23.3655C28.926 23.3655 29.1511 23.3762 29.3738 23.356C29.4148 23.3525 29.4922 23.1892 29.4699 23.1525C29.3738 22.9939 28.7713 23.1075 28.6553 23.3655ZM27.019 21.6031C27.0097 21.583 26.9991 21.5628 26.9897 21.5439C26.8526 21.6161 26.7155 21.6883 26.5783 21.7605C26.7342 21.8031 26.8878 21.8493 27.0448 21.8848C27.1046 21.8978 27.1796 21.9002 27.2324 21.8753C27.3003 21.8422 27.3519 21.7771 27.4094 21.725C27.3425 21.6848 27.2804 21.6327 27.2078 21.6078C27.1515 21.5877 27.0823 21.6031 27.019 21.6031ZM27.3742 27.004C27.3976 26.9732 27.4211 26.9413 27.4445 26.9105C27.3894 26.8501 27.339 26.7448 27.2769 26.7377C27.1034 26.7164 26.9229 26.7247 26.7483 26.7436C26.6944 26.7495 26.6463 26.8241 26.5959 26.8667C26.6557 26.9129 26.712 26.9922 26.7741 26.9981C26.9722 27.0147 27.1738 27.004 27.3742 27.004ZM28.6541 22.4944C28.6787 22.5311 28.7022 22.5677 28.7268 22.6044C28.9284 22.6044 29.1323 22.6186 29.3328 22.595C29.389 22.5879 29.4312 22.4695 29.4804 22.402C29.287 22.376 29.0936 22.3298 28.9014 22.3334C28.817 22.3346 28.7362 22.4375 28.6541 22.4944ZM27.448 22.6033C27.3203 22.1558 27.005 22.3677 26.7905 22.3322C26.7319 22.3227 26.6557 22.4281 26.5877 22.4802C26.6522 22.5216 26.7131 22.5926 26.7799 22.5985C26.978 22.6127 27.1785 22.6033 27.448 22.6033ZM29.0878 21.899C29.0983 21.9215 29.1101 21.944 29.1206 21.9665C29.2519 21.8872 29.3843 21.809 29.5156 21.7297C29.3726 21.6907 29.232 21.6421 29.0866 21.6149C29.0011 21.5983 28.9049 21.5995 28.8229 21.6244C28.7655 21.6421 28.7244 21.7132 28.6752 21.7617C28.7233 21.8078 28.7655 21.8777 28.8229 21.8931C28.9061 21.9156 28.9987 21.899 29.0878 21.899ZM29.0772 29.0848C29.1405 29.0848 29.2109 29.1014 29.2671 29.0813C29.348 29.0529 29.4195 28.9961 29.4945 28.9523C29.4183 28.9085 29.3456 28.841 29.2636 28.8256C29.1394 28.8031 29.0081 28.8055 28.8827 28.8233C28.8077 28.8339 28.7408 28.8943 28.6705 28.9333C28.742 28.9842 28.8088 29.047 28.8874 29.0813C28.9425 29.1038 29.0139 29.0848 29.0772 29.0848ZM29.4875 26.991C29.4453 26.5507 29.1159 26.8052 28.9401 26.746C28.8674 26.7211 28.7514 26.8277 28.6553 26.8738C28.6717 26.9129 28.6881 26.9519 28.7045 26.991C28.9565 26.991 29.2062 26.991 29.4875 26.991ZM28.0716 21.5321C27.9169 21.6173 27.7915 21.6848 27.6672 21.7534C27.7915 21.8007 27.9157 21.8848 28.0411 21.886C28.1689 21.8883 28.2978 21.8102 28.4267 21.7676C28.3189 21.6966 28.2111 21.6256 28.0716 21.5321ZM29.0995 20.4301C29.0995 20.4289 29.0995 20.4277 29.0995 20.4265C29.1616 20.4265 29.232 20.4443 29.2859 20.423C29.3644 20.3922 29.4312 20.333 29.5027 20.2869C29.4359 20.236 29.3738 20.1555 29.2999 20.1413C29.1792 20.1176 29.0468 20.12 28.926 20.1437C28.8475 20.159 28.7795 20.2324 28.7069 20.281C28.7748 20.3307 28.837 20.3946 28.9131 20.4265C28.9671 20.4479 29.0374 20.4301 29.0995 20.4301ZM28.0446 29.0801C28.0517 29.0979 28.0587 29.1144 28.0657 29.1322C28.1841 29.0742 28.3037 29.0174 28.422 28.9594C28.299 28.912 28.1794 28.8529 28.0517 28.8221C27.9684 28.802 27.8735 28.8091 27.7903 28.8304C27.7457 28.8422 27.686 28.9073 27.6848 28.9499C27.6836 28.9925 27.7399 29.0647 27.7821 29.0742C27.8653 29.0943 27.9567 29.0801 28.0446 29.0801ZM27.6367 26.8833C27.6567 26.9235 27.6766 26.9638 27.6965 27.0028C27.8829 27.0028 28.0728 27.0182 28.2556 26.9934C28.3072 26.9863 28.3423 26.8608 28.3857 26.7886C28.2193 26.7708 28.0517 26.7353 27.8864 26.7448C27.7997 26.7495 27.7188 26.8336 27.6367 26.8833ZM28.5123 20.1318C28.1993 20.1318 28.0106 20.1164 27.8278 20.1413C27.7727 20.1484 27.734 20.2727 27.6871 20.3425C27.8782 20.3697 28.0692 20.4171 28.2603 20.4135C28.3248 20.4123 28.3857 20.2798 28.5123 20.1318ZM28.054 23.433C28.1853 23.3596 28.2966 23.2969 28.4091 23.2341C28.299 23.1892 28.1864 23.1063 28.0774 23.1099C27.9415 23.1158 27.809 23.1939 27.6742 23.2412C27.7915 23.3004 27.9087 23.3584 28.054 23.433ZM26.351 18.8689C26.1822 18.5824 25.6407 18.5753 25.4426 18.8689C25.7579 18.8689 26.0462 18.8689 26.351 18.8689ZM31.0604 20.4987C31.2046 20.4218 31.3124 20.3638 31.4203 20.3058C31.2902 20.2514 31.1624 20.1673 31.0288 20.1543C30.9397 20.146 30.8412 20.2407 30.7475 20.2892C30.8448 20.3555 30.9432 20.4206 31.0604 20.4987ZM30.1005 29.1452C30.2423 29.0813 30.356 29.0292 30.4685 28.9783C30.3619 28.9262 30.2552 28.8351 30.1462 28.8315C30.0231 28.8292 29.8965 28.9049 29.7723 28.9464C29.8766 29.0103 29.9798 29.073 30.1005 29.1452ZM31.1542 28.7534C30.996 28.8244 30.8717 28.8789 30.7486 28.9333C30.8577 28.9819 30.9667 29.0671 31.0768 29.0671C31.2058 29.0683 31.3347 28.9961 31.4636 28.9546C31.3652 28.8919 31.2655 28.8268 31.1542 28.7534ZM30.7604 21.6019C30.7404 21.641 30.7217 21.6812 30.7018 21.7203C30.785 21.7783 30.8682 21.8824 30.9526 21.8848C31.1026 21.8883 31.255 21.8303 31.4062 21.7972C31.3534 21.7321 31.3077 21.6208 31.2468 21.6114C31.0886 21.5841 30.9233 21.6019 30.7604 21.6019ZM30.0864 19.0014C30.2353 18.921 30.3525 18.857 30.4685 18.7931C30.3677 18.7482 30.2646 18.6617 30.1661 18.6677C30.0407 18.6748 29.92 18.7564 29.7969 18.805C29.8848 18.8653 29.9739 18.9257 30.0864 19.0014ZM30.1157 20.5118C30.247 20.4289 30.349 20.365 30.4521 20.3011C30.3326 20.249 30.2142 20.159 30.0934 20.1567C29.9926 20.1543 29.8895 20.2526 29.7875 20.307C29.8872 20.3685 29.9868 20.4313 30.1157 20.5118ZM30.1087 21.9771C30.2505 21.8741 30.356 21.7984 30.4615 21.7214C30.3443 21.6812 30.2271 21.6066 30.111 21.609C30.0032 21.6114 29.8965 21.6966 29.7887 21.7451C29.8825 21.8149 29.9774 21.8824 30.1087 21.9771ZM28.0142 22.6044C28.0892 22.6044 28.17 22.6198 28.2392 22.5997C28.3001 22.5819 28.3787 22.5334 28.3951 22.4813C28.4068 22.4423 28.3283 22.3275 28.2966 22.3298C28.0892 22.344 27.8841 22.3795 27.6789 22.4162C27.6742 22.4174 27.6672 22.5204 27.6918 22.5512C27.7176 22.5843 27.7786 22.5962 27.8254 22.6021C27.8876 22.6115 27.952 22.6044 28.0142 22.6044ZM25.4859 19.4856C25.4813 19.5199 25.4766 19.5542 25.4719 19.5885C25.7555 19.5885 26.0403 19.5885 26.324 19.5885C26.3252 19.5542 26.3263 19.5199 26.3275 19.4856C26.0474 19.4856 25.7673 19.4856 25.4859 19.4856ZM31.0651 22.6885C31.2105 22.5973 31.3148 22.5322 31.4191 22.4671C31.3101 22.4174 31.2034 22.3322 31.0932 22.3298C30.9796 22.3275 30.8635 22.4056 30.7486 22.4482C30.8448 22.5204 30.9397 22.5938 31.0651 22.6885ZM31.0686 23.4365C31.2105 23.3549 31.3159 23.2945 31.4214 23.2341C31.3124 23.188 31.2046 23.1063 31.0944 23.1051C30.9807 23.1039 30.8647 23.1797 30.751 23.2211C30.8494 23.2886 30.9479 23.3549 31.0686 23.4365ZM26.3615 20.9438C26.0345 20.9438 25.752 20.9438 25.3898 20.9438C25.752 21.1782 26.1201 21.1687 26.3615 20.9438ZM29.5051 19.624C29.498 19.5779 29.4922 19.5329 29.4851 19.4867C28.9975 19.3447 28.7678 19.3885 28.7022 19.6773C28.98 19.6584 29.2425 19.6418 29.5051 19.624ZM27.4457 19.6655C27.3003 19.3897 26.9534 19.3506 26.6018 19.611C26.8702 19.6276 27.1386 19.6453 27.4457 19.6655ZM28.667 18.8073C28.6787 18.8417 28.6893 18.8772 28.701 18.9115C28.9225 18.9115 29.144 18.9233 29.3632 18.902C29.4101 18.8973 29.4464 18.7742 29.4863 18.7067C29.2882 18.6937 29.0901 18.6665 28.8932 18.6748C28.817 18.6771 28.742 18.76 28.667 18.8073ZM27.0144 23.1217C27.0062 23.1027 26.9979 23.0838 26.9886 23.0649C26.8608 23.1288 26.7331 23.1927 26.6041 23.2554C26.7471 23.2945 26.8889 23.3395 27.0331 23.3714C27.0929 23.3845 27.1644 23.388 27.2206 23.3691C27.2921 23.3442 27.3531 23.2921 27.4187 23.2519C27.3461 23.2045 27.2792 23.1454 27.2007 23.1158C27.148 23.0956 27.0776 23.1181 27.0144 23.1217ZM27.4234 18.8653C27.434 18.831 27.4457 18.7955 27.4562 18.7612C27.3531 18.7257 27.2499 18.6617 27.1468 18.6617C26.9675 18.6606 26.787 18.6984 26.6076 18.7197C26.6135 18.7683 26.6205 18.8168 26.6264 18.8653C26.8925 18.8653 27.1585 18.8653 27.4234 18.8653ZM26.583 20.926C26.8081 21.2101 27.2722 21.1983 27.4105 20.926C27.1374 20.926 26.876 20.926 26.583 20.926ZM30.7088 26.7803C30.8553 26.9898 31.2902 27.0821 31.3781 26.9543C31.4074 26.9117 31.3417 26.733 31.3183 26.733C31.1249 26.733 30.9327 26.759 30.7088 26.7803ZM30.4017 22.6175C30.4228 22.5796 30.4439 22.5405 30.4662 22.5026C30.3982 22.4423 30.3337 22.3357 30.2599 22.3298C30.1157 22.3168 29.9657 22.3582 29.818 22.3772C29.8614 22.4577 29.8918 22.5926 29.9516 22.6068C30.0946 22.6399 30.2505 22.6175 30.4017 22.6175ZM29.6727 27.0064C29.9727 27.0064 30.1474 27.0206 30.315 26.9957C30.3572 26.9898 30.3794 26.8549 30.4123 26.7791C30.2552 26.7614 30.097 26.7235 29.9422 26.7365C29.8754 26.7436 29.8168 26.8561 29.6727 27.0064ZM29.7641 23.2838C29.7805 23.3146 29.7969 23.3442 29.8133 23.375C29.9739 23.375 30.138 23.3916 30.295 23.3655C30.3454 23.3572 30.3771 23.2329 30.4169 23.1607C30.2739 23.1406 30.1298 23.0945 29.9903 23.1099C29.9106 23.117 29.8403 23.2223 29.7641 23.2838ZM28.4467 19.4595C28.156 19.4595 27.918 19.4595 27.6485 19.4595C27.8618 19.714 28.1993 19.7175 28.4467 19.4595ZM25.4426 23.1229C25.6184 23.3643 26.1494 23.4496 26.2584 23.3276C26.2806 23.304 26.2994 23.2436 26.2865 23.227C26.2525 23.1844 26.2009 23.13 26.154 23.1276C25.9419 23.117 25.7286 23.1229 25.4426 23.1229ZM29.5191 20.9154C29.2249 20.9154 28.9811 20.9154 28.7233 20.9154C28.871 21.2042 29.2929 21.2172 29.5191 20.9154ZM27.6672 18.7943C27.6789 18.831 27.6907 18.8677 27.7035 18.9044C27.8993 18.9044 28.095 18.915 28.2884 18.8961C28.3306 18.8914 28.3611 18.7801 28.3974 18.7174C28.2275 18.6973 28.0587 18.6606 27.8887 18.6641C27.8137 18.6653 27.7411 18.7481 27.6672 18.7943ZM30.6936 20.9178C30.9491 21.1947 31.289 21.1853 31.4531 20.9178C31.2058 20.9178 30.9784 20.9178 30.6936 20.9178ZM30.717 18.6665C30.8483 18.8961 31.3136 19.0074 31.3898 18.8724C31.4109 18.8357 31.3324 18.683 31.2878 18.6771C31.1108 18.6523 30.9291 18.6665 30.717 18.6665ZM27.7047 20.9249C27.9403 21.1947 28.2298 21.1935 28.422 20.9249C28.1771 20.9249 27.9567 20.9249 27.7047 20.9249ZM31.4144 19.5814C31.4121 19.5436 31.4109 19.5057 31.4085 19.4666C31.1823 19.4666 30.9573 19.4666 30.7311 19.4666C30.7311 19.5045 30.7311 19.5424 30.7311 19.5814C30.9585 19.5814 31.187 19.5814 31.4144 19.5814ZM32.0883 27.0407C32.1212 26.9815 32.1528 26.9235 32.1856 26.8643C32.0883 26.8182 31.9922 26.7436 31.8926 26.7377C31.8258 26.7341 31.752 26.8277 31.6816 26.8774C31.8176 26.9318 31.9524 26.9863 32.0883 27.0407ZM29.45 24.7042C29.457 24.6758 29.464 24.6486 29.4722 24.6202C29.2167 24.6202 28.9624 24.6202 28.7069 24.6202C28.7069 24.6486 28.7057 24.6758 28.7057 24.7042C28.9542 24.7042 29.2027 24.7042 29.45 24.7042ZM30.3935 19.6371C30.4146 19.6039 30.4369 19.572 30.458 19.5388C30.3701 19.4986 30.2822 19.4252 30.1954 19.4252C30.0559 19.4252 29.9165 19.4749 29.7758 19.5033C29.7852 19.5483 29.7934 19.5921 29.8028 19.6371C29.9997 19.6371 30.1966 19.6371 30.3935 19.6371Z" fill="white" stroke="white" stroke-miterlimit="10"/>
<path d="M10.3763 14.7378H3.6543V33.2203H10.3763V14.7378Z" fill="white" stroke="white" stroke-miterlimit="10"/>
<path d="M4.44011 29.0591H5.10352L5.10352 15.3206H4.44011L4.44011 29.0591Z" fill="#484848"/>
<path d="M20.9896 12.2914H15.877V30.7739H20.9896V12.2914Z" fill="white" stroke="white" stroke-miterlimit="10"/>
<path d="M22.9914 18.5801H14.7305V35.3487H22.9914V18.5801Z" fill="white" stroke="white" stroke-miterlimit="10"/>
<path d="M32.1868 17.2249H25.1895V35.7073H32.1868V17.2249Z" fill="white" stroke="white" stroke-miterlimit="10"/>
<path d="M5.61199 29.0591H6.27539L6.27539 15.3206H5.61199L5.61199 29.0591Z" fill="#484848"/>
<path d="M6.90105 29.0591H7.56445L7.56445 15.3206H6.90105L6.90105 29.0591Z" fill="#484848"/>
<path d="M8.19011 29.0591H8.85352L8.85352 15.3206H8.19011L8.19011 29.0591Z" fill="#484848"/>
<path d="M9.36199 29.0591H10.0254L10.0254 15.3206H9.36199L9.36199 29.0591Z" fill="#484848"/>
<path d="M31.8274 17.8168H25.2578V18.5802H31.8274V17.8168Z" fill="#484848"/>
<path d="M31.8274 19.0251H25.2578V19.7886H31.8274V19.0251Z" fill="#484848"/>
<path d="M31.8274 20.236H25.2578V20.9994H31.8274V20.236Z" fill="#484848"/>
<path d="M31.8274 21.4777H25.2578V22.2411H31.8274V21.4777Z" fill="#484848"/>
<path d="M31.8274 22.686H25.2578V23.4495H31.8274V22.686Z" fill="#484848"/>
<path d="M31.8274 23.8969H25.2578V24.6603H31.8274V23.8969Z" fill="#484848"/>
<path d="M31.8274 24.9635H25.2578V25.7269H31.8274V24.9635Z" fill="#484848"/>
<path d="M31.8274 26.1719H25.2578V26.9353H31.8274V26.1719Z" fill="#484848"/>
<path d="M31.8274 27.3827H25.2578V28.1461H31.8274V27.3827Z" fill="#484848"/>
<path d="M26.2409 30.5977H26.9043V16.8592H26.2409V30.5977Z" fill="white"/>
<path d="M30.11 30.5977H30.7734V16.8592H30.11V30.5977Z" fill="white"/>
<path d="M28.1159 30.5977H28.7793V16.8592H28.1159V30.5977Z" fill="white"/>
</g>
<defs>
<clipPath id="clip0_57_859">
<rect width="36" height="93" fill="white"/>
</clipPath>
</defs>
</svg>
