<svg width="80" height="80" viewBox="0 0 80 80" fill="none" xmlns="http://www.w3.org/2000/svg">
<rect x="11.5977" y="11.5996" width="56" height="56" rx="10" fill="#78B832"/>
<g clip-path="url(#clip0_57_496)">
<path d="M31.3864 40.7456C31.1743 40.5335 31.1076 40.3173 31.1155 40.0265C31.1313 39.445 31.5794 38.9969 32.1609 38.9811L46.6998 38.5844C47.2814 38.5685 47.7056 38.9928 47.6898 39.5744C47.6739 40.1559 47.2258 40.604 46.6443 40.6198L32.1054 41.0165C31.8147 41.0244 31.5985 40.9577 31.3864 40.7456Z" fill="white"/>
<path d="M39.2042 47.0698C38.7799 46.6456 38.7958 46.064 39.2438 45.616L45.2181 39.6417L39.5612 33.9848C39.1369 33.5606 39.1528 32.979 39.6009 32.531C40.0489 32.0829 40.6305 32.067 41.0548 32.4913L47.4187 38.8553C47.843 39.2795 47.8271 39.8611 47.3791 40.3092L40.6581 47.0302C40.21 47.4782 39.6284 47.4941 39.2042 47.0698Z" fill="white"/>
</g>
<defs>
<clipPath id="clip0_57_496">
<rect width="24" height="26" fill="white" transform="translate(40.3047 21.9199) rotate(45)"/>
</clipPath>
</defs>
</svg>
