<svg width="60" height="60" viewBox="0 0 60 60" fill="none" xmlns="http://www.w3.org/2000/svg">
<g clip-path="url(#clip0_57_772)">
<path d="M29.6606 31.2461H13.25V33.907C13.25 34.3534 13.612 34.7154 14.0585 34.7154H28.8521C29.2986 34.7154 29.6606 34.3534 29.6606 33.907V31.2461Z" stroke="#78B832" stroke-width="2" stroke-miterlimit="10" stroke-linecap="round" stroke-linejoin="round"/>
<path d="M27.1971 34.7148H15.7148V55.4975H27.1971V34.7148Z" stroke="#78B832" stroke-width="2" stroke-miterlimit="10" stroke-linecap="round" stroke-linejoin="round"/>
<path d="M52.66 47.9356H41.2687C40.746 47.9356 40.3223 47.5118 40.3223 46.9892V37.3019C40.3223 36.7792 40.746 36.3555 41.2687 36.3555H52.66C53.1827 36.3555 53.6064 36.7792 53.6064 37.3019V46.9892C53.6064 47.5118 53.1828 47.9356 52.66 47.9356Z" stroke="#78B832" stroke-width="2" stroke-miterlimit="10" stroke-linecap="round" stroke-linejoin="round"/>
<path d="M40.3208 38.6045H37.5812C37.2202 38.6045 36.9277 38.897 36.9277 39.2579V45.034C36.9277 45.3948 37.2202 45.6874 37.5812 45.6874H40.3208V38.6045Z" stroke="#78B832" stroke-width="2" stroke-miterlimit="10" stroke-linecap="round" stroke-linejoin="round"/>
<path d="M56.3451 38.6045H53.6055V45.6873H56.3451C56.7059 45.6873 56.9985 45.3947 56.9985 45.0339V39.2578C56.9985 38.897 56.7059 38.6045 56.3451 38.6045Z" stroke="#78B832" stroke-width="2" stroke-miterlimit="10" stroke-linecap="round" stroke-linejoin="round"/>
<path d="M34.3724 59.121H59.1211V55.4978H0.878906V59.121H30.9739" stroke="#78B832" stroke-width="2" stroke-miterlimit="10" stroke-linecap="round" stroke-linejoin="round"/>
<path d="M52.7792 55.4974H41.1465L44.2119 47.9355H49.7137L52.7792 55.4974Z" stroke="#78B832" stroke-width="2" stroke-miterlimit="10" stroke-linecap="round" stroke-linejoin="round"/>
<path d="M51.9086 51.7168H42.0176" stroke="#78B832" stroke-width="2" stroke-miterlimit="10" stroke-linecap="round" stroke-linejoin="round"/>
<path d="M24.4491 34.7148L15.7148 42.8481L27.1971 46.697L18.5145 55.4975" stroke="#78B832" stroke-width="2" stroke-miterlimit="10" stroke-linecap="round" stroke-linejoin="round"/>
<path d="M37.5039 20.4814V28.2306" stroke="#78B832" stroke-width="2" stroke-miterlimit="10" stroke-linecap="round" stroke-linejoin="round"/>
<path d="M43.0625 30.3516H50.8636" stroke="#78B832" stroke-width="2" stroke-miterlimit="10" stroke-linecap="round" stroke-linejoin="round"/>
<path d="M28.7827 17.4673H13.5332V15.0743C13.5332 14.5684 13.9434 14.1582 14.4493 14.1582H27.8666C28.3725 14.1582 28.7827 14.5684 28.7827 15.0743V17.4673Z" stroke="#78B832" stroke-width="2" stroke-miterlimit="10" stroke-linecap="round" stroke-linejoin="round"/>
<path d="M18.6309 21.9268H23.6882" stroke="#78B832" stroke-width="2" stroke-miterlimit="10" stroke-linecap="round" stroke-linejoin="round"/>
<path d="M14.3086 0.878906V7.28613" stroke="#78B832" stroke-width="2" stroke-miterlimit="10" stroke-linecap="round" stroke-linejoin="round"/>
<path d="M24.3622 9.53052H17.9551" stroke="#78B832" stroke-width="2" stroke-miterlimit="10" stroke-linecap="round" stroke-linejoin="round"/>
<path d="M49.9917 47.936H43.9355V41.2953C43.9355 41.1295 44.07 40.9951 44.2358 40.9951H49.6914C49.8573 40.9951 49.9917 41.1295 49.9917 41.2953V47.936Z" stroke="#78B832" stroke-width="2" stroke-miterlimit="10" stroke-linecap="round" stroke-linejoin="round"/>
<path d="M42.0994 21.1921H35.4671C34.9495 21.1921 34.4681 20.9262 34.1924 20.488L32.7346 18.1709C32.4589 17.7327 31.9775 17.4668 31.4598 17.4668H12.1233C11.2915 17.4668 10.6172 18.1411 10.6172 18.9729V29.7395C10.6172 30.5713 11.2915 31.2456 12.1233 31.2456H31.4598C31.9774 31.2456 32.4588 30.9797 32.7346 30.5415L34.1924 28.2243C34.468 27.7861 34.9494 27.5202 35.4671 27.5202H43.247C43.5516 27.5202 43.7986 27.7671 43.7986 28.0718V36.3555H50.1267V24.3561C50.1267 22.6086 48.7102 21.1921 46.9627 21.1921H45.4978" stroke="#78B832" stroke-width="2" stroke-miterlimit="10" stroke-linecap="round" stroke-linejoin="round"/>
<path d="M0.878906 6.71875H4.67672" stroke="#78B832" stroke-width="2" stroke-miterlimit="10" stroke-linecap="round" stroke-linejoin="round"/>
<path d="M8.07516 6.71875H18.5218V14.1576H23.7953V4.08203C23.7953 2.62574 22.6147 1.44531 21.1586 1.44531H0.878906" stroke="#78B832" stroke-width="2" stroke-miterlimit="10" stroke-linecap="round" stroke-linejoin="round"/>
</g>
<defs>
<clipPath id="clip0_57_772">
<rect width="60" height="60" fill="white"/>
</clipPath>
</defs>
</svg>
