<svg width="77" height="77" viewBox="0 0 77 77" fill="none" xmlns="http://www.w3.org/2000/svg">
<path d="M33.9277 2.25586V36.3613C33.9277 39.4063 35.7675 42.0629 38.4999 43.4856C41.2324 42.0628 43.0721 39.4061 43.0721 36.3613V2.25586H33.9277Z" stroke="#78B832" stroke-width="2" stroke-miterlimit="10" stroke-linecap="round" stroke-linejoin="round"/>
<path d="M33.9277 25.1572H43.0721" stroke="#78B832" stroke-width="2" stroke-miterlimit="10" stroke-linecap="round" stroke-linejoin="round"/>
<path d="M54.9073 53.9632L55.4431 36.6826C55.5539 33.463 52.9669 30.793 49.737 30.793H43.0723" stroke="#78B832" stroke-width="2" stroke-miterlimit="10" stroke-linecap="round" stroke-linejoin="round"/>
<path d="M33.9271 30.793H27.2878C24.0481 30.793 21.4575 33.4783 21.5825 36.7069L22.1733 53.9033" stroke="#78B832" stroke-width="2" stroke-miterlimit="10" stroke-linecap="round" stroke-linejoin="round"/>
<path d="M67.9835 60.3123C66.2683 60.3123 64.7035 60.9505 63.5115 62.0003C62.6412 57.3928 58.5872 53.9062 53.7144 53.9062C50.5073 53.9062 47.6558 55.4178 45.8315 57.7639C44.0073 55.418 41.1559 53.9062 37.9487 53.9062C34.7416 53.9062 31.89 55.4178 30.0658 57.7639C28.2416 55.418 25.3901 53.9062 22.1829 53.9062C17.5595 53.9062 13.6723 57.0448 12.543 61.3017C11.5163 60.6744 10.309 60.3123 9.01652 60.3123C5.28277 60.3123 2.25586 63.3311 2.25586 67.0551V74.7445H74.7432L74.7441 67.0551C74.7441 63.3311 71.7172 60.3123 67.9835 60.3123Z" stroke="#78B832" stroke-width="2" stroke-miterlimit="10" stroke-linecap="round" stroke-linejoin="round"/>
</svg>
