<svg width="61" height="61" viewBox="0 0 61 61" fill="none" xmlns="http://www.w3.org/2000/svg">
<path d="M47.1314 18.8719H13.8674C12.0207 18.8719 10.5195 20.373 10.5195 22.2197C10.5195 24.0664 12.0207 25.5676 13.8674 25.5676H14.0938L26.2818 37.7557V60.0469C26.2818 60.3924 26.4605 60.7021 26.7584 60.8689C26.9014 60.9523 27.0682 61 27.235 61C27.4018 61 27.5686 60.9523 27.7115 60.8689L35.2293 56.5322C35.5271 56.3654 35.7059 56.0438 35.7059 55.7102V36.7549L46.8932 25.5676H47.1195C48.9662 25.5676 50.4674 24.0664 50.4674 22.2197C50.4793 20.373 48.9781 18.8719 47.1314 18.8719ZM34.0855 35.6826C33.9068 35.8613 33.8115 36.0996 33.8115 36.3617V55.1621L28.2 58.4027V37.3506C28.2 37.1004 28.1047 36.8502 27.926 36.6715L16.7982 25.5676H44.2006L34.0855 35.6826ZM47.1314 23.6613H13.8674C13.0691 23.6613 12.4258 23.018 12.4258 22.2197C12.4258 21.4215 13.0691 20.7781 13.8674 20.7781H47.1195C47.9178 20.7781 48.5611 21.4215 48.5611 22.2197C48.573 23.018 47.9178 23.6613 47.1314 23.6613ZM35.5033 11.5566C35.5033 13.9275 37.4334 15.8695 39.8162 15.8695C42.1871 15.8695 44.1172 13.9395 44.1172 11.5566C44.1172 9.18574 42.1871 7.25566 39.8162 7.25566C37.4334 7.25566 35.5033 9.18574 35.5033 11.5566ZM39.8043 9.16191C41.1268 9.16191 42.2109 10.2342 42.2109 11.5686C42.2109 12.891 41.1387 13.9752 39.8043 13.9752C38.4818 13.9752 37.3977 12.891 37.3977 11.5686C37.4096 10.2342 38.4818 9.16191 39.8043 9.16191ZM21.1945 16.2389C23.5654 16.2389 25.5074 14.3088 25.5074 11.926C25.5074 9.55508 23.5773 7.625 21.1945 7.625C18.8236 7.625 16.8936 9.55508 16.8936 11.926C16.8816 14.2969 18.8117 16.2389 21.1945 16.2389ZM21.1945 9.51934C22.517 9.51934 23.6012 10.5916 23.6012 11.926C23.6012 13.2484 22.517 14.3326 21.1945 14.3326C19.8721 14.3326 18.7879 13.2484 18.7879 11.926C18.7879 10.6035 19.8602 9.51934 21.1945 9.51934ZM35.8607 6.60039C37.6836 6.60039 39.1609 5.12305 39.1609 3.3002C39.1609 1.47734 37.6836 0 35.8607 0C34.0379 0 32.5605 1.47734 32.5605 3.3002C32.5605 5.12305 34.0379 6.60039 35.8607 6.60039ZM35.8607 1.90625C36.6352 1.90625 37.2547 2.5377 37.2547 3.3002C37.2547 4.07461 36.6232 4.69414 35.8607 4.69414C35.0863 4.69414 34.4668 4.0627 34.4668 3.3002C34.4668 2.5377 35.0863 1.90625 35.8607 1.90625ZM29.8561 11.7949C31.6789 11.7949 33.1562 10.3176 33.1562 8.49473C33.1562 6.67188 31.6789 5.19453 29.8561 5.19453C28.0332 5.19453 26.5559 6.67188 26.5559 8.49473C26.5559 10.3176 28.0332 11.7949 29.8561 11.7949ZM29.8561 7.10078C30.6305 7.10078 31.25 7.73223 31.25 8.49473C31.25 9.25723 30.6186 9.88867 29.8561 9.88867C29.0816 9.88867 28.4621 9.25723 28.4621 8.49473C28.4621 7.73223 29.0936 7.10078 29.8561 7.10078Z" fill="#78B832"/>
</svg>
