<svg width="60" height="63" viewBox="0 0 60 63" fill="none" xmlns="http://www.w3.org/2000/svg">
<path d="M13.7742 18.9756V56.506C13.7742 59.4823 11.3614 61.8951 8.38513 61.8951C5.40885 61.8951 2.99609 59.4823 2.99609 56.506V18.9756" stroke="#78B832" stroke-width="2" stroke-miterlimit="10" stroke-linecap="round" stroke-linejoin="round"/>
<path d="M8.7614 18.8199H2.63015C1.7298 18.8199 1 18.0901 1 17.1897C1 16.2894 1.7298 15.5596 2.63015 15.5596H14.1412C15.0416 15.5596 15.7714 16.2894 15.7714 17.1897C15.7714 18.0901 15.0416 18.8199 14.1412 18.8199H12.1332" stroke="#78B832" stroke-width="2" stroke-miterlimit="10" stroke-linecap="round" stroke-linejoin="round"/>
<path d="M3.19336 27.9463H9.85012" stroke="#78B832" stroke-width="2" stroke-miterlimit="10" stroke-linecap="round" stroke-linejoin="round"/>
<path d="M17.0645 26.2597L34.7002 20.0645" stroke="#78B832" stroke-width="2" stroke-miterlimit="10" stroke-linecap="round" stroke-linejoin="round"/>
<path d="M39.2428 21.4941L58.3654 28.0961L35.1001 36.1283L17.3633 30.0048" stroke="#78B832" stroke-width="2" stroke-miterlimit="10" stroke-linecap="round" stroke-linejoin="round"/>
<path d="M58.3654 35.3086L35.1001 43.3408L17.3633 37.1576" stroke="#78B832" stroke-width="2" stroke-miterlimit="10" stroke-linecap="round" stroke-linejoin="round"/>
<path d="M58.3654 42.5215L35.1001 50.5537L17.3633 44.3706" stroke="#78B832" stroke-width="2" stroke-miterlimit="10" stroke-linecap="round" stroke-linejoin="round"/>
<path d="M58.3654 32.0459V49.7333L35.1001 57.7655L17.3633 51.5824" stroke="#78B832" stroke-width="2" stroke-miterlimit="10" stroke-linecap="round" stroke-linejoin="round"/>
<path d="M31.8839 4.02202C34.3274 6.46545 34.906 13.5329 34.906 13.5329C34.906 13.5329 27.8385 12.9543 25.3951 10.5109C22.9516 8.06746 22.373 1 22.373 1C22.373 1 29.4405 1.57859 31.8839 4.02202Z" stroke="#78B832" stroke-width="2" stroke-miterlimit="10" stroke-linecap="round" stroke-linejoin="round"/>
<path d="M38.1587 4.02202C35.7153 6.46545 35.1367 13.5329 35.1367 13.5329C35.1367 13.5329 42.2042 12.9543 44.6476 10.5109C47.091 8.06746 47.6696 1 47.6696 1C47.6696 1 40.6022 1.57859 38.1587 4.02202Z" stroke="#78B832" stroke-width="2" stroke-miterlimit="10" stroke-linecap="round" stroke-linejoin="round"/>
<path d="M35.0234 13.5664V26.465" stroke="#78B832" stroke-width="2" stroke-miterlimit="10" stroke-linecap="round" stroke-linejoin="round"/>
<path d="M41.6192 27.6154C42.1716 27.6154 42.6193 27.1677 42.6193 26.6153C42.6193 26.063 42.1716 25.6152 41.6192 25.6152C41.0669 25.6152 40.6191 26.063 40.6191 26.6153C40.6191 27.1677 41.0669 27.6154 41.6192 27.6154Z" fill="#78B832"/>
<path d="M46.0997 28.8303C46.652 28.8303 47.0998 28.3825 47.0998 27.8302C47.0998 27.2778 46.652 26.8301 46.0997 26.8301C45.5474 26.8301 45.0996 27.2778 45.0996 27.8302C45.0996 28.3825 45.5474 28.8303 46.0997 28.8303Z" fill="#78B832"/>
<path d="M38.67 31.5305C39.2224 31.5305 39.6701 31.0827 39.6701 30.5304C39.6701 29.978 39.2224 29.5303 38.67 29.5303C38.1177 29.5303 37.6699 29.978 37.6699 30.5304C37.6699 31.0827 38.1177 31.5305 38.67 31.5305Z" fill="#78B832"/>
<path d="M54.4474 41.1105C54.9997 41.1105 55.4475 40.6628 55.4475 40.1104C55.4475 39.5581 54.9997 39.1104 54.4474 39.1104C53.895 39.1104 53.4473 39.5581 53.4473 40.1104C53.4473 40.6628 53.895 41.1105 54.4474 41.1105Z" fill="#78B832"/>
<path d="M40.2892 46.3928C40.8415 46.3928 41.2893 45.945 41.2893 45.3927C41.2893 44.8403 40.8415 44.3926 40.2892 44.3926C39.7368 44.3926 39.2891 44.8403 39.2891 45.3927C39.2891 45.945 39.7368 46.3928 40.2892 46.3928Z" fill="#78B832"/>
<path d="M34.4708 47.6701C35.0231 47.6701 35.4709 47.2224 35.4709 46.67C35.4709 46.1177 35.0231 45.6699 34.4708 45.6699C33.9185 45.6699 33.4707 46.1177 33.4707 46.67C33.4707 47.2224 33.9185 47.6701 34.4708 47.6701Z" fill="#78B832"/>
<path d="M29.6075 45.3244C30.1599 45.3244 30.6076 44.8766 30.6076 44.3243C30.6076 43.772 30.1599 43.3242 29.6075 43.3242C29.0552 43.3242 28.6074 43.772 28.6074 44.3243C28.6074 44.8766 29.0552 45.3244 29.6075 45.3244Z" fill="#78B832"/>
<path d="M25.295 42.1906C25.8474 42.1906 26.2951 41.7429 26.2951 41.1905C26.2951 40.6382 25.8474 40.1904 25.295 40.1904C24.7427 40.1904 24.2949 40.6382 24.2949 41.1905C24.2949 41.7429 24.7427 42.1906 25.295 42.1906Z" fill="#78B832"/>
<path d="M25.3868 46.5939C25.9391 46.5939 26.3869 46.1462 26.3869 45.5938C26.3869 45.0415 25.9391 44.5938 25.3868 44.5938C24.8345 44.5938 24.3867 45.0415 24.3867 45.5938C24.3867 46.1462 24.8345 46.5939 25.3868 46.5939Z" fill="#78B832"/>
<path d="M19.6778 42.5412C20.2302 42.5412 20.6779 42.0934 20.6779 41.5411C20.6779 40.9888 20.2302 40.541 19.6778 40.541C19.1255 40.541 18.6777 40.9888 18.6777 41.5411C18.6777 42.0934 19.1255 42.5412 19.6778 42.5412Z" fill="#78B832"/>
<path d="M50.381 44.6428C50.9333 44.6428 51.381 44.195 51.381 43.6427C51.381 43.0903 50.9333 42.6426 50.381 42.6426C49.8286 42.6426 49.3809 43.0903 49.3809 43.6427C49.3809 44.195 49.8286 44.6428 50.381 44.6428Z" fill="#78B832"/>
<path d="M47.1388 41.6037C47.6911 41.6037 48.1389 41.1559 48.1389 40.6036C48.1389 40.0513 47.6911 39.6035 47.1388 39.6035C46.5864 39.6035 46.1387 40.0513 46.1387 40.6036C46.1387 41.1559 46.5864 41.6037 47.1388 41.6037Z" fill="#78B832"/>
<path d="M45.1505 44.6711C45.7028 44.6711 46.1506 44.2233 46.1506 43.671C46.1506 43.1187 45.7028 42.6709 45.1505 42.6709C44.5981 42.6709 44.1504 43.1187 44.1504 43.671C44.1504 44.2233 44.5981 44.6711 45.1505 44.6711Z" fill="#78B832"/>
</svg>
