<svg width="74" height="74" viewBox="0 0 74 74" fill="none" xmlns="http://www.w3.org/2000/svg">
<path fill-rule="evenodd" clip-rule="evenodd" d="M57.0442 66.3815H16.6888C14.1731 66.3815 12.1466 64.2453 12.1466 61.6539V39.8721C5.8575 39.5219 5.99726 34.269 10.2948 30.0668L31.1189 9.61564C34.3683 6.4289 39.6442 6.4289 42.8936 9.61564L63.7526 30.0668C68.2598 34.5142 68.0502 39.5569 61.5863 39.8721V61.6539C61.5863 64.2453 59.5598 66.3815 57.0442 66.3815ZM37.0237 8.6351C35.2418 8.6351 33.4599 9.30046 32.0972 10.6312L11.2732 31.0823C7.95388 34.3391 7.01051 38.5064 12.8454 38.5064C13.2298 38.5064 13.5442 38.8215 13.5442 39.2067V61.6539C13.5442 63.4749 14.9418 64.9807 16.6888 64.9807H57.0442C58.7912 64.9807 60.2237 63.4749 60.2237 61.6539V39.2067C60.2237 38.8215 60.5032 38.5064 60.9225 38.5064C66.8622 38.5064 66.443 34.6543 62.8092 31.0823L41.9153 10.5962C40.5526 9.30046 38.8057 8.6351 37.0237 8.6351Z" fill="#78B832"/>
<path fill-rule="evenodd" clip-rule="evenodd" d="M56.1983 66.3811H38.1802C37.7953 66.3811 37.4805 66.0667 37.4805 65.6825V40.2877C37.4805 37.4932 39.7546 35.2227 42.5535 35.2227H51.825C54.6239 35.2227 56.8981 37.4932 56.8981 40.2877V65.6825C56.8981 66.0667 56.5832 66.3811 56.1983 66.3811ZM38.8799 64.9839H55.4986V40.2877C55.4986 38.2617 53.8542 36.6199 51.825 36.6199H42.5535C40.5243 36.6199 38.8799 38.2617 38.8799 40.2877V64.9839Z" fill="#78B832"/>
<path fill-rule="evenodd" clip-rule="evenodd" d="M51.4724 52.3819C48.4701 52.3819 48.4701 47.8662 51.4724 47.8662C54.5076 47.8662 54.4746 52.3819 51.4724 52.3819ZM51.4724 49.1657C50.1857 49.1657 50.1857 51.0824 51.4724 51.0824C52.759 51.0824 52.759 49.1657 51.4724 49.1657Z" fill="#78B832"/>
<path fill-rule="evenodd" clip-rule="evenodd" d="M30.9786 51.4792H20.5006C18.8993 51.4792 17.6113 50.1913 17.6113 48.59V38.1119C17.6113 36.5107 18.8993 35.2227 20.5006 35.2227H30.9786C32.5799 35.2227 33.8679 36.5107 33.8679 38.1119V48.59C33.8679 50.1913 32.5799 51.4792 30.9786 51.4792ZM20.5006 36.6151C19.6652 36.6151 19.0038 37.2765 19.0038 38.1119V48.59C19.0038 49.4254 19.6652 50.0868 20.5006 50.0868H30.9786C31.8141 50.0868 32.4755 49.4254 32.4755 48.59V38.1119C32.4755 37.2765 31.8141 36.6151 30.9786 36.6151H20.5006Z" fill="#78B832"/>
<path fill-rule="evenodd" clip-rule="evenodd" d="M33.1751 43.3508H18.291C17.3848 43.3508 17.3848 41.9961 18.291 41.9961H33.1751C34.1162 41.9961 34.0814 43.3508 33.1751 43.3508Z" fill="#78B832"/>
<path fill-rule="evenodd" clip-rule="evenodd" d="M25.5133 51.4792C25.1069 51.4792 24.8359 51.1656 24.8359 50.7823V35.9022C24.8359 34.9961 26.1907 34.9961 26.1907 35.9022V50.7823C26.1907 51.1656 25.8858 51.4792 25.5133 51.4792Z" fill="#78B832"/>
<path fill-rule="evenodd" clip-rule="evenodd" d="M37.4639 25.2879C34.5019 25.2879 32.0625 22.8757 32.0625 19.8691C32.0625 16.8625 34.5019 14.4502 37.4639 14.4502C40.4609 14.4502 42.9002 16.8625 42.9002 19.8691C42.9002 22.8757 40.4609 25.2879 37.4639 25.2879ZM37.4639 15.8486C35.2685 15.8486 33.4564 17.6316 33.4564 19.8691C33.4564 22.1065 35.2685 23.8895 37.4639 23.8895C39.6942 23.8895 41.5063 22.1065 41.5063 19.8691C41.5063 17.6316 39.6942 15.8486 37.4639 15.8486Z" fill="#78B832"/>
</svg>
