<svg width="60" height="60" viewBox="0 0 60 60" fill="none" xmlns="http://www.w3.org/2000/svg">
<path fill-rule="evenodd" clip-rule="evenodd" d="M11.4542 15.0259C13.1811 12.4867 16.7882 12.5815 18.609 14.7734C21.0639 17.7289 24.5248 20.6246 30.0005 20.6246C35.5697 20.6246 38.9777 18.2999 41.2967 15.3843C43.1002 13.1168 46.944 12.7526 48.8342 15.4423C50.3802 17.6423 52.0702 19.3946 55.406 20.1338C56.417 20.3579 57.055 21.3591 56.831 22.3701C56.607 23.3811 55.6057 24.019 54.5947 23.795C49.9922 22.775 47.598 20.2053 45.766 17.5985C45.6445 17.4256 45.4275 17.2979 45.1 17.3037C44.76 17.3098 44.433 17.4655 44.2317 17.7186C41.2935 21.4126 36.8532 24.3746 30.0005 24.3746C22.9432 24.3746 18.5272 20.5438 15.7243 17.1695C15.5612 16.9732 15.3187 16.8697 15.0721 16.8747C14.8337 16.8795 14.6603 16.98 14.555 17.1348C12.6896 19.8777 10.2964 22.7112 5.40606 23.795C4.39506 24.019 3.39384 23.3811 3.16981 22.3701C2.94576 21.3591 3.58371 20.3579 4.59471 20.1338C8.12449 19.3516 9.81514 17.4359 11.4542 15.0259ZM11.4542 27.5259C13.1811 24.9867 16.7882 25.0814 18.609 27.2734C21.0639 30.2289 24.5248 33.1244 30.0005 33.1244C35.5697 33.1244 38.9777 30.7999 41.2967 27.8842C43.1002 25.6169 46.944 25.2524 48.8342 27.9424C50.3802 30.1422 52.0702 31.8944 55.406 32.6337C56.417 32.8579 57.055 33.8592 56.831 34.8702C56.607 35.8812 55.6057 36.5189 54.5947 36.2949C49.9922 35.2749 47.598 32.7054 45.766 30.0984C45.6445 29.9257 45.4275 29.7979 45.1 29.8037C44.76 29.8099 44.433 29.9654 44.2317 30.2187C41.2935 33.9127 36.8532 36.8744 30.0005 36.8744C22.9432 36.8744 18.5272 33.0437 15.7243 29.6694C15.5612 29.4732 15.3187 29.3697 15.0721 29.3747C14.8337 29.3794 14.6603 29.4799 14.555 29.6349C12.6896 32.3777 10.2964 35.2112 5.40606 36.2949C4.39506 36.5189 3.39384 35.8812 3.16981 34.8702C2.94576 33.8592 3.58371 32.8579 4.59471 32.6337C8.12449 31.8517 9.81514 29.9359 11.4542 27.5259ZM11.4542 40.0259C13.1811 37.4867 16.7882 37.5814 18.609 39.7734C21.0639 42.7289 24.5248 45.6245 30.0005 45.6245C35.5697 45.6245 38.9777 43.2999 41.2967 40.3842C43.1002 38.1169 46.944 37.7524 48.8342 40.4424C50.3802 42.6422 52.0702 44.3944 55.406 45.1337C56.417 45.3579 57.055 46.3592 56.831 47.3702C56.607 48.3812 55.6057 49.0189 54.5947 48.7949C49.9922 47.7749 47.598 45.2054 45.766 42.5984C45.6445 42.4257 45.4275 42.2979 45.1 42.3037C44.76 42.3099 44.433 42.4654 44.2317 42.7187C41.2935 46.4127 36.8532 49.3745 30.0005 49.3745C22.9432 49.3745 18.5272 45.5437 15.7243 42.1694C15.5612 41.9732 15.3187 41.8697 15.0721 41.8747C14.8337 41.8794 14.6603 41.9799 14.555 42.1347C12.6896 44.8777 10.2964 47.7112 5.40606 48.7949C4.39506 49.0189 3.39384 48.3812 3.16981 47.3702C2.94576 46.3592 3.58371 45.3579 4.59471 45.1337C8.12449 44.3517 9.81514 42.4359 11.4542 40.0259Z" fill="#78B832"/>
</svg>
